{"glyphs":{"0":{"ha":713,"x_min":61,"x_max":652,"o":"m 543 321 q 529 426 543 380 q 492 505 516 473 q 434 554 468 537 q 357 572 399 572 q 280 554 314 572 q 221 505 245 537 q 184 426 197 473 q 171 321 171 380 q 184 217 171 264 q 221 139 197 171 q 280 90 245 107 q 357 73 315 73 q 434 90 400 73 q 493 139 469 107 q 530 217 517 171 q 543 321 543 264 m 652 321 q 632 188 652 250 q 574 80 612 125 q 482 9 536 35 q 357 -17 427 -17 q 230 9 286 -17 q 137 80 175 35 q 80 188 100 125 q 61 321 61 250 q 81 456 61 394 q 139 564 101 518 q 232 635 177 610 q 357 661 287 661 q 483 635 428 661 q 576 564 538 610 q 633 456 614 518 q 652 321 652 394 z "},"1":{"ha":623,"x_min":61,"x_max":589,"o":"m 306 97 l 306 532 l 61 456 l 61 553 l 320 644 l 411 644 l 411 97 l 589 97 l 589 0 l 90 0 l 90 97 l 306 97 z "},"2":{"ha":709,"x_min":105,"x_max":629,"o":"m 277 93 q 417 97 355 97 l 629 97 l 629 0 l 105 0 l 105 70 q 249 177 183 127 q 362 273 315 227 q 437 362 410 319 q 465 450 465 406 q 427 540 465 509 q 317 571 389 571 q 215 555 264 570 q 112 516 165 541 l 112 606 q 207 645 151 628 q 332 661 264 661 q 430 648 385 661 q 506 608 474 634 q 556 544 538 582 q 574 455 574 505 q 551 355 574 401 q 488 266 528 309 q 393 181 448 223 q 277 96 339 140 l 277 93 z "},"3":{"ha":629,"x_min":46,"x_max":562,"o":"m 378 209 q 447 191 414 205 q 506 151 480 177 q 546 85 531 124 q 562 -5 562 47 q 541 -119 562 -68 q 479 -205 519 -170 q 378 -261 438 -241 q 239 -280 318 -280 q 135 -270 184 -280 q 46 -240 85 -260 l 46 -151 q 142 -181 95 -172 q 232 -190 190 -190 q 336 -175 294 -190 q 404 -134 378 -159 q 440 -76 429 -109 q 452 -7 452 -43 q 395 120 452 81 q 233 159 339 159 l 161 159 l 161 249 l 203 249 q 303 262 261 249 q 372 299 345 275 q 411 354 399 322 q 424 422 424 385 q 410 489 424 460 q 372 535 396 517 q 315 562 348 553 q 245 571 283 571 q 153 560 199 571 q 60 531 106 549 l 60 621 q 166 652 116 644 q 256 661 217 661 q 373 644 321 661 q 460 594 425 626 q 515 519 496 562 q 534 423 534 475 q 526 356 534 389 q 499 296 517 323 q 451 246 480 268 q 378 212 421 224 l 378 209 z "},"4":{"ha":718,"x_min":62,"x_max":670,"o":"m 182 90 l 182 87 l 283 90 l 431 90 l 431 296 l 536 296 l 536 90 l 670 90 l 670 0 l 536 0 l 536 -262 l 431 -262 l 431 0 l 62 0 l 62 77 l 330 644 l 443 644 l 182 90 z "},"5":{"ha":667,"x_min":79,"x_max":595,"o":"m 595 9 q 573 -106 595 -54 q 507 -198 550 -159 q 402 -258 464 -237 q 262 -280 340 -280 q 163 -270 210 -280 q 79 -240 117 -260 l 79 -151 q 174 -181 130 -173 q 257 -189 219 -189 q 357 -173 315 -189 q 429 -132 400 -158 q 471 -70 457 -105 q 486 3 486 -35 q 471 84 486 50 q 425 141 456 119 q 345 175 394 164 q 227 186 296 186 q 109 180 178 186 l 174 644 l 595 644 l 595 547 l 267 547 l 229 278 q 267 279 252 279 q 407 261 346 279 q 510 208 469 243 q 574 123 552 174 q 595 9 595 73 z "},"6":{"ha":728,"x_min":75,"x_max":661,"o":"m 382 547 q 494 529 443 547 q 582 478 545 512 q 640 394 619 444 q 661 279 661 345 q 641 160 661 214 q 585 66 622 105 q 496 5 549 27 q 376 -17 443 -17 q 249 12 304 -17 q 154 93 193 40 q 95 221 115 146 q 75 390 75 296 q 86 529 75 462 q 119 656 97 597 q 173 765 141 715 q 248 849 205 814 q 344 905 291 885 q 459 924 397 924 q 548 914 511 924 q 610 892 585 905 l 610 804 q 545 824 583 815 q 467 833 507 833 q 372 813 418 833 q 289 751 326 793 q 225 645 252 709 q 189 493 199 581 l 192 493 q 285 532 235 517 q 382 547 335 547 m 380 73 q 447 85 416 73 q 501 123 478 98 q 537 185 524 149 q 551 270 551 222 q 537 356 551 321 q 499 412 523 391 q 443 444 475 434 q 374 453 410 453 q 275 436 326 453 q 184 395 225 419 q 198 253 184 313 q 239 152 213 192 q 301 92 264 112 q 380 73 337 73 z "},"7":{"ha":594,"x_min":26,"x_max":558,"o":"m 26 547 l 26 644 l 558 644 l 558 574 l 184 -262 l 75 -262 l 437 547 l 26 547 z "},"8":{"ha":715,"x_min":64,"x_max":650,"o":"m 357 -17 q 238 2 292 -17 q 145 56 184 22 q 85 136 106 90 q 64 237 64 182 q 79 326 64 287 q 117 393 93 364 q 173 440 141 421 q 241 467 205 458 l 241 470 q 179 501 208 481 q 129 548 150 521 q 95 611 107 576 q 83 688 83 646 q 106 789 83 745 q 168 864 130 833 q 255 909 206 894 q 357 924 304 924 q 459 909 410 924 q 547 864 509 894 q 608 789 585 833 q 631 688 631 745 q 618 611 631 646 q 583 548 605 576 q 530 501 560 521 q 467 470 500 481 l 467 467 q 536 440 503 458 q 594 393 569 421 q 635 326 620 364 q 650 237 650 287 q 629 136 650 182 q 570 56 608 90 q 477 2 531 22 q 357 -17 423 -17 m 357 835 q 292 825 322 835 q 240 796 262 815 q 205 749 218 777 q 193 684 193 721 q 236 572 193 615 q 357 513 279 528 q 478 572 435 528 q 522 684 522 615 q 509 749 522 721 q 475 796 497 777 q 423 825 453 815 q 357 835 393 835 m 357 420 q 286 403 319 416 q 228 369 253 391 q 189 315 203 347 q 174 240 174 283 q 188 170 174 201 q 227 117 202 139 q 284 84 251 96 q 357 73 318 73 q 431 84 397 73 q 489 117 465 96 q 527 170 513 139 q 541 240 541 201 q 526 315 541 283 q 487 369 512 347 q 429 403 462 391 q 357 420 395 416 z "},"9":{"ha":728,"x_min":68,"x_max":654,"o":"m 260 -280 q 164 -270 209 -280 q 86 -241 120 -259 l 86 -151 q 163 -178 120 -168 q 252 -189 206 -189 q 365 -170 314 -189 q 452 -110 415 -151 q 512 -4 490 -68 q 542 151 535 60 l 539 151 q 496 130 520 140 q 445 113 472 120 q 390 102 418 106 q 335 98 362 98 q 231 115 279 98 q 146 166 182 132 q 89 250 110 199 q 68 366 68 300 q 86 482 68 428 q 141 576 105 536 q 229 638 176 616 q 349 661 281 661 q 479 633 422 661 q 575 550 536 605 q 634 416 614 496 q 654 232 654 336 q 644 97 654 162 q 615 -24 635 33 q 564 -129 595 -81 q 489 -209 532 -176 q 389 -261 446 -243 q 260 -280 332 -280 m 350 191 q 452 207 401 191 q 544 248 503 223 q 529 394 543 333 q 488 495 514 456 q 426 553 463 534 q 346 572 390 572 q 278 559 309 572 q 225 521 248 546 q 190 459 203 496 q 178 376 178 422 q 190 291 178 326 q 224 234 202 256 q 279 201 247 212 q 350 191 311 191 z "},"\u0000":{"ha":0,"x_min":0,"x_max":0,"o":""},"\r":{"ha":278,"x_min":0,"x_max":0,"o":""}," ":{"ha":278,"x_min":0,"x_max":0,"o":""},"A":{"ha":882,"x_min":24,"x_max":859,"o":"m 24 0 l 393 907 l 489 907 l 859 0 l 739 0 l 630 273 l 251 273 l 142 0 l 24 0 m 440 766 q 324 458 380 597 l 290 373 l 591 373 l 557 458 q 443 766 501 600 l 440 766 z "},"B":{"ha":824,"x_min":115,"x_max":746,"o":"m 563 469 q 638 447 605 463 q 696 405 672 431 q 733 345 720 380 q 746 265 746 310 q 736 198 746 233 q 705 131 727 163 q 647 70 683 98 q 559 24 612 42 q 469 5 518 11 q 350 0 419 0 l 115 0 l 115 907 l 342 907 q 398 906 373 907 q 445 903 424 905 q 485 898 467 901 q 519 891 503 895 q 597 860 562 880 q 656 812 632 840 q 694 749 681 784 q 707 672 707 713 q 700 608 707 639 q 674 552 692 578 q 630 506 657 526 q 563 472 602 486 l 563 469 m 394 515 q 450 518 427 515 q 493 527 474 521 q 567 580 544 544 q 591 665 591 616 q 566 747 591 715 q 490 794 542 779 q 430 805 464 802 q 350 808 396 808 l 226 808 l 226 515 l 394 515 m 226 415 l 226 100 l 359 100 q 448 104 407 100 q 517 118 488 109 q 570 144 548 128 q 605 179 591 160 q 624 220 618 199 q 629 264 629 242 q 623 313 629 290 q 603 354 617 336 q 567 385 589 372 q 510 406 544 399 q 464 413 490 411 q 399 415 437 415 l 226 415 z "},"C":{"ha":819,"x_min":81,"x_max":751,"o":"m 556 826 q 415 802 481 826 q 302 730 350 778 q 226 611 254 682 q 198 446 198 541 q 224 284 198 353 q 297 170 250 215 q 411 103 345 125 q 560 81 478 81 q 608 84 583 81 q 658 91 633 86 q 708 101 684 95 q 751 113 732 106 l 751 16 q 658 -8 711 0 q 549 -17 605 -17 q 349 15 436 -17 q 202 105 261 46 q 112 249 142 164 q 81 442 81 334 q 114 637 81 548 q 207 789 146 726 q 354 889 267 853 q 548 924 440 924 q 604 922 576 924 q 657 915 632 920 q 705 905 683 911 q 742 892 726 899 l 742 794 q 653 817 701 808 q 556 826 605 826 z "},"D":{"ha":932,"x_min":115,"x_max":850,"o":"m 850 458 q 831 309 850 378 q 771 183 811 239 q 672 86 732 127 q 534 23 613 45 q 435 5 488 10 q 321 0 382 0 l 115 0 l 115 907 l 323 907 q 437 902 385 907 q 536 884 490 897 q 674 822 615 862 q 773 727 734 782 q 831 605 812 673 q 850 458 850 536 m 734 458 q 677 670 734 589 q 513 785 620 751 q 422 803 473 798 q 309 808 372 808 l 226 808 l 226 100 l 309 100 q 422 104 372 100 q 513 122 473 109 q 677 241 620 156 q 734 458 734 326 z "},"E":{"ha":766,"x_min":115,"x_max":691,"o":"m 226 100 l 691 100 l 691 0 l 115 0 l 115 907 l 666 907 l 666 808 l 226 808 l 226 515 l 617 515 l 617 415 l 226 415 l 226 100 z "},"F":{"ha":701,"x_min":115,"x_max":656,"o":"m 226 0 l 115 0 l 115 907 l 656 907 l 656 808 l 226 808 l 226 515 l 608 515 l 608 415 l 226 415 l 226 0 z "},"G":{"ha":928,"x_min":81,"x_max":819,"o":"m 709 367 l 502 367 l 502 467 l 819 467 l 819 28 q 778 13 805 20 q 715 -2 750 5 q 639 -13 680 -9 q 559 -17 599 -17 q 354 15 443 -17 q 204 105 264 47 q 113 247 144 163 q 81 433 81 330 q 118 635 81 544 q 220 790 154 726 q 378 889 286 854 q 581 924 470 924 q 640 922 610 924 q 697 915 670 920 q 747 905 724 911 q 786 892 770 899 l 786 794 q 692 817 745 808 q 587 826 640 826 q 439 803 509 826 q 315 732 369 779 q 230 613 262 684 q 198 445 198 541 q 224 282 198 351 q 298 169 250 214 q 414 103 346 124 q 566 81 482 81 q 642 85 604 81 q 709 97 680 90 l 709 367 z "},"H":{"ha":927,"x_min":115,"x_max":812,"o":"m 226 515 l 701 515 l 701 907 l 812 907 l 812 0 l 701 0 l 701 415 l 226 415 l 226 0 l 115 0 l 115 907 l 226 907 l 226 515 z "},"I":{"ha":341,"x_min":115,"x_max":226,"o":"m 115 0 l 115 907 l 226 907 l 226 0 l 115 0 z "},"J":{"ha":520,"x_min":41,"x_max":408,"o":"m 298 907 l 408 907 l 408 208 q 391 110 408 152 q 343 40 374 68 q 267 -3 311 12 q 168 -17 223 -17 q 89 -9 121 -16 q 41 5 57 -2 l 41 103 q 95 87 66 93 q 159 81 125 81 q 215 88 189 81 q 259 111 241 95 q 288 155 277 127 q 298 222 298 182 l 298 907 z "},"K":{"ha":840,"x_min":115,"x_max":813,"o":"m 115 0 l 115 907 l 226 907 l 226 459 l 227 459 l 644 907 l 781 907 l 357 456 l 813 0 l 669 0 l 227 444 l 226 444 l 226 0 l 115 0 z "},"L":{"ha":723,"x_min":115,"x_max":669,"o":"m 226 907 l 226 100 l 669 100 l 669 0 l 115 0 l 115 907 l 226 907 z "},"M":{"ha":1141,"x_min":115,"x_max":1026,"o":"m 596 0 l 545 0 l 317 542 q 222 785 269 654 l 216 785 q 226 439 226 596 l 226 0 l 115 0 l 115 907 l 275 907 l 488 394 q 569 182 525 306 l 572 182 q 653 394 621 319 l 867 907 l 1026 907 l 1026 0 l 916 0 l 916 439 q 925 785 916 593 l 920 785 q 825 542 869 646 l 596 0 z "},"N":{"ha":967,"x_min":115,"x_max":852,"o":"m 581 401 q 746 155 665 281 l 750 155 q 741 425 741 287 l 741 907 l 852 907 l 852 0 l 742 0 l 386 506 q 221 753 294 638 l 217 753 q 226 463 226 629 l 226 0 l 115 0 l 115 907 l 225 907 l 581 401 z "},"O":{"ha":1015,"x_min":81,"x_max":933,"o":"m 817 453 q 793 614 817 545 q 727 731 769 684 q 629 802 686 778 q 507 826 572 826 q 386 802 442 826 q 287 731 329 778 q 222 614 245 684 q 198 453 198 545 q 222 292 198 361 q 288 176 246 222 q 386 105 330 129 q 509 81 443 81 q 630 105 574 81 q 727 176 686 129 q 793 292 769 222 q 817 453 817 361 m 933 453 q 903 264 933 350 q 818 115 873 178 q 684 18 762 53 q 509 -17 606 -17 q 329 18 408 -17 q 195 115 250 53 q 111 264 140 178 q 81 453 81 350 q 112 643 81 557 q 197 792 142 730 q 331 889 252 854 q 507 924 410 924 q 686 889 607 924 q 820 792 765 854 q 904 643 875 730 q 933 453 933 557 z "},"P":{"ha":792,"x_min":115,"x_max":724,"o":"m 226 0 l 115 0 l 115 907 l 367 907 q 471 901 423 907 q 559 880 519 894 q 682 792 640 850 q 724 650 724 734 q 697 528 724 581 q 617 440 669 475 q 490 387 565 405 q 320 369 415 369 q 226 373 275 369 l 226 0 m 226 474 q 273 470 248 471 q 319 469 297 469 q 452 481 397 469 q 541 516 507 493 q 591 573 576 540 q 607 650 607 607 q 582 736 607 703 q 509 788 556 770 q 442 803 480 799 q 354 808 404 808 l 226 808 l 226 474 z "},"Q":{"ha":1027,"x_min":81,"x_max":952,"o":"m 817 453 q 793 614 817 545 q 727 731 769 684 q 629 802 686 778 q 507 826 572 826 q 386 802 442 826 q 287 731 329 778 q 222 614 245 684 q 198 453 198 545 q 222 292 198 361 q 288 176 246 222 q 386 105 330 129 q 509 81 443 81 q 630 105 574 81 q 727 176 686 129 q 793 292 769 222 q 817 453 817 361 m 933 463 q 920 339 933 397 q 881 232 906 281 q 821 144 856 182 q 744 79 786 105 l 744 76 q 850 90 800 85 q 952 93 901 94 l 952 -7 q 883 -2 920 -5 q 797 0 846 0 q 723 -2 760 0 q 649 -7 686 -4 q 577 -12 612 -9 q 510 -14 542 -14 q 329 20 409 -14 q 195 116 250 54 q 111 263 140 177 q 81 453 81 349 q 112 643 81 557 q 197 792 142 730 q 331 889 252 854 q 507 924 410 924 q 686 889 607 924 q 820 793 765 854 q 904 646 875 731 q 933 463 933 562 z "},"R":{"ha":822,"x_min":115,"x_max":778,"o":"m 226 376 l 226 0 l 115 0 l 115 907 l 351 907 q 452 903 410 907 q 528 889 494 899 q 673 801 623 863 q 724 646 724 739 q 706 548 724 591 q 656 473 688 505 q 580 420 625 441 q 481 391 536 400 l 481 388 l 778 0 l 639 0 l 359 376 l 226 376 m 226 808 l 226 475 l 335 475 q 422 479 386 475 q 486 491 458 482 q 575 547 544 509 q 606 648 606 586 q 576 742 606 707 q 496 793 547 778 q 437 804 471 801 q 351 808 404 808 l 226 808 z "},"S":{"ha":766,"x_min":87,"x_max":684,"o":"m 199 667 q 216 601 199 627 q 259 558 232 575 q 323 530 287 541 q 399 510 359 519 q 503 481 452 497 q 594 438 554 466 q 659 367 634 411 q 684 254 684 323 q 657 132 684 183 q 585 48 631 81 q 474 -1 538 15 q 333 -17 410 -17 q 261 -13 298 -17 q 190 -1 224 -8 q 130 16 157 7 q 87 35 102 26 l 87 136 q 142 114 111 124 q 205 97 172 104 q 271 85 237 90 q 333 81 304 81 q 424 90 380 81 q 499 117 467 98 q 551 169 532 136 q 570 251 570 201 q 553 318 570 292 q 509 362 536 345 q 445 390 481 379 q 368 410 408 401 q 265 438 315 422 q 175 480 214 453 q 111 550 135 507 q 87 659 87 593 q 111 778 87 728 q 178 861 136 828 q 276 909 220 893 q 396 924 332 924 q 531 910 469 924 q 646 874 594 897 l 646 772 q 530 810 590 795 q 401 826 470 825 q 312 815 350 826 q 249 783 274 804 q 212 733 224 762 q 199 667 199 703 z "},"T":{"ha":771,"x_min":27,"x_max":744,"o":"m 441 0 l 330 0 l 330 808 l 27 808 l 27 907 l 744 907 l 744 808 l 441 808 l 441 0 z "},"U":{"ha":932,"x_min":112,"x_max":820,"o":"m 466 81 q 554 93 515 81 q 621 125 592 104 q 668 176 649 146 q 697 241 687 205 q 707 291 704 264 q 709 345 709 319 l 709 907 l 820 907 l 820 347 q 817 281 820 315 q 806 216 813 246 q 767 123 793 166 q 700 50 741 81 q 601 1 659 18 q 465 -17 543 -17 q 334 -1 390 -17 q 237 44 277 16 q 171 113 197 73 q 131 199 145 153 q 116 272 121 233 q 112 347 112 311 l 112 907 l 222 907 l 222 345 q 227 282 222 314 q 241 223 231 250 q 320 119 264 157 q 466 81 375 81 z "},"V":{"ha":843,"x_min":27,"x_max":816,"o":"m 423 141 q 528 441 472 290 l 701 907 l 816 907 l 470 0 l 373 0 l 27 907 l 142 907 l 315 441 q 420 141 372 290 l 423 141 z "},"W":{"ha":1225,"x_min":27,"x_max":1198,"o":"m 611 758 q 560 539 600 695 l 419 0 l 307 0 l 27 907 l 143 907 l 296 375 q 359 144 333 247 l 361 144 q 391 267 375 208 q 419 374 407 327 l 557 907 l 667 907 l 806 374 q 863 144 857 181 l 866 144 q 928 375 889 239 l 1082 907 l 1198 907 l 918 0 l 806 0 l 665 539 q 614 758 626 690 l 611 758 z "},"X":{"ha":811,"x_min":14,"x_max":798,"o":"m 410 540 l 661 907 l 783 907 l 475 460 l 798 0 l 673 0 l 408 385 l 405 385 l 139 0 l 14 0 l 338 463 l 33 907 l 155 907 l 407 540 l 410 540 z "},"Y":{"ha":825,"x_min":27,"x_max":798,"o":"m 468 365 l 468 0 l 357 0 l 357 365 l 27 907 l 148 907 l 411 467 l 414 467 l 677 907 l 798 907 l 468 365 z "},"Z":{"ha":813,"x_min":68,"x_max":745,"o":"m 739 907 l 739 838 l 213 100 l 745 100 l 745 0 l 68 0 l 68 69 l 595 808 l 80 808 l 80 907 l 739 907 z "},"À":{"ha":882,"x_min":24,"x_max":859,"o":"m 24 0 l 393 907 l 489 907 l 859 0 l 739 0 l 630 273 l 251 273 l 142 0 l 24 0 m 440 766 q 324 458 380 597 l 290 373 l 591 373 l 557 458 q 443 766 501 600 l 440 766 m 386 1123 l 485 956 l 391 956 l 268 1123 l 386 1123 m 165 907 z "},"Á":{"ha":882,"x_min":24,"x_max":859,"o":"m 24 0 l 393 907 l 489 907 l 859 0 l 739 0 l 630 273 l 251 273 l 142 0 l 24 0 m 440 766 q 324 458 380 597 l 290 373 l 591 373 l 557 458 q 443 766 501 600 l 440 766 m 618 1123 l 495 956 l 401 956 l 500 1123 l 618 1123 m 299 907 z "},"Â":{"ha":882,"x_min":24,"x_max":859,"o":"m 24 0 l 393 907 l 489 907 l 859 0 l 739 0 l 630 273 l 251 273 l 142 0 l 24 0 m 440 766 q 324 458 380 597 l 290 373 l 591 373 l 557 458 q 443 766 501 600 l 440 766 m 496 1123 l 642 956 l 535 956 l 442 1058 l 439 1058 l 347 956 l 240 956 l 387 1123 l 496 1123 m 204 907 z "},"Ã":{"ha":882,"x_min":24,"x_max":859,"o":"m 24 0 l 393 907 l 489 907 l 859 0 l 739 0 l 630 273 l 251 273 l 142 0 l 24 0 m 440 766 q 324 458 380 597 l 290 373 l 591 373 l 557 458 q 443 766 501 600 l 440 766 m 342 1113 q 397 1103 370 1113 q 446 1081 423 1093 q 488 1060 468 1069 q 526 1050 508 1050 q 558 1065 549 1050 q 567 1107 567 1081 l 652 1107 l 652 1093 q 647 1047 652 1070 q 628 1005 642 1025 q 592 975 614 986 q 536 964 569 964 q 482 974 509 964 q 433 995 456 983 q 391 1017 411 1007 q 353 1027 371 1027 q 321 1011 330 1027 q 312 969 312 996 l 227 969 l 227 979 q 232 1027 227 1002 q 251 1072 237 1053 q 287 1102 264 1091 q 342 1113 310 1113 m 202 907 z "},"Ä":{"ha":882,"x_min":24,"x_max":859,"o":"m 24 0 l 393 907 l 489 907 l 859 0 l 739 0 l 630 273 l 251 273 l 142 0 l 24 0 m 440 766 q 324 458 380 597 l 290 373 l 591 373 l 557 458 q 443 766 501 600 l 440 766 m 257 982 l 257 1097 l 366 1097 l 366 982 l 257 982 m 517 982 l 517 1097 l 626 1097 l 626 982 l 517 982 m 204 907 z "},"Ā":{"ha":882,"x_min":24,"x_max":859,"o":"m 24 0 l 393 907 l 489 907 l 859 0 l 739 0 l 630 273 l 251 273 l 142 0 l 24 0 m 440 766 q 324 458 380 597 l 290 373 l 591 373 l 557 458 q 443 766 501 600 l 440 766 m 257 1072 l 623 1072 l 623 982 l 257 982 l 257 1072 m 203 907 z "},"Ă":{"ha":882,"x_min":24,"x_max":859,"o":"m 24 0 l 393 907 l 489 907 l 859 0 l 739 0 l 630 273 l 251 273 l 142 0 l 24 0 m 440 766 q 324 458 380 597 l 290 373 l 591 373 l 557 458 q 443 766 501 600 l 440 766 m 439 1038 q 478 1043 458 1038 q 513 1059 497 1048 q 541 1089 530 1071 q 557 1133 553 1107 l 647 1133 q 625 1056 642 1089 q 579 1001 607 1023 q 516 967 552 979 q 439 956 480 956 q 363 967 399 956 q 299 1001 327 979 q 254 1056 272 1023 q 232 1133 237 1089 l 322 1133 q 338 1089 326 1107 q 366 1059 349 1071 q 401 1043 382 1048 q 439 1038 420 1038 m 204 907 z "},"Å":{"ha":882,"x_min":24,"x_max":859,"o":"m 24 0 l 393 907 l 489 907 l 859 0 l 739 0 l 630 273 l 251 273 l 142 0 l 24 0 m 440 766 q 324 458 380 597 l 290 373 l 591 373 l 557 458 q 443 766 501 600 l 440 766 m 440 933 q 379 942 408 933 q 330 966 351 950 q 297 1006 309 983 q 285 1060 285 1030 q 297 1114 285 1090 q 330 1154 309 1137 q 379 1178 351 1170 q 440 1187 408 1187 q 501 1178 473 1187 q 550 1154 530 1170 q 583 1114 571 1137 q 595 1060 595 1090 q 583 1006 595 1030 q 550 966 571 983 q 501 942 530 950 q 440 933 473 933 m 440 1120 q 389 1105 410 1120 q 368 1060 368 1090 q 389 1015 368 1030 q 440 1000 410 1000 q 491 1015 471 1000 q 512 1060 512 1030 q 491 1105 512 1090 q 440 1120 471 1120 m 203 907 z "},"Ǻ":{"ha":882,"x_min":24,"x_max":859,"o":"m 623 1318 l 494 1183 l 408 1183 l 500 1318 l 623 1318 m 438 924 q 377 932 406 924 q 328 955 349 940 q 295 993 307 970 q 283 1044 283 1015 q 295 1096 283 1074 q 328 1134 307 1118 q 377 1157 349 1149 q 438 1164 406 1164 q 499 1157 471 1164 q 548 1134 528 1149 q 581 1096 569 1118 q 593 1044 593 1074 q 581 993 593 1015 q 548 955 569 970 q 499 932 528 940 q 438 924 471 924 m 438 1098 q 387 1085 408 1098 q 366 1044 366 1072 q 387 1004 366 1017 q 438 991 408 991 q 489 1004 468 991 q 510 1044 510 1017 q 489 1085 510 1072 q 438 1098 468 1098 m 24 0 l 393 907 l 489 907 l 859 0 l 739 0 l 630 273 l 251 273 l 142 0 l 24 0 m 440 766 q 324 458 380 597 l 290 373 l 591 373 l 557 458 q 443 766 501 600 l 440 766 z "},"Ą":{"ha":882,"x_min":24,"x_max":859,"o":"m 859 0 q 813 -32 839 -12 q 764 -75 787 -51 q 725 -125 741 -98 q 709 -182 709 -152 q 725 -223 709 -205 q 775 -241 741 -241 q 813 -237 793 -241 q 859 -225 833 -233 l 859 -312 q 811 -327 839 -321 q 756 -332 784 -332 q 693 -322 720 -332 q 648 -295 666 -312 q 621 -255 630 -278 q 612 -205 612 -233 q 646 -95 612 -148 q 739 0 681 -43 l 630 273 l 251 273 l 142 0 l 24 0 l 393 907 l 489 907 l 859 0 m 440 766 q 324 458 380 597 l 290 373 l 591 373 l 557 458 q 443 766 501 600 l 440 766 z "},"Æ":{"ha":1230,"x_min":20,"x_max":1176,"o":"m 760 100 l 1176 100 l 1176 0 l 666 0 l 631 272 l 282 272 l 139 0 l 20 0 l 500 907 l 1101 907 l 1101 808 l 669 808 l 707 515 l 1059 515 l 1059 415 l 720 415 l 760 100 m 334 373 l 618 373 l 564 808 l 561 808 l 334 373 z "},"Ǽ":{"ha":1230,"x_min":20,"x_max":1176,"o":"m 760 100 l 1176 100 l 1176 0 l 666 0 l 631 272 l 282 272 l 139 0 l 20 0 l 500 907 l 1101 907 l 1101 808 l 669 808 l 707 515 l 1059 515 l 1059 415 l 720 415 l 760 100 m 334 373 l 618 373 l 564 808 l 561 808 l 334 373 m 941 1123 l 818 956 l 724 956 l 823 1123 l 941 1123 m 622 907 z "},"Ć":{"ha":819,"x_min":81,"x_max":751,"o":"m 556 826 q 415 802 481 826 q 302 730 350 778 q 226 611 254 682 q 198 446 198 541 q 224 284 198 353 q 297 170 250 215 q 411 103 345 125 q 560 81 478 81 q 608 84 583 81 q 658 91 633 86 q 708 101 684 95 q 751 113 732 106 l 751 16 q 658 -8 711 0 q 549 -17 605 -17 q 349 15 436 -17 q 202 105 261 46 q 112 249 142 164 q 81 442 81 334 q 114 637 81 548 q 207 789 146 726 q 354 889 267 853 q 548 924 440 924 q 604 922 576 924 q 657 915 632 920 q 705 905 683 911 q 742 892 726 899 l 742 794 q 653 817 701 808 q 556 826 605 826 m 716 1123 l 593 956 l 499 956 l 598 1123 l 716 1123 m 397 907 z "},"Ĉ":{"ha":819,"x_min":81,"x_max":751,"o":"m 556 826 q 415 802 481 826 q 302 730 350 778 q 226 611 254 682 q 198 446 198 541 q 224 284 198 353 q 297 170 250 215 q 411 103 345 125 q 560 81 478 81 q 608 84 583 81 q 658 91 633 86 q 708 101 684 95 q 751 113 732 106 l 751 16 q 658 -8 711 0 q 549 -17 605 -17 q 349 15 436 -17 q 202 105 261 46 q 112 249 142 164 q 81 442 81 334 q 114 637 81 548 q 207 789 146 726 q 354 889 267 853 q 548 924 440 924 q 604 922 576 924 q 657 915 632 920 q 705 905 683 911 q 742 892 726 899 l 742 794 q 653 817 701 808 q 556 826 605 826 m 576 1123 l 722 956 l 615 956 l 522 1058 l 519 1058 l 427 956 l 320 956 l 467 1123 l 576 1123 m 284 907 z "},"Č":{"ha":819,"x_min":81,"x_max":751,"o":"m 556 826 q 415 802 481 826 q 302 730 350 778 q 226 611 254 682 q 198 446 198 541 q 224 284 198 353 q 297 170 250 215 q 411 103 345 125 q 560 81 478 81 q 608 84 583 81 q 658 91 633 86 q 708 101 684 95 q 751 113 732 106 l 751 16 q 658 -8 711 0 q 549 -17 605 -17 q 349 15 436 -17 q 202 105 261 46 q 112 249 142 164 q 81 442 81 334 q 114 637 81 548 q 207 789 146 726 q 354 889 267 853 q 548 924 440 924 q 604 922 576 924 q 657 915 632 920 q 705 905 683 911 q 742 892 726 899 l 742 794 q 653 817 701 808 q 556 826 605 826 m 473 956 l 327 1124 l 431 1124 l 525 1020 l 528 1020 l 622 1124 l 726 1124 l 580 956 l 473 956 m 290 907 z "},"Ċ":{"ha":819,"x_min":81,"x_max":751,"o":"m 556 826 q 415 802 481 826 q 302 730 350 778 q 226 611 254 682 q 198 446 198 541 q 224 284 198 353 q 297 170 250 215 q 411 103 345 125 q 560 81 478 81 q 608 84 583 81 q 658 91 633 86 q 708 101 684 95 q 751 113 732 106 l 751 16 q 658 -8 711 0 q 549 -17 605 -17 q 349 15 436 -17 q 202 105 261 46 q 112 249 142 164 q 81 442 81 334 q 114 637 81 548 q 207 789 146 726 q 354 889 267 853 q 548 924 440 924 q 604 922 576 924 q 657 915 632 920 q 705 905 683 911 q 742 892 726 899 l 742 794 q 653 817 701 808 q 556 826 605 826 m 447 982 l 447 1099 l 557 1099 l 557 982 l 447 982 m 265 907 z "},"Ç":{"ha":819,"x_min":81,"x_max":751,"o":"m 433 -7 q 281 45 347 7 q 171 139 216 82 q 104 273 127 197 q 81 442 81 349 q 114 637 81 548 q 207 789 146 726 q 354 889 267 853 q 548 924 440 924 q 604 922 576 924 q 657 915 632 920 q 705 905 683 911 q 742 892 726 899 l 742 794 q 653 817 701 808 q 556 826 605 826 q 415 802 481 826 q 302 730 350 778 q 226 611 254 682 q 198 446 198 541 q 224 284 198 353 q 297 170 250 215 q 411 103 345 125 q 560 81 478 81 q 608 84 583 81 q 658 91 633 86 q 708 101 684 95 q 751 113 732 106 l 751 16 q 658 -8 711 0 q 549 -17 605 -17 q 531 -17 540 -17 q 513 -16 522 -16 l 494 -85 q 544 -98 521 -90 q 583 -120 566 -106 q 608 -153 599 -134 q 616 -197 616 -172 q 601 -258 616 -233 q 559 -300 585 -283 q 499 -325 533 -317 q 429 -332 465 -332 q 376 -329 399 -332 q 338 -319 353 -325 l 338 -243 q 357 -248 347 -245 q 379 -251 368 -250 q 400 -254 390 -253 q 419 -254 411 -254 q 457 -252 439 -254 q 491 -243 476 -250 q 515 -226 506 -237 q 524 -199 524 -216 q 515 -175 524 -185 q 488 -159 505 -165 q 446 -150 471 -153 q 391 -146 421 -147 l 433 -7 z "},"Ď":{"ha":932,"x_min":115,"x_max":850,"o":"m 850 458 q 831 309 850 378 q 771 183 811 239 q 672 86 732 127 q 534 23 613 45 q 435 5 488 10 q 321 0 382 0 l 115 0 l 115 907 l 323 907 q 437 902 385 907 q 536 884 490 897 q 674 822 615 862 q 773 727 734 782 q 831 605 812 673 q 850 458 850 536 m 734 458 q 677 670 734 589 q 513 785 620 751 q 422 803 473 798 q 309 808 372 808 l 226 808 l 226 100 l 309 100 q 422 104 372 100 q 513 122 473 109 q 677 241 620 156 q 734 458 734 326 m 404 956 l 257 1124 l 361 1124 l 455 1020 l 458 1020 l 552 1124 l 656 1124 l 510 956 l 404 956 m 220 907 z "},"Đ":{"ha":952,"x_min":41,"x_max":871,"o":"m 41 515 l 136 515 l 136 907 l 343 907 q 458 902 405 907 q 556 884 511 897 q 695 822 635 862 q 793 727 754 782 q 851 605 832 673 q 871 458 871 536 q 851 309 871 378 q 792 183 831 239 q 693 86 752 127 q 554 23 633 45 q 456 5 509 10 q 341 0 403 0 l 136 0 l 136 415 l 41 415 l 41 515 m 754 458 q 697 670 754 589 q 534 785 640 751 q 443 803 493 798 q 330 808 393 808 l 246 808 l 246 515 l 479 515 l 479 415 l 246 415 l 246 100 l 330 100 q 443 104 393 100 q 534 122 493 109 q 697 241 640 156 q 754 458 754 326 z "},"È":{"ha":766,"x_min":115,"x_max":691,"o":"m 226 100 l 691 100 l 691 0 l 115 0 l 115 907 l 666 907 l 666 808 l 226 808 l 226 515 l 617 515 l 617 415 l 226 415 l 226 100 m 357 1123 l 456 956 l 362 956 l 239 1123 l 357 1123 m 137 907 z "},"É":{"ha":766,"x_min":115,"x_max":691,"o":"m 226 100 l 691 100 l 691 0 l 115 0 l 115 907 l 666 907 l 666 808 l 226 808 l 226 515 l 617 515 l 617 415 l 226 415 l 226 100 m 558 1123 l 435 956 l 341 956 l 440 1123 l 558 1123 m 239 907 z "},"Ê":{"ha":766,"x_min":115,"x_max":691,"o":"m 226 100 l 691 100 l 691 0 l 115 0 l 115 907 l 666 907 l 666 808 l 226 808 l 226 515 l 617 515 l 617 415 l 226 415 l 226 100 m 446 1123 l 592 956 l 485 956 l 392 1058 l 389 1058 l 297 956 l 190 956 l 336 1123 l 446 1123 m 154 907 z "},"Ě":{"ha":766,"x_min":115,"x_max":691,"o":"m 226 100 l 691 100 l 691 0 l 115 0 l 115 907 l 666 907 l 666 808 l 226 808 l 226 515 l 617 515 l 617 415 l 226 415 l 226 100 m 339 956 l 193 1124 l 297 1124 l 391 1020 l 393 1020 l 488 1124 l 592 1124 l 446 956 l 339 956 m 155 907 z "},"Ë":{"ha":766,"x_min":115,"x_max":691,"o":"m 226 100 l 691 100 l 691 0 l 115 0 l 115 907 l 666 907 l 666 808 l 226 808 l 226 515 l 617 515 l 617 415 l 226 415 l 226 100 m 205 982 l 205 1097 l 314 1097 l 314 982 l 205 982 m 465 982 l 465 1097 l 574 1097 l 574 982 l 465 982 m 152 907 z "},"Ē":{"ha":766,"x_min":115,"x_max":691,"o":"m 226 100 l 691 100 l 691 0 l 115 0 l 115 907 l 666 907 l 666 808 l 226 808 l 226 515 l 617 515 l 617 415 l 226 415 l 226 100 m 210 1072 l 576 1072 l 576 982 l 210 982 l 210 1072 m 155 907 z "},"Ĕ":{"ha":766,"x_min":115,"x_max":691,"o":"m 226 100 l 691 100 l 691 0 l 115 0 l 115 907 l 666 907 l 666 808 l 226 808 l 226 515 l 617 515 l 617 415 l 226 415 l 226 100 m 390 1038 q 428 1043 409 1038 q 464 1059 448 1048 q 492 1089 480 1071 q 507 1133 503 1107 l 597 1133 q 575 1056 593 1089 q 530 1001 557 1023 q 467 967 503 979 q 390 956 431 956 q 313 967 349 956 q 250 1001 277 979 q 205 1056 222 1023 q 182 1133 187 1089 l 273 1133 q 288 1089 277 1107 q 316 1059 300 1071 q 352 1043 332 1048 q 390 1038 371 1038 m 155 907 z "},"Ė":{"ha":766,"x_min":115,"x_max":691,"o":"m 226 100 l 691 100 l 691 0 l 115 0 l 115 907 l 666 907 l 666 808 l 226 808 l 226 515 l 617 515 l 617 415 l 226 415 l 226 100 m 339 982 l 339 1099 l 450 1099 l 450 982 l 339 982 m 157 907 z "},"Ę":{"ha":766,"x_min":115,"x_max":691,"o":"m 444 -212 q 456 -148 444 -178 q 488 -92 468 -118 q 534 -43 509 -66 q 586 -3 559 -21 l 586 0 l 115 0 l 115 907 l 666 907 l 666 808 l 226 808 l 226 515 l 617 515 l 617 415 l 226 415 l 226 100 l 691 100 l 691 0 q 640 -40 666 -18 q 591 -87 613 -62 q 555 -136 569 -111 q 541 -185 541 -161 q 602 -241 541 -241 q 644 -237 623 -241 q 691 -225 666 -233 l 691 -312 q 644 -327 671 -321 q 583 -332 616 -332 q 480 -300 516 -332 q 444 -212 444 -267 z "},"Ĝ":{"ha":928,"x_min":81,"x_max":819,"o":"m 709 367 l 502 367 l 502 467 l 819 467 l 819 28 q 778 13 805 20 q 715 -2 750 5 q 639 -13 680 -9 q 559 -17 599 -17 q 354 15 443 -17 q 204 105 264 47 q 113 247 144 163 q 81 433 81 330 q 118 635 81 544 q 220 790 154 726 q 378 889 286 854 q 581 924 470 924 q 640 922 610 924 q 697 915 670 920 q 747 905 724 911 q 786 892 770 899 l 786 794 q 692 817 745 808 q 587 826 640 826 q 439 803 509 826 q 315 732 369 779 q 230 613 262 684 q 198 445 198 541 q 224 282 198 351 q 298 169 250 214 q 414 103 346 124 q 566 81 482 81 q 642 85 604 81 q 709 97 680 90 l 709 367 m 595 1123 l 742 956 l 635 956 l 542 1058 l 539 1058 l 447 956 l 340 956 l 486 1123 l 595 1123 m 304 907 z "},"Ğ":{"ha":928,"x_min":81,"x_max":819,"o":"m 709 367 l 502 367 l 502 467 l 819 467 l 819 28 q 778 13 805 20 q 715 -2 750 5 q 639 -13 680 -9 q 559 -17 599 -17 q 354 15 443 -17 q 204 105 264 47 q 113 247 144 163 q 81 433 81 330 q 118 635 81 544 q 220 790 154 726 q 378 889 286 854 q 581 924 470 924 q 640 922 610 924 q 697 915 670 920 q 747 905 724 911 q 786 892 770 899 l 786 794 q 692 817 745 808 q 587 826 640 826 q 439 803 509 826 q 315 732 369 779 q 230 613 262 684 q 198 445 198 541 q 224 282 198 351 q 298 169 250 214 q 414 103 346 124 q 566 81 482 81 q 642 85 604 81 q 709 97 680 90 l 709 367 m 500 1038 q 539 1043 519 1038 q 574 1059 558 1048 q 602 1089 591 1071 q 618 1133 614 1107 l 708 1133 q 686 1056 703 1089 q 641 1001 668 1023 q 577 967 613 979 q 500 956 541 956 q 424 967 460 956 q 360 1001 388 979 q 315 1056 333 1023 q 293 1133 298 1089 l 383 1133 q 399 1089 387 1107 q 427 1059 410 1071 q 462 1043 443 1048 q 500 1038 481 1038 m 265 907 z "},"Ġ":{"ha":928,"x_min":81,"x_max":819,"o":"m 709 367 l 502 367 l 502 467 l 819 467 l 819 28 q 778 13 805 20 q 715 -2 750 5 q 639 -13 680 -9 q 559 -17 599 -17 q 354 15 443 -17 q 204 105 264 47 q 113 247 144 163 q 81 433 81 330 q 118 635 81 544 q 220 790 154 726 q 378 889 286 854 q 581 924 470 924 q 640 922 610 924 q 697 915 670 920 q 747 905 724 911 q 786 892 770 899 l 786 794 q 692 817 745 808 q 587 826 640 826 q 439 803 509 826 q 315 732 369 779 q 230 613 262 684 q 198 445 198 541 q 224 282 198 351 q 298 169 250 214 q 414 103 346 124 q 566 81 482 81 q 642 85 604 81 q 709 97 680 90 l 709 367 m 470 982 l 470 1099 l 581 1099 l 581 982 l 470 982 m 288 907 z "},"Ģ":{"ha":928,"x_min":81,"x_max":819,"o":"m 709 367 l 502 367 l 502 467 l 819 467 l 819 28 q 778 13 805 20 q 715 -2 750 5 q 639 -13 680 -9 q 559 -17 599 -17 q 354 15 443 -17 q 204 105 264 47 q 113 247 144 163 q 81 433 81 330 q 118 635 81 544 q 220 790 154 726 q 378 889 286 854 q 581 924 470 924 q 640 922 610 924 q 697 915 670 920 q 747 905 724 911 q 786 892 770 899 l 786 794 q 692 817 745 808 q 587 826 640 826 q 439 803 509 826 q 315 732 369 779 q 230 613 262 684 q 198 445 198 541 q 224 282 198 351 q 298 169 250 214 q 414 103 346 124 q 566 81 482 81 q 642 85 604 81 q 709 97 680 90 l 709 367 m 489 -220 q 473 -182 489 -194 q 432 -170 457 -170 l 432 -83 q 451 -82 442 -82 q 551 -111 514 -82 q 588 -195 588 -140 q 575 -262 588 -229 q 534 -332 562 -296 l 437 -332 q 475 -272 460 -300 q 489 -220 489 -243 z "},"Ĥ":{"ha":927,"x_min":115,"x_max":812,"o":"m 226 515 l 701 515 l 701 907 l 812 907 l 812 0 l 701 0 l 701 415 l 226 415 l 226 0 l 115 0 l 115 907 l 226 907 l 226 515 m 519 1123 l 666 956 l 559 956 l 466 1058 l 463 1058 l 371 956 l 264 956 l 410 1123 l 519 1123 m 228 907 z "},"Ħ":{"ha":927,"x_min":20,"x_max":907,"o":"m 907 655 l 812 655 l 812 0 l 701 0 l 701 415 l 226 415 l 226 0 l 115 0 l 115 655 l 20 655 l 20 755 l 115 755 l 115 907 l 226 907 l 226 755 l 701 755 l 701 907 l 812 907 l 812 755 l 907 755 l 907 655 m 701 515 l 701 655 l 226 655 l 226 515 l 701 515 z "},"Ì":{"ha":341,"x_min":-85,"x_max":234,"o":"m 115 0 l 115 907 l 226 907 l 226 0 l 115 0 m 135 1123 l 234 956 l 140 956 l 17 1123 l 135 1123 m -85 907 z "},"Í":{"ha":341,"x_min":14,"x_max":333,"o":"m 115 0 l 115 907 l 226 907 l 226 0 l 115 0 m 333 1123 l 210 956 l 116 956 l 215 1123 l 333 1123 m 14 907 z "},"Î":{"ha":341,"x_min":-62,"x_max":376,"o":"m 115 0 l 115 907 l 226 907 l 226 0 l 115 0 m 229 1123 l 376 956 l 269 956 l 176 1058 l 173 1058 l 81 956 l -26 956 l 120 1123 l 229 1123 m -62 907 z "},"Ĩ":{"ha":341,"x_min":-61,"x_max":389,"o":"m 115 0 l 115 907 l 226 907 l 226 0 l 115 0 m 79 1113 q 134 1103 107 1113 q 182 1081 160 1093 q 225 1060 205 1069 q 262 1050 245 1050 q 295 1065 286 1050 q 304 1107 304 1081 l 389 1107 l 389 1093 q 384 1047 389 1070 q 365 1005 379 1025 q 329 975 351 986 q 273 964 306 964 q 219 974 245 964 q 170 995 193 983 q 128 1017 148 1007 q 90 1027 108 1027 q 58 1011 67 1027 q 49 969 49 996 l -36 969 l -36 979 q -32 1027 -37 1002 q -13 1072 -26 1053 q 24 1102 1 1091 q 79 1113 47 1113 m -61 907 z "},"Ï":{"ha":341,"x_min":-63,"x_max":359,"o":"m 115 0 l 115 907 l 226 907 l 226 0 l 115 0 m -10 982 l -10 1097 l 99 1097 l 99 982 l -10 982 m 250 982 l 250 1097 l 359 1097 l 359 982 l 250 982 m -63 907 z "},"Ī":{"ha":341,"x_min":-63,"x_max":357,"o":"m 115 0 l 115 907 l 226 907 l 226 0 l 115 0 m -9 1072 l 357 1072 l 357 982 l -9 982 l -9 1072 m -63 907 z "},"Ĭ":{"ha":341,"x_min":-61,"x_max":382,"o":"m 115 0 l 115 907 l 226 907 l 226 0 l 115 0 m 174 1038 q 213 1043 193 1038 q 248 1059 232 1048 q 276 1089 264 1071 q 292 1133 288 1107 l 382 1133 q 359 1056 377 1089 q 314 1001 342 1023 q 251 967 287 979 q 174 956 215 956 q 98 967 134 956 q 34 1001 62 979 q -11 1056 7 1023 q -33 1133 -28 1089 l 57 1133 q 73 1089 61 1107 q 100 1059 84 1071 q 136 1043 117 1048 q 174 1038 155 1038 m -61 907 z "},"İ":{"ha":341,"x_min":-61,"x_max":231,"o":"m 115 0 l 115 907 l 226 907 l 226 0 l 115 0 m 121 982 l 121 1099 l 231 1099 l 231 982 l 121 982 m -61 907 z "},"Į":{"ha":341,"x_min":12,"x_max":258,"o":"m 115 907 l 226 907 l 226 0 q 184 -38 205 -18 q 147 -81 163 -58 q 119 -127 130 -103 q 109 -178 109 -152 q 124 -223 109 -205 q 175 -241 140 -240 q 213 -237 193 -241 q 258 -225 233 -233 l 258 -312 q 211 -327 239 -321 q 156 -332 184 -332 q 93 -322 120 -332 q 48 -294 66 -312 q 21 -251 30 -275 q 12 -198 12 -227 q 19 -144 12 -170 q 40 -94 26 -118 q 73 -46 54 -69 q 115 0 92 -23 l 115 907 z "},"Ĳ":{"ha":810,"x_min":115,"x_max":699,"o":"m 115 0 l 115 907 l 226 907 l 226 0 l 115 0 m 588 907 l 699 907 l 699 208 q 682 110 699 152 q 633 40 665 68 q 557 -3 602 12 q 458 -17 513 -17 q 379 -9 412 -16 q 331 5 347 -2 l 331 103 q 386 87 356 93 q 449 81 415 81 q 505 88 479 81 q 549 111 531 95 q 578 155 568 127 q 588 222 588 182 l 588 907 z "},"Ĵ":{"ha":520,"x_min":41,"x_max":551,"o":"m 298 907 l 408 907 l 408 208 q 391 110 408 152 q 343 40 374 68 q 267 -3 311 12 q 168 -17 223 -17 q 89 -9 121 -16 q 41 5 57 -2 l 41 103 q 95 87 66 93 q 159 81 125 81 q 215 88 189 81 q 259 111 241 95 q 288 155 277 127 q 298 222 298 182 l 298 907 m 404 1123 l 551 956 l 444 956 l 351 1058 l 348 1058 l 256 956 l 149 956 l 295 1123 l 404 1123 m 113 907 z "},"Ķ":{"ha":840,"x_min":115,"x_max":813,"o":"m 115 0 l 115 907 l 226 907 l 226 459 l 227 459 l 644 907 l 781 907 l 357 456 l 813 0 l 669 0 l 227 444 l 226 444 l 226 0 l 115 0 m 395 -220 q 379 -182 395 -194 q 338 -170 363 -170 l 338 -83 q 357 -82 348 -82 q 457 -111 420 -82 q 494 -195 494 -140 q 481 -262 494 -229 q 440 -332 468 -296 l 343 -332 q 380 -272 366 -300 q 395 -220 395 -243 z "},"Ĺ":{"ha":723,"x_min":18,"x_max":669,"o":"m 226 907 l 226 100 l 669 100 l 669 0 l 115 0 l 115 907 l 226 907 m 336 1123 l 214 956 l 119 956 l 218 1123 l 336 1123 m 18 907 z "},"Ľ":{"ha":723,"x_min":115,"x_max":669,"o":"m 453 775 q 437 813 453 802 q 396 825 421 825 l 396 913 q 417 913 407 913 q 515 884 478 913 q 552 801 552 855 q 539 733 552 766 q 498 663 526 700 l 401 663 q 438 722 423 694 q 453 775 453 750 m 226 907 l 226 100 l 669 100 l 669 0 l 115 0 l 115 907 l 226 907 z "},"Ļ":{"ha":723,"x_min":115,"x_max":669,"o":"m 226 907 l 226 100 l 669 100 l 669 0 l 115 0 l 115 907 l 226 907 m 370 -220 q 354 -182 370 -194 q 313 -170 338 -170 l 313 -83 q 332 -82 323 -82 q 432 -111 395 -82 q 469 -195 469 -140 q 456 -262 469 -229 q 416 -332 444 -296 l 319 -332 q 356 -272 342 -300 q 370 -220 370 -243 z "},"Ł":{"ha":723,"x_min":17,"x_max":669,"o":"m 481 514 l 226 412 l 226 100 l 669 100 l 669 0 l 115 0 l 115 368 l 17 329 l 17 431 l 115 471 l 115 907 l 226 907 l 226 514 l 481 616 l 481 514 z "},"Ŀ":{"ha":723,"x_min":115,"x_max":669,"o":"m 226 907 l 226 100 l 669 100 l 669 0 l 115 0 l 115 907 l 226 907 m 387 423 l 387 541 l 497 541 l 497 423 l 387 423 z "},"Ń":{"ha":967,"x_min":115,"x_max":852,"o":"m 581 401 q 746 155 665 281 l 750 155 q 741 425 741 287 l 741 907 l 852 907 l 852 0 l 742 0 l 386 506 q 221 753 294 638 l 217 753 q 226 463 226 629 l 226 0 l 115 0 l 115 907 l 225 907 l 581 401 m 652 1123 l 529 956 l 435 956 l 534 1123 l 652 1123 m 333 907 z "},"Ň":{"ha":967,"x_min":115,"x_max":852,"o":"m 581 401 q 746 155 665 281 l 750 155 q 741 425 741 287 l 741 907 l 852 907 l 852 0 l 742 0 l 386 506 q 221 753 294 638 l 217 753 q 226 463 226 629 l 226 0 l 115 0 l 115 907 l 225 907 l 581 401 m 433 956 l 287 1124 l 391 1124 l 485 1020 l 488 1020 l 582 1124 l 686 1124 l 540 956 l 433 956 m 250 907 z "},"Ñ":{"ha":967,"x_min":115,"x_max":852,"o":"m 581 401 q 746 155 665 281 l 750 155 q 741 425 741 287 l 741 907 l 852 907 l 852 0 l 742 0 l 386 506 q 221 753 294 638 l 217 753 q 226 463 226 629 l 226 0 l 115 0 l 115 907 l 225 907 l 581 401 m 393 1113 q 448 1103 421 1113 q 496 1081 474 1093 q 539 1060 519 1069 q 576 1050 559 1050 q 609 1065 600 1050 q 618 1107 618 1081 l 703 1107 l 703 1093 q 698 1047 703 1070 q 679 1005 693 1025 q 643 975 665 986 q 587 964 620 964 q 533 974 559 964 q 484 995 507 983 q 442 1017 462 1007 q 404 1027 422 1027 q 372 1011 381 1027 q 363 969 363 996 l 278 969 l 278 979 q 282 1027 277 1002 q 301 1072 288 1053 q 338 1102 315 1091 q 393 1113 361 1113 m 253 907 z "},"Ņ":{"ha":967,"x_min":115,"x_max":852,"o":"m 581 401 q 746 155 665 281 l 750 155 q 741 425 741 287 l 741 907 l 852 907 l 852 0 l 742 0 l 386 506 q 221 753 294 638 l 217 753 q 226 463 226 629 l 226 0 l 115 0 l 115 907 l 225 907 l 581 401 m 469 -220 q 453 -182 469 -194 q 412 -170 437 -170 l 412 -83 q 431 -82 422 -82 q 531 -111 494 -82 q 568 -195 568 -140 q 555 -262 568 -229 q 515 -332 543 -296 l 418 -332 q 455 -272 441 -300 q 469 -220 469 -243 z "},"Ò":{"ha":1015,"x_min":81,"x_max":933,"o":"m 817 453 q 793 614 817 545 q 727 731 769 684 q 629 802 686 778 q 507 826 572 826 q 386 802 442 826 q 287 731 329 778 q 222 614 245 684 q 198 453 198 545 q 222 292 198 361 q 288 176 246 222 q 386 105 330 129 q 509 81 443 81 q 630 105 574 81 q 727 176 686 129 q 793 292 769 222 q 817 453 817 361 m 933 453 q 903 264 933 350 q 818 115 873 178 q 684 18 762 53 q 509 -17 606 -17 q 329 18 408 -17 q 195 115 250 53 q 111 264 140 178 q 81 453 81 350 q 112 643 81 557 q 197 792 142 730 q 331 889 252 854 q 507 924 410 924 q 686 889 607 924 q 820 792 765 854 q 904 643 875 730 q 933 453 933 557 m 463 1123 l 562 956 l 468 956 l 345 1123 l 463 1123 m 243 907 z "},"Ó":{"ha":1015,"x_min":81,"x_max":933,"o":"m 817 453 q 793 614 817 545 q 727 731 769 684 q 629 802 686 778 q 507 826 572 826 q 386 802 442 826 q 287 731 329 778 q 222 614 245 684 q 198 453 198 545 q 222 292 198 361 q 288 176 246 222 q 386 105 330 129 q 509 81 443 81 q 630 105 574 81 q 727 176 686 129 q 793 292 769 222 q 817 453 817 361 m 933 453 q 903 264 933 350 q 818 115 873 178 q 684 18 762 53 q 509 -17 606 -17 q 329 18 408 -17 q 195 115 250 53 q 111 264 140 178 q 81 453 81 350 q 112 643 81 557 q 197 792 142 730 q 331 889 252 854 q 507 924 410 924 q 686 889 607 924 q 820 792 765 854 q 904 643 875 730 q 933 453 933 557 m 671 1123 l 549 956 l 454 956 l 553 1123 l 671 1123 m 353 907 z "},"Ô":{"ha":1015,"x_min":81,"x_max":933,"o":"m 817 453 q 793 614 817 545 q 727 731 769 684 q 629 802 686 778 q 507 826 572 826 q 386 802 442 826 q 287 731 329 778 q 222 614 245 684 q 198 453 198 545 q 222 292 198 361 q 288 176 246 222 q 386 105 330 129 q 509 81 443 81 q 630 105 574 81 q 727 176 686 129 q 793 292 769 222 q 817 453 817 361 m 933 453 q 903 264 933 350 q 818 115 873 178 q 684 18 762 53 q 509 -17 606 -17 q 329 18 408 -17 q 195 115 250 53 q 111 264 140 178 q 81 453 81 350 q 112 643 81 557 q 197 792 142 730 q 331 889 252 854 q 507 924 410 924 q 686 889 607 924 q 820 792 765 854 q 904 643 875 730 q 933 453 933 557 m 564 1123 l 710 956 l 603 956 l 510 1058 l 507 1058 l 415 956 l 308 956 l 454 1123 l 564 1123 m 272 907 z "},"Õ":{"ha":1015,"x_min":81,"x_max":933,"o":"m 817 453 q 793 614 817 545 q 727 731 769 684 q 629 802 686 778 q 507 826 572 826 q 386 802 442 826 q 287 731 329 778 q 222 614 245 684 q 198 453 198 545 q 222 292 198 361 q 288 176 246 222 q 386 105 330 129 q 509 81 443 81 q 630 105 574 81 q 727 176 686 129 q 793 292 769 222 q 817 453 817 361 m 933 453 q 903 264 933 350 q 818 115 873 178 q 684 18 762 53 q 509 -17 606 -17 q 329 18 408 -17 q 195 115 250 53 q 111 264 140 178 q 81 453 81 350 q 112 643 81 557 q 197 792 142 730 q 331 889 252 854 q 507 924 410 924 q 686 889 607 924 q 820 792 765 854 q 904 643 875 730 q 933 453 933 557 m 411 1113 q 465 1103 439 1113 q 514 1081 492 1093 q 556 1060 536 1069 q 594 1050 576 1050 q 626 1065 617 1050 q 635 1107 635 1081 l 720 1107 l 720 1093 q 715 1047 720 1070 q 697 1005 711 1025 q 660 975 683 986 q 605 964 637 964 q 551 974 577 964 q 502 995 524 983 q 459 1017 479 1007 q 422 1027 439 1027 q 390 1011 399 1027 q 380 969 380 996 l 296 969 l 296 979 q 300 1027 295 1002 q 319 1072 305 1053 q 356 1102 333 1091 q 411 1113 378 1113 m 271 907 z "},"Ö":{"ha":1015,"x_min":81,"x_max":933,"o":"m 817 453 q 793 614 817 545 q 727 731 769 684 q 629 802 686 778 q 507 826 572 826 q 386 802 442 826 q 287 731 329 778 q 222 614 245 684 q 198 453 198 545 q 222 292 198 361 q 288 176 246 222 q 386 105 330 129 q 509 81 443 81 q 630 105 574 81 q 727 176 686 129 q 793 292 769 222 q 817 453 817 361 m 933 453 q 903 264 933 350 q 818 115 873 178 q 684 18 762 53 q 509 -17 606 -17 q 329 18 408 -17 q 195 115 250 53 q 111 264 140 178 q 81 453 81 350 q 112 643 81 557 q 197 792 142 730 q 331 889 252 854 q 507 924 410 924 q 686 889 607 924 q 820 792 765 854 q 904 643 875 730 q 933 453 933 557 m 323 982 l 323 1097 l 432 1097 l 432 982 l 323 982 m 583 982 l 583 1097 l 692 1097 l 692 982 l 583 982 m 270 907 z "},"Ō":{"ha":1015,"x_min":81,"x_max":933,"o":"m 817 453 q 793 614 817 545 q 727 731 769 684 q 629 802 686 778 q 507 826 572 826 q 386 802 442 826 q 287 731 329 778 q 222 614 245 684 q 198 453 198 545 q 222 292 198 361 q 288 176 246 222 q 386 105 330 129 q 509 81 443 81 q 630 105 574 81 q 727 176 686 129 q 793 292 769 222 q 817 453 817 361 m 933 453 q 903 264 933 350 q 818 115 873 178 q 684 18 762 53 q 509 -17 606 -17 q 329 18 408 -17 q 195 115 250 53 q 111 264 140 178 q 81 453 81 350 q 112 643 81 557 q 197 792 142 730 q 331 889 252 854 q 507 924 410 924 q 686 889 607 924 q 820 792 765 854 q 904 643 875 730 q 933 453 933 557 m 324 1072 l 690 1072 l 690 982 l 324 982 l 324 1072 m 270 907 z "},"Ŏ":{"ha":1015,"x_min":81,"x_max":933,"o":"m 817 453 q 793 614 817 545 q 727 731 769 684 q 629 802 686 778 q 507 826 572 826 q 386 802 442 826 q 287 731 329 778 q 222 614 245 684 q 198 453 198 545 q 222 292 198 361 q 288 176 246 222 q 386 105 330 129 q 509 81 443 81 q 630 105 574 81 q 727 176 686 129 q 793 292 769 222 q 817 453 817 361 m 933 453 q 903 264 933 350 q 818 115 873 178 q 684 18 762 53 q 509 -17 606 -17 q 329 18 408 -17 q 195 115 250 53 q 111 264 140 178 q 81 453 81 350 q 112 643 81 557 q 197 792 142 730 q 331 889 252 854 q 507 924 410 924 q 686 889 607 924 q 820 792 765 854 q 904 643 875 730 q 933 453 933 557 m 509 1038 q 547 1043 528 1038 q 583 1059 566 1048 q 610 1089 599 1071 q 626 1133 622 1107 l 716 1133 q 694 1056 711 1089 q 649 1001 676 1023 q 585 967 621 979 q 509 956 549 956 q 432 967 468 956 q 369 1001 396 979 q 323 1056 341 1023 q 301 1133 306 1089 l 391 1133 q 407 1089 395 1107 q 435 1059 418 1071 q 470 1043 451 1048 q 509 1038 490 1038 m 273 907 z "},"Ő":{"ha":1015,"x_min":81,"x_max":933,"o":"m 817 453 q 793 614 817 545 q 727 731 769 684 q 629 802 686 778 q 507 826 572 826 q 386 802 442 826 q 287 731 329 778 q 222 614 245 684 q 198 453 198 545 q 222 292 198 361 q 288 176 246 222 q 386 105 330 129 q 509 81 443 81 q 630 105 574 81 q 727 176 686 129 q 793 292 769 222 q 817 453 817 361 m 933 453 q 903 264 933 350 q 818 115 873 178 q 684 18 762 53 q 509 -17 606 -17 q 329 18 408 -17 q 195 115 250 53 q 111 264 140 178 q 81 453 81 350 q 112 643 81 557 q 197 792 142 730 q 331 889 252 854 q 507 924 410 924 q 686 889 607 924 q 820 792 765 854 q 904 643 875 730 q 933 453 933 557 m 568 1123 l 452 956 l 358 956 l 450 1123 l 568 1123 m 777 1123 l 647 956 l 553 956 l 659 1123 l 777 1123 m 323 907 z "},"Ø":{"ha":1015,"x_min":81,"x_max":933,"o":"m 81 48 l 170 147 q 104 285 126 208 q 81 453 81 362 q 112 643 81 557 q 197 792 142 730 q 331 889 252 854 q 507 924 410 924 q 657 901 589 924 q 778 833 725 877 l 859 924 l 933 860 l 845 760 q 910 622 888 700 q 933 453 933 545 q 903 264 933 350 q 818 115 873 178 q 684 18 762 53 q 509 -17 606 -17 q 357 7 425 -17 q 236 75 289 31 l 155 -17 l 81 48 m 817 453 q 804 575 817 520 q 767 673 791 629 l 308 155 q 399 100 349 119 q 509 81 450 81 q 630 105 574 81 q 727 176 686 129 q 793 292 769 222 q 817 453 817 361 m 198 453 q 211 332 198 386 q 247 234 223 277 l 706 752 q 615 807 666 789 q 507 826 565 826 q 386 802 442 826 q 287 731 329 778 q 222 614 245 684 q 198 453 198 545 z "},"Ǿ":{"ha":1015,"x_min":81,"x_max":933,"o":"m 81 48 l 170 147 q 104 285 126 208 q 81 453 81 362 q 112 643 81 557 q 197 792 142 730 q 331 889 252 854 q 507 924 410 924 q 657 901 589 924 q 778 833 725 877 l 859 924 l 933 860 l 845 760 q 910 622 888 700 q 933 453 933 545 q 903 264 933 350 q 818 115 873 178 q 684 18 762 53 q 509 -17 606 -17 q 357 7 425 -17 q 236 75 289 31 l 155 -17 l 81 48 m 817 453 q 804 575 817 520 q 767 673 791 629 l 308 155 q 399 100 349 119 q 509 81 450 81 q 630 105 574 81 q 727 176 686 129 q 793 292 769 222 q 817 453 817 361 m 198 453 q 211 332 198 386 q 247 234 223 277 l 706 752 q 615 807 666 789 q 507 826 565 826 q 386 802 442 826 q 287 731 329 778 q 222 614 245 684 q 198 453 198 545 m 681 1123 l 558 956 l 464 956 l 563 1123 l 681 1123 m 362 907 z "},"Œ":{"ha":1467,"x_min":81,"x_max":1392,"o":"m 927 100 l 1392 100 l 1392 0 l 817 0 l 817 139 l 814 139 q 687 25 764 66 q 505 -17 610 -17 q 329 18 407 -17 q 195 115 250 53 q 111 264 140 178 q 81 453 81 350 q 112 643 81 557 q 197 792 142 730 q 330 889 252 854 q 503 924 408 924 q 686 883 607 924 q 814 771 766 842 l 817 771 l 817 907 l 1367 907 l 1367 808 l 927 808 l 927 515 l 1318 515 l 1318 415 l 927 415 l 927 100 m 817 453 q 793 614 817 545 q 727 731 769 684 q 629 802 686 778 q 507 826 572 826 q 386 802 442 826 q 287 731 329 778 q 222 614 245 684 q 198 453 198 545 q 222 292 198 361 q 288 176 246 222 q 386 105 330 129 q 509 81 443 81 q 630 105 574 81 q 727 176 686 129 q 793 292 769 222 q 817 453 817 361 z "},"Ŕ":{"ha":822,"x_min":115,"x_max":778,"o":"m 226 376 l 226 0 l 115 0 l 115 907 l 351 907 q 452 903 410 907 q 528 889 494 899 q 673 801 623 863 q 724 646 724 739 q 706 548 724 591 q 656 473 688 505 q 580 420 625 441 q 481 391 536 400 l 481 388 l 778 0 l 639 0 l 359 376 l 226 376 m 226 808 l 226 475 l 335 475 q 422 479 386 475 q 486 491 458 482 q 575 547 544 509 q 606 648 606 586 q 576 742 606 707 q 496 793 547 778 q 437 804 471 801 q 351 808 404 808 l 226 808 m 528 1123 l 405 956 l 311 956 l 410 1123 l 528 1123 m 209 907 z "},"Ř":{"ha":822,"x_min":115,"x_max":778,"o":"m 226 376 l 226 0 l 115 0 l 115 907 l 351 907 q 452 903 410 907 q 528 889 494 899 q 673 801 623 863 q 724 646 724 739 q 706 548 724 591 q 656 473 688 505 q 580 420 625 441 q 481 391 536 400 l 481 388 l 778 0 l 639 0 l 359 376 l 226 376 m 226 808 l 226 475 l 335 475 q 422 479 386 475 q 486 491 458 482 q 575 547 544 509 q 606 648 606 586 q 576 742 606 707 q 496 793 547 778 q 437 804 471 801 q 351 808 404 808 l 226 808 m 329 956 l 182 1124 l 287 1124 l 380 1020 l 383 1020 l 477 1124 l 582 1124 l 435 956 l 329 956 m 145 907 z "},"Ŗ":{"ha":822,"x_min":115,"x_max":778,"o":"m 226 376 l 226 0 l 115 0 l 115 907 l 351 907 q 452 903 410 907 q 528 889 494 899 q 673 801 623 863 q 724 646 724 739 q 706 548 724 591 q 656 473 688 505 q 580 420 625 441 q 481 391 536 400 l 481 388 l 778 0 l 639 0 l 359 376 l 226 376 m 226 808 l 226 475 l 335 475 q 422 479 386 475 q 486 491 458 482 q 575 547 544 509 q 606 648 606 586 q 576 742 606 707 q 496 793 547 778 q 437 804 471 801 q 351 808 404 808 l 226 808 m 412 -220 q 396 -182 412 -194 q 355 -170 380 -170 l 355 -83 q 374 -82 366 -82 q 474 -111 437 -82 q 511 -195 511 -140 q 498 -262 511 -229 q 458 -332 486 -296 l 361 -332 q 398 -272 384 -300 q 412 -220 412 -243 z "},"Ś":{"ha":766,"x_min":87,"x_max":684,"o":"m 199 667 q 216 601 199 627 q 259 558 232 575 q 323 530 287 541 q 399 510 359 519 q 503 481 452 497 q 594 438 554 466 q 659 367 634 411 q 684 254 684 323 q 657 132 684 183 q 585 48 631 81 q 474 -1 538 15 q 333 -17 410 -17 q 261 -13 298 -17 q 190 -1 224 -8 q 130 16 157 7 q 87 35 102 26 l 87 136 q 142 114 111 124 q 205 97 172 104 q 271 85 237 90 q 333 81 304 81 q 424 90 380 81 q 499 117 467 98 q 551 169 532 136 q 570 251 570 201 q 553 318 570 292 q 509 362 536 345 q 445 390 481 379 q 368 410 408 401 q 265 438 315 422 q 175 480 214 453 q 111 550 135 507 q 87 659 87 593 q 111 778 87 728 q 178 861 136 828 q 276 909 220 893 q 396 924 332 924 q 531 910 469 924 q 646 874 594 897 l 646 772 q 530 810 590 795 q 401 826 470 825 q 312 815 350 826 q 249 783 274 804 q 212 733 224 762 q 199 667 199 703 m 569 1123 l 446 956 l 352 956 l 451 1123 l 569 1123 m 250 907 z "},"Ŝ":{"ha":766,"x_min":87,"x_max":684,"o":"m 199 667 q 216 601 199 627 q 259 558 232 575 q 323 530 287 541 q 399 510 359 519 q 503 481 452 497 q 594 438 554 466 q 659 367 634 411 q 684 254 684 323 q 657 132 684 183 q 585 48 631 81 q 474 -1 538 15 q 333 -17 410 -17 q 261 -13 298 -17 q 190 -1 224 -8 q 130 16 157 7 q 87 35 102 26 l 87 136 q 142 114 111 124 q 205 97 172 104 q 271 85 237 90 q 333 81 304 81 q 424 90 380 81 q 499 117 467 98 q 551 169 532 136 q 570 251 570 201 q 553 318 570 292 q 509 362 536 345 q 445 390 481 379 q 368 410 408 401 q 265 438 315 422 q 175 480 214 453 q 111 550 135 507 q 87 659 87 593 q 111 778 87 728 q 178 861 136 828 q 276 909 220 893 q 396 924 332 924 q 531 910 469 924 q 646 874 594 897 l 646 772 q 530 810 590 795 q 401 826 470 825 q 312 815 350 826 q 249 783 274 804 q 212 733 224 762 q 199 667 199 703 m 443 1123 l 589 956 l 482 956 l 389 1058 l 387 1058 l 294 956 l 187 956 l 334 1123 l 443 1123 m 151 907 z "},"Š":{"ha":766,"x_min":87,"x_max":684,"o":"m 199 667 q 216 601 199 627 q 259 558 232 575 q 323 530 287 541 q 399 510 359 519 q 503 481 452 497 q 594 438 554 466 q 659 367 634 411 q 684 254 684 323 q 657 132 684 183 q 585 48 631 81 q 474 -1 538 15 q 333 -17 410 -17 q 261 -13 298 -17 q 190 -1 224 -8 q 130 16 157 7 q 87 35 102 26 l 87 136 q 142 114 111 124 q 205 97 172 104 q 271 85 237 90 q 333 81 304 81 q 424 90 380 81 q 499 117 467 98 q 551 169 532 136 q 570 251 570 201 q 553 318 570 292 q 509 362 536 345 q 445 390 481 379 q 368 410 408 401 q 265 438 315 422 q 175 480 214 453 q 111 550 135 507 q 87 659 87 593 q 111 778 87 728 q 178 861 136 828 q 276 909 220 893 q 396 924 332 924 q 531 910 469 924 q 646 874 594 897 l 646 772 q 530 810 590 795 q 401 826 470 825 q 312 815 350 826 q 249 783 274 804 q 212 733 224 762 q 199 667 199 703 m 345 956 l 199 1124 l 303 1124 l 397 1020 l 399 1020 l 494 1124 l 598 1124 l 452 956 l 345 956 m 161 907 z "},"Ş":{"ha":766,"x_min":87,"x_max":684,"o":"m 298 -16 q 235 -9 267 -14 q 174 3 203 -4 q 123 18 146 10 q 87 35 100 26 l 87 136 q 142 114 111 124 q 205 97 172 104 q 271 85 237 90 q 333 81 304 81 q 424 89 380 81 q 499 116 467 97 q 551 169 532 136 q 570 251 570 201 q 553 318 570 292 q 509 362 536 345 q 445 390 481 379 q 368 410 408 401 q 265 438 315 422 q 175 480 214 454 q 111 550 135 507 q 87 659 87 593 q 111 778 87 728 q 178 861 136 828 q 276 909 220 893 q 396 924 332 924 q 532 910 470 924 q 646 874 594 897 l 646 772 q 530 811 590 795 q 401 826 470 826 q 312 815 350 826 q 249 783 274 804 q 212 733 224 762 q 199 667 199 703 q 216 601 199 627 q 259 558 232 575 q 323 530 287 541 q 399 510 359 519 q 503 481 452 497 q 594 438 554 466 q 659 367 634 411 q 684 254 684 323 q 662 140 684 189 q 600 59 640 92 q 504 8 559 26 q 381 -15 448 -10 l 362 -85 q 412 -98 389 -90 q 451 -120 435 -106 q 476 -153 467 -134 q 485 -197 485 -172 q 469 -258 485 -233 q 428 -300 454 -283 q 368 -325 401 -317 q 297 -332 334 -332 q 244 -329 268 -332 q 207 -319 221 -325 l 207 -243 q 225 -248 215 -245 q 247 -251 236 -250 q 269 -254 258 -253 q 288 -254 279 -254 q 326 -252 307 -254 q 359 -243 345 -250 q 384 -226 374 -237 q 393 -199 393 -216 q 383 -175 393 -185 q 356 -159 374 -165 q 314 -150 339 -153 q 259 -146 290 -147 l 298 -16 z "},"Ș":{"ha":766,"x_min":87,"x_max":684,"o":"m 199 667 q 216 601 199 627 q 259 558 232 575 q 323 530 287 541 q 399 510 359 519 q 503 481 452 497 q 594 438 554 466 q 659 367 634 411 q 684 254 684 323 q 657 132 684 183 q 585 48 631 81 q 474 -1 538 15 q 333 -17 410 -17 q 261 -13 298 -17 q 190 -1 224 -8 q 130 16 157 7 q 87 35 102 26 l 87 136 q 142 114 111 124 q 205 97 172 104 q 271 85 237 90 q 333 81 304 81 q 424 90 380 81 q 499 117 467 98 q 551 169 532 136 q 570 251 570 201 q 553 318 570 292 q 509 362 536 345 q 445 390 481 379 q 368 410 408 401 q 265 438 315 422 q 175 480 214 453 q 111 550 135 507 q 87 659 87 593 q 111 778 87 728 q 178 861 136 828 q 276 909 220 893 q 396 924 332 924 q 531 910 469 924 q 646 874 594 897 l 646 772 q 530 810 590 795 q 401 826 470 825 q 312 815 350 826 q 249 783 274 804 q 212 733 224 762 q 199 667 199 703 m 342 -220 q 326 -182 342 -194 q 285 -170 310 -170 l 285 -83 q 304 -82 295 -82 q 404 -111 367 -82 q 441 -195 441 -140 q 428 -262 441 -229 q 387 -332 415 -296 l 290 -332 q 328 -272 313 -300 q 342 -220 342 -243 z "},"Ť":{"ha":771,"x_min":27,"x_max":744,"o":"m 441 0 l 330 0 l 330 808 l 27 808 l 27 907 l 744 907 l 744 808 l 441 808 l 441 0 m 329 956 l 182 1124 l 287 1124 l 380 1020 l 383 1020 l 477 1124 l 582 1124 l 435 956 l 329 956 m 145 907 z "},"Ţ":{"ha":771,"x_min":27,"x_max":744,"o":"m 441 0 l 330 0 l 330 808 l 27 808 l 27 907 l 744 907 l 744 808 l 441 808 l 441 0 m 367 -220 q 351 -182 367 -194 q 310 -170 335 -170 l 310 -83 q 329 -82 320 -82 q 429 -111 392 -82 q 466 -195 466 -140 q 453 -262 466 -229 q 412 -332 440 -296 l 315 -332 q 353 -272 338 -300 q 367 -220 367 -243 z "},"Ŧ":{"ha":771,"x_min":27,"x_max":744,"o":"m 170 515 l 330 515 l 330 808 l 27 808 l 27 907 l 744 907 l 744 808 l 441 808 l 441 515 l 605 515 l 605 415 l 441 415 l 441 0 l 330 0 l 330 415 l 170 415 l 170 515 z "},"Ù":{"ha":932,"x_min":112,"x_max":820,"o":"m 466 81 q 554 93 515 81 q 621 125 592 104 q 668 176 649 146 q 697 241 687 205 q 707 291 704 264 q 709 345 709 319 l 709 907 l 820 907 l 820 347 q 817 281 820 315 q 806 216 813 246 q 767 123 793 166 q 700 50 741 81 q 601 1 659 18 q 465 -17 543 -17 q 334 -1 390 -17 q 237 44 277 16 q 171 113 197 73 q 131 199 145 153 q 116 272 121 233 q 112 347 112 311 l 112 907 l 222 907 l 222 345 q 227 282 222 314 q 241 223 231 250 q 320 119 264 157 q 466 81 375 81 m 419 1123 l 518 956 l 424 956 l 301 1123 l 419 1123 m 199 907 z "},"Ú":{"ha":932,"x_min":112,"x_max":820,"o":"m 466 81 q 554 93 515 81 q 621 125 592 104 q 668 176 649 146 q 697 241 687 205 q 707 291 704 264 q 709 345 709 319 l 709 907 l 820 907 l 820 347 q 817 281 820 315 q 806 216 813 246 q 767 123 793 166 q 700 50 741 81 q 601 1 659 18 q 465 -17 543 -17 q 334 -1 390 -17 q 237 44 277 16 q 171 113 197 73 q 131 199 145 153 q 116 272 121 233 q 112 347 112 311 l 112 907 l 222 907 l 222 345 q 227 282 222 314 q 241 223 231 250 q 320 119 264 157 q 466 81 375 81 m 627 1123 l 505 956 l 410 956 l 509 1123 l 627 1123 m 309 907 z "},"Û":{"ha":932,"x_min":112,"x_max":820,"o":"m 466 81 q 554 93 515 81 q 621 125 592 104 q 668 176 649 146 q 697 241 687 205 q 707 291 704 264 q 709 345 709 319 l 709 907 l 820 907 l 820 347 q 817 281 820 315 q 806 216 813 246 q 767 123 793 166 q 700 50 741 81 q 601 1 659 18 q 465 -17 543 -17 q 334 -1 390 -17 q 237 44 277 16 q 171 113 197 73 q 131 199 145 153 q 116 272 121 233 q 112 347 112 311 l 112 907 l 222 907 l 222 345 q 227 282 222 314 q 241 223 231 250 q 320 119 264 157 q 466 81 375 81 m 519 1123 l 665 956 l 558 956 l 465 1058 l 463 1058 l 370 956 l 263 956 l 410 1123 l 519 1123 m 227 907 z "},"Ũ":{"ha":932,"x_min":112,"x_max":820,"o":"m 466 81 q 554 93 515 81 q 621 125 592 104 q 668 176 649 146 q 697 241 687 205 q 707 291 704 264 q 709 345 709 319 l 709 907 l 820 907 l 820 347 q 817 281 820 315 q 806 216 813 246 q 767 123 793 166 q 700 50 741 81 q 601 1 659 18 q 465 -17 543 -17 q 334 -1 390 -17 q 237 44 277 16 q 171 113 197 73 q 131 199 145 153 q 116 272 121 233 q 112 347 112 311 l 112 907 l 222 907 l 222 345 q 227 282 222 314 q 241 223 231 250 q 320 119 264 157 q 466 81 375 81 m 374 1113 q 428 1103 401 1113 q 477 1081 454 1093 q 519 1060 499 1069 q 557 1050 539 1050 q 589 1065 580 1050 q 598 1107 598 1081 l 683 1107 l 683 1093 q 678 1047 683 1070 q 660 1005 673 1025 q 623 975 646 986 q 568 964 600 964 q 513 974 540 964 q 465 995 487 983 q 422 1017 442 1007 q 385 1027 402 1027 q 352 1011 361 1027 q 343 969 343 996 l 258 969 l 258 979 q 263 1027 258 1002 q 282 1072 268 1053 q 318 1102 296 1091 q 374 1113 341 1113 m 233 907 z "},"Ü":{"ha":932,"x_min":112,"x_max":820,"o":"m 466 81 q 554 93 515 81 q 621 125 592 104 q 668 176 649 146 q 697 241 687 205 q 707 291 704 264 q 709 345 709 319 l 709 907 l 820 907 l 820 347 q 817 281 820 315 q 806 216 813 246 q 767 123 793 166 q 700 50 741 81 q 601 1 659 18 q 465 -17 543 -17 q 334 -1 390 -17 q 237 44 277 16 q 171 113 197 73 q 131 199 145 153 q 116 272 121 233 q 112 347 112 311 l 112 907 l 222 907 l 222 345 q 227 282 222 314 q 241 223 231 250 q 320 119 264 157 q 466 81 375 81 m 281 982 l 281 1097 l 391 1097 l 391 982 l 281 982 m 541 982 l 541 1097 l 650 1097 l 650 982 l 541 982 m 229 907 z "},"Ū":{"ha":932,"x_min":112,"x_max":820,"o":"m 466 81 q 554 93 515 81 q 621 125 592 104 q 668 176 649 146 q 697 241 687 205 q 707 291 704 264 q 709 345 709 319 l 709 907 l 820 907 l 820 347 q 817 281 820 315 q 806 216 813 246 q 767 123 793 166 q 700 50 741 81 q 601 1 659 18 q 465 -17 543 -17 q 334 -1 390 -17 q 237 44 277 16 q 171 113 197 73 q 131 199 145 153 q 116 272 121 233 q 112 347 112 311 l 112 907 l 222 907 l 222 345 q 227 282 222 314 q 241 223 231 250 q 320 119 264 157 q 466 81 375 81 m 283 1072 l 649 1072 l 649 982 l 283 982 l 283 1072 m 229 907 z "},"Ŭ":{"ha":932,"x_min":112,"x_max":820,"o":"m 466 81 q 554 93 515 81 q 621 125 592 104 q 668 176 649 146 q 697 241 687 205 q 707 291 704 264 q 709 345 709 319 l 709 907 l 820 907 l 820 347 q 817 281 820 315 q 806 216 813 246 q 767 123 793 166 q 700 50 741 81 q 601 1 659 18 q 465 -17 543 -17 q 334 -1 390 -17 q 237 44 277 16 q 171 113 197 73 q 131 199 145 153 q 116 272 121 233 q 112 347 112 311 l 112 907 l 222 907 l 222 345 q 227 282 222 314 q 241 223 231 250 q 320 119 264 157 q 466 81 375 81 m 464 1038 q 502 1043 483 1038 q 538 1059 522 1048 q 566 1089 554 1071 q 581 1133 577 1107 l 671 1133 q 649 1056 667 1089 q 604 1001 631 1023 q 541 967 576 979 q 464 956 505 956 q 387 967 423 956 q 324 1001 351 979 q 279 1056 296 1023 q 256 1133 261 1089 l 347 1133 q 362 1089 351 1107 q 390 1059 374 1071 q 426 1043 406 1048 q 464 1038 445 1038 m 229 907 z "},"Ů":{"ha":932,"x_min":112,"x_max":820,"o":"m 466 81 q 554 93 515 81 q 621 125 592 104 q 668 176 649 146 q 697 241 687 205 q 707 291 704 264 q 709 345 709 319 l 709 907 l 820 907 l 820 347 q 817 281 820 315 q 806 216 813 246 q 767 123 793 166 q 700 50 741 81 q 601 1 659 18 q 465 -17 543 -17 q 334 -1 390 -17 q 237 44 277 16 q 171 113 197 73 q 131 199 145 153 q 116 272 121 233 q 112 347 112 311 l 112 907 l 222 907 l 222 345 q 227 282 222 314 q 241 223 231 250 q 320 119 264 157 q 466 81 375 81 m 465 933 q 404 942 433 933 q 355 966 376 950 q 322 1006 334 983 q 310 1060 310 1030 q 322 1114 310 1090 q 355 1154 334 1137 q 404 1178 376 1170 q 465 1187 433 1187 q 526 1178 498 1187 q 575 1154 555 1170 q 608 1114 596 1137 q 621 1060 621 1090 q 608 1006 621 1030 q 575 966 596 983 q 526 942 555 950 q 465 933 498 933 m 465 1120 q 414 1105 435 1120 q 393 1060 393 1090 q 414 1015 393 1030 q 465 1000 435 1000 q 516 1015 496 1000 q 537 1060 537 1030 q 516 1105 537 1090 q 465 1120 496 1120 m 228 907 z "},"Ű":{"ha":932,"x_min":112,"x_max":820,"o":"m 466 81 q 554 93 515 81 q 621 125 592 104 q 668 176 649 146 q 697 241 687 205 q 707 291 704 264 q 709 345 709 319 l 709 907 l 820 907 l 820 347 q 817 281 820 315 q 806 216 813 246 q 767 123 793 166 q 700 50 741 81 q 601 1 659 18 q 465 -17 543 -17 q 334 -1 390 -17 q 237 44 277 16 q 171 113 197 73 q 131 199 145 153 q 116 272 121 233 q 112 347 112 311 l 112 907 l 222 907 l 222 345 q 227 282 222 314 q 241 223 231 250 q 320 119 264 157 q 466 81 375 81 m 522 1123 l 406 956 l 312 956 l 404 1123 l 522 1123 m 730 1123 l 601 956 l 507 956 l 612 1123 l 730 1123 m 277 907 z "},"Ų":{"ha":932,"x_min":112,"x_max":820,"o":"m 532 -8 q 496 -14 519 -11 q 454 -16 474 -16 q 329 0 383 -16 q 236 44 275 16 q 171 113 197 73 q 131 199 145 153 q 116 272 121 233 q 112 347 112 311 l 112 907 l 222 907 l 222 345 q 227 282 222 314 q 241 223 231 250 q 319 120 264 158 q 466 81 374 81 q 554 93 515 81 q 621 125 592 104 q 668 176 649 146 q 697 241 687 205 q 707 291 704 264 q 709 345 709 319 l 709 907 l 820 907 l 820 332 q 812 246 820 285 q 790 174 804 207 q 757 115 777 142 q 714 65 738 88 q 648 5 682 34 q 588 -52 614 -23 q 544 -112 561 -81 q 526 -178 526 -142 q 545 -226 526 -211 q 596 -241 564 -241 q 636 -237 615 -241 q 682 -225 657 -233 l 682 -312 q 636 -327 663 -321 q 576 -332 609 -332 q 516 -325 543 -332 q 470 -301 490 -317 q 440 -262 451 -286 q 429 -208 429 -239 q 437 -155 429 -182 q 459 -102 445 -127 q 492 -53 473 -77 q 534 -12 511 -30 l 532 -8 z "},"Ẁ":{"ha":1225,"x_min":27,"x_max":1198,"o":"m 611 758 q 560 539 600 695 l 419 0 l 307 0 l 27 907 l 143 907 l 296 375 q 359 144 333 247 l 361 144 q 391 267 375 208 q 419 374 407 327 l 557 907 l 667 907 l 806 374 q 863 144 857 181 l 866 144 q 928 375 889 239 l 1082 907 l 1198 907 l 918 0 l 806 0 l 665 539 q 614 758 626 690 l 611 758 m 565 1123 l 664 956 l 570 956 l 447 1123 l 565 1123 m 345 907 z "},"Ẃ":{"ha":1225,"x_min":27,"x_max":1198,"o":"m 611 758 q 560 539 600 695 l 419 0 l 307 0 l 27 907 l 143 907 l 296 375 q 359 144 333 247 l 361 144 q 391 267 375 208 q 419 374 407 327 l 557 907 l 667 907 l 806 374 q 863 144 857 181 l 866 144 q 928 375 889 239 l 1082 907 l 1198 907 l 918 0 l 806 0 l 665 539 q 614 758 626 690 l 611 758 m 780 1123 l 657 956 l 563 956 l 662 1123 l 780 1123 m 461 907 z "},"Ŵ":{"ha":1225,"x_min":27,"x_max":1198,"o":"m 611 758 q 560 539 600 695 l 419 0 l 307 0 l 27 907 l 143 907 l 296 375 q 359 144 333 247 l 361 144 q 391 267 375 208 q 419 374 407 327 l 557 907 l 667 907 l 806 374 q 863 144 857 181 l 866 144 q 928 375 889 239 l 1082 907 l 1198 907 l 918 0 l 806 0 l 665 539 q 614 758 626 690 l 611 758 m 666 1123 l 812 956 l 705 956 l 612 1058 l 610 1058 l 517 956 l 410 956 l 557 1123 l 666 1123 m 374 907 z "},"Ẅ":{"ha":1225,"x_min":27,"x_max":1198,"o":"m 611 758 q 560 539 600 695 l 419 0 l 307 0 l 27 907 l 143 907 l 296 375 q 359 144 333 247 l 361 144 q 391 267 375 208 q 419 374 407 327 l 557 907 l 667 907 l 806 374 q 863 144 857 181 l 866 144 q 928 375 889 239 l 1082 907 l 1198 907 l 918 0 l 806 0 l 665 539 q 614 758 626 690 l 611 758 m 429 982 l 429 1097 l 538 1097 l 538 982 l 429 982 m 688 982 l 688 1097 l 798 1097 l 798 982 l 688 982 m 376 907 z "},"Ỳ":{"ha":825,"x_min":27,"x_max":798,"o":"m 468 365 l 468 0 l 357 0 l 357 365 l 27 907 l 148 907 l 411 467 l 414 467 l 677 907 l 798 907 l 468 365 m 366 1123 l 465 956 l 371 956 l 248 1123 l 366 1123 m 146 907 z "},"Ý":{"ha":825,"x_min":27,"x_max":798,"o":"m 468 365 l 468 0 l 357 0 l 357 365 l 27 907 l 148 907 l 411 467 l 414 467 l 677 907 l 798 907 l 468 365 m 578 1123 l 455 956 l 361 956 l 460 1123 l 578 1123 m 259 907 z "},"Ŷ":{"ha":825,"x_min":27,"x_max":798,"o":"m 468 365 l 468 0 l 357 0 l 357 365 l 27 907 l 148 907 l 411 467 l 414 467 l 677 907 l 798 907 l 468 365 m 468 1123 l 614 956 l 507 956 l 414 1058 l 412 1058 l 319 956 l 212 956 l 359 1123 l 468 1123 m 176 907 z "},"Ÿ":{"ha":825,"x_min":27,"x_max":798,"o":"m 468 365 l 468 0 l 357 0 l 357 365 l 27 907 l 148 907 l 411 467 l 414 467 l 677 907 l 798 907 l 468 365 m 229 982 l 229 1097 l 338 1097 l 338 982 l 229 982 m 488 982 l 488 1097 l 597 1097 l 597 982 l 488 982 m 176 907 z "},"Ź":{"ha":813,"x_min":68,"x_max":745,"o":"m 739 907 l 739 838 l 213 100 l 745 100 l 745 0 l 68 0 l 68 69 l 595 808 l 80 808 l 80 907 l 739 907 m 557 1123 l 435 956 l 340 956 l 439 1123 l 557 1123 m 239 907 z "},"Ž":{"ha":813,"x_min":68,"x_max":745,"o":"m 739 907 l 739 838 l 213 100 l 745 100 l 745 0 l 68 0 l 68 69 l 595 808 l 80 808 l 80 907 l 739 907 m 345 956 l 199 1124 l 303 1124 l 397 1020 l 399 1020 l 494 1124 l 598 1124 l 452 956 l 345 956 m 161 907 z "},"Ż":{"ha":813,"x_min":68,"x_max":745,"o":"m 739 907 l 739 838 l 213 100 l 745 100 l 745 0 l 68 0 l 68 69 l 595 808 l 80 808 l 80 907 l 739 907 m 344 982 l 344 1099 l 454 1099 l 454 982 l 344 982 m 162 907 z "},"Ŋ":{"ha":967,"x_min":115,"x_max":852,"o":"m 852 -88 q 839 -169 852 -133 q 801 -229 827 -204 q 735 -267 775 -254 q 640 -280 694 -280 q 608 -279 623 -280 q 578 -275 592 -277 l 578 -181 q 602 -184 590 -183 q 627 -186 614 -186 q 719 -160 691 -186 q 747 -79 747 -135 l 747 -5 l 386 506 q 221 753 294 638 l 217 753 q 226 463 226 629 l 226 0 l 115 0 l 115 907 l 225 907 l 581 401 q 746 155 665 281 l 750 155 q 741 425 741 287 l 741 907 l 852 907 l 852 -88 z "},"Ð":{"ha":952,"x_min":41,"x_max":871,"o":"m 41 515 l 136 515 l 136 907 l 343 907 q 458 902 405 907 q 556 884 511 897 q 695 822 635 862 q 793 727 754 782 q 851 605 832 673 q 871 458 871 536 q 851 309 871 378 q 792 183 831 239 q 693 86 752 127 q 554 23 633 45 q 456 5 509 10 q 341 0 403 0 l 136 0 l 136 415 l 41 415 l 41 515 m 754 458 q 697 670 754 589 q 534 785 640 751 q 443 803 493 798 q 330 808 393 808 l 246 808 l 246 515 l 479 515 l 479 415 l 246 415 l 246 100 l 330 100 q 443 104 393 100 q 534 122 493 109 q 697 241 640 156 q 754 458 754 326 z "},"Þ":{"ha":788,"x_min":115,"x_max":720,"o":"m 226 305 q 273 301 248 302 q 319 300 297 300 q 451 310 397 300 q 539 341 505 320 q 588 393 572 361 q 603 467 603 425 q 577 553 603 520 q 505 604 552 587 q 438 620 476 615 q 350 624 400 624 l 226 624 l 226 305 m 357 724 q 466 717 418 724 q 555 696 515 710 q 678 610 636 667 q 720 467 720 553 q 693 348 720 398 q 614 264 666 297 q 489 216 563 232 q 320 200 414 200 q 226 204 275 200 l 226 0 l 115 0 l 115 907 l 226 907 l 226 724 l 357 724 z "},"a":{"ha":680,"x_min":64,"x_max":578,"o":"m 479 71 l 476 71 q 444 39 463 55 q 398 11 424 23 q 342 -9 372 -2 q 277 -17 311 -17 q 191 -3 230 -17 q 124 38 152 11 q 80 103 96 64 q 64 191 64 142 q 82 277 64 239 q 130 341 99 315 q 205 382 161 368 q 302 396 249 396 q 395 387 352 395 q 471 367 437 379 l 473 367 l 473 412 q 470 458 473 438 q 458 494 467 479 q 402 548 441 527 q 298 570 363 570 q 206 561 249 570 q 120 535 163 551 l 120 623 q 158 638 136 631 q 205 651 180 646 q 256 659 229 656 q 311 661 283 661 q 470 627 408 661 q 559 535 532 592 q 574 487 570 513 q 578 430 578 461 l 578 0 l 490 0 l 479 71 m 473 283 q 404 298 444 291 q 316 307 364 306 q 211 278 249 307 q 173 191 173 250 q 182 138 173 161 q 209 101 192 116 q 248 80 225 87 q 296 73 271 73 q 359 82 330 73 q 411 106 389 92 q 450 133 434 119 q 473 154 466 146 l 473 283 z "},"b":{"ha":744,"x_min":109,"x_max":680,"o":"m 570 325 q 552 449 570 401 q 506 524 534 497 q 446 561 477 551 q 382 571 414 571 q 290 551 333 571 q 214 498 247 530 l 214 161 q 238 133 223 148 q 275 104 254 117 q 322 82 296 91 q 379 73 348 73 q 461 91 426 73 q 521 143 497 109 q 557 223 545 176 q 570 325 570 269 m 680 333 q 655 177 680 243 q 591 68 631 111 q 499 4 551 25 q 393 -17 448 -17 q 320 -6 351 -17 q 266 19 288 4 q 231 48 244 33 q 212 72 218 63 l 210 72 l 188 0 l 109 0 l 109 982 l 214 982 l 214 584 l 216 584 q 296 641 250 621 q 401 661 342 661 q 460 655 429 661 q 523 634 492 649 q 582 595 553 619 q 632 534 610 570 q 667 448 654 498 q 680 333 680 398 z "},"c":{"ha":609,"x_min":64,"x_max":551,"o":"m 378 661 q 468 651 425 661 q 541 624 511 642 l 541 536 q 463 561 498 553 q 389 569 427 569 q 311 556 350 569 q 242 514 273 543 q 193 436 212 484 q 174 315 174 387 q 188 219 174 263 q 230 143 202 175 q 298 93 257 111 q 394 75 340 75 q 473 83 433 75 q 551 107 513 92 l 551 20 q 521 6 540 13 q 480 -6 503 -1 q 433 -14 458 -11 q 382 -17 408 -17 q 259 3 317 -17 q 158 63 201 22 q 90 166 115 104 q 64 314 64 229 q 78 429 64 378 q 114 518 91 479 q 168 584 137 557 q 234 628 199 611 q 306 653 269 646 q 378 661 343 661 z "},"d":{"ha":744,"x_min":64,"x_max":635,"o":"m 174 315 q 187 215 174 260 q 223 138 199 170 q 281 90 247 106 q 361 73 316 73 q 421 81 394 73 q 470 104 448 90 q 506 133 491 117 q 530 161 522 148 l 530 498 q 455 551 498 531 q 363 571 412 571 q 300 560 333 571 q 239 519 267 549 q 193 441 211 490 q 174 315 174 392 m 64 314 q 78 433 64 381 q 113 524 91 485 q 163 588 134 562 q 224 631 193 614 q 287 654 255 647 q 348 661 319 661 q 450 642 407 661 q 528 584 494 622 l 530 584 l 530 982 l 635 982 l 635 0 l 556 0 l 534 72 l 532 72 q 503 40 519 56 q 465 12 487 24 q 414 -9 443 -1 q 347 -17 385 -17 q 243 1 294 -17 q 153 59 193 19 q 89 161 113 98 q 64 314 64 224 z "},"e":{"ha":691,"x_min":64,"x_max":616,"o":"m 354 571 q 287 557 318 571 q 233 518 256 543 q 196 461 210 494 q 178 391 182 428 l 504 391 q 494 461 504 429 q 465 519 484 494 q 418 557 446 543 q 354 571 391 571 m 412 75 q 507 83 464 75 q 593 107 550 92 l 593 20 q 507 -7 558 3 q 398 -17 456 -17 q 268 1 329 -17 q 162 58 208 18 q 91 160 117 97 q 64 313 64 224 q 89 466 64 401 q 154 574 113 531 q 248 640 195 618 q 358 661 300 661 q 459 643 412 661 q 541 587 507 625 q 596 487 576 548 q 616 340 616 426 q 616 327 616 332 q 615 300 616 321 l 173 300 q 192 196 173 239 q 242 126 210 153 q 318 87 275 99 q 412 75 361 75 z "},"f":{"ha":441,"x_min":20,"x_max":475,"o":"m 475 899 q 431 905 455 903 q 389 907 406 907 q 325 899 353 907 q 278 870 297 890 q 249 820 259 851 q 239 743 239 788 l 239 644 l 431 644 l 431 554 l 239 554 l 239 0 l 134 0 l 134 554 l 20 554 l 20 644 l 134 644 l 134 743 q 152 860 134 812 q 203 939 171 908 q 280 984 236 970 q 375 999 324 999 q 435 996 408 999 q 475 988 463 992 l 475 899 z "},"g":{"ha":737,"x_min":64,"x_max":635,"o":"m 174 318 q 193 194 174 242 q 239 119 211 146 q 300 82 267 92 q 363 73 334 73 q 455 92 412 73 q 530 146 498 112 l 530 483 q 506 511 522 495 q 470 539 490 526 q 422 562 449 553 q 365 571 396 571 q 282 552 318 571 q 223 500 247 534 q 186 421 199 467 q 174 318 174 374 m 351 661 q 425 650 393 661 q 478 625 456 640 q 514 595 500 610 q 532 571 527 580 l 534 571 l 556 644 l 635 644 l 635 -38 q 611 -168 635 -113 q 543 -260 587 -223 q 436 -314 498 -296 q 299 -332 374 -332 q 185 -321 235 -332 q 106 -294 135 -310 l 106 -205 q 151 -221 130 -215 q 196 -232 173 -228 q 243 -239 219 -237 q 296 -241 267 -241 q 470 -188 410 -241 q 530 -26 530 -135 l 530 60 l 528 60 q 448 2 494 22 q 343 -17 402 -17 q 285 -11 316 -17 q 222 10 254 -5 q 163 48 191 24 q 113 109 134 73 q 78 195 91 145 q 64 309 64 244 q 89 466 64 399 q 153 575 113 532 q 245 640 193 618 q 351 661 296 661 z "},"h":{"ha":739,"x_min":109,"x_max":637,"o":"m 214 556 l 216 556 q 255 598 233 578 q 303 631 277 617 q 360 653 330 645 q 426 661 391 661 q 499 651 463 661 q 567 616 536 642 q 618 547 598 591 q 637 431 637 502 l 637 0 l 532 0 l 532 414 q 503 532 532 492 q 406 571 473 571 q 300 541 351 571 q 214 458 250 511 l 214 0 l 109 0 l 109 982 l 214 982 l 214 556 z "},"i":{"ha":322,"x_min":106,"x_max":216,"o":"m 109 0 l 109 644 l 214 644 l 214 0 l 109 0 m 106 794 l 106 911 l 216 911 l 216 794 l 106 794 z "},"j":{"ha":335,"x_min":-81,"x_max":229,"o":"m 227 -144 q 176 -282 227 -233 q 14 -332 125 -332 q -42 -328 -15 -332 q -81 -319 -68 -323 l -81 -229 q -41 -238 -61 -235 q 1 -241 -20 -241 q 94 -214 66 -241 q 121 -132 121 -188 l 121 644 l 227 644 l 227 -144 m 119 794 l 119 911 l 229 911 l 229 794 l 119 794 z "},"k":{"ha":676,"x_min":109,"x_max":656,"o":"m 519 644 l 656 644 l 341 348 l 655 0 l 524 0 l 215 343 l 214 343 l 214 0 l 109 0 l 109 982 l 214 982 l 214 357 l 215 357 l 519 644 z "},"l":{"ha":322,"x_min":109,"x_max":214,"o":"m 109 0 l 109 982 l 214 982 l 214 0 l 109 0 z "},"m":{"ha":1151,"x_min":102,"x_max":1049,"o":"m 628 0 l 523 0 l 523 414 q 514 486 523 456 q 487 534 505 515 q 446 562 470 553 q 392 571 422 571 q 290 541 336 571 q 207 458 243 511 l 207 0 l 102 0 l 102 644 l 183 644 l 203 555 l 205 555 q 244 596 223 577 q 290 630 264 616 q 346 653 315 645 q 412 661 376 661 q 532 627 484 661 q 605 532 579 592 l 608 532 q 705 627 650 593 q 833 661 760 661 q 905 652 867 661 q 975 617 943 642 q 1028 547 1007 591 q 1049 431 1049 502 l 1049 0 l 945 0 l 945 414 q 936 486 945 456 q 909 534 926 515 q 868 562 892 553 q 814 571 844 571 q 711 541 758 571 q 628 458 665 511 l 628 0 z "},"n":{"ha":732,"x_min":102,"x_max":631,"o":"m 203 555 l 205 555 q 244 596 223 577 q 292 630 266 616 q 350 653 319 645 q 419 661 382 661 q 502 649 463 661 q 569 610 541 637 q 614 539 597 583 q 631 431 631 495 l 631 0 l 526 0 l 526 414 q 493 534 526 498 q 399 571 461 571 q 294 541 345 571 q 207 458 243 511 l 207 0 l 102 0 l 102 644 l 183 644 l 203 555 z "},"o":{"ha":741,"x_min":64,"x_max":676,"o":"m 566 321 q 552 428 566 381 q 511 506 537 474 q 449 555 485 538 q 370 572 413 572 q 292 555 328 572 q 230 506 256 538 q 189 428 203 474 q 174 321 174 381 q 189 216 174 262 q 230 138 203 170 q 292 89 256 106 q 371 73 328 73 q 449 89 414 73 q 511 138 485 106 q 552 216 537 170 q 566 321 566 262 m 676 321 q 654 183 676 245 q 593 76 633 121 q 497 7 553 32 q 371 -17 441 -17 q 242 7 299 -17 q 146 76 186 32 q 85 183 106 121 q 64 321 64 245 q 86 460 64 398 q 148 568 108 523 q 244 637 187 612 q 370 661 300 661 q 498 637 441 661 q 595 568 555 612 q 655 460 634 523 q 676 321 676 398 z "},"p":{"ha":737,"x_min":102,"x_max":673,"o":"m 563 328 q 551 429 563 385 q 515 506 539 474 q 457 554 492 537 q 377 571 422 571 q 318 562 345 571 q 269 540 291 553 q 232 511 248 526 q 207 483 216 495 l 207 146 q 282 92 240 112 q 374 73 325 73 q 437 84 404 73 q 498 124 470 95 q 545 202 526 153 q 563 328 563 252 m 673 330 q 660 211 673 262 q 625 120 646 159 q 574 55 603 81 q 513 13 545 29 q 450 -10 482 -3 q 389 -17 418 -17 q 287 2 330 -17 q 209 60 243 22 l 207 60 l 207 -315 l 102 -315 l 102 644 l 181 644 l 203 571 l 205 571 q 228 597 214 585 q 266 625 242 610 q 322 650 289 640 q 393 661 355 661 q 498 643 448 661 q 587 585 549 625 q 649 482 626 545 q 673 330 673 419 z "},"q":{"ha":727,"x_min":61,"x_max":632,"o":"m 171 318 q 189 194 171 242 q 236 119 208 146 q 297 82 264 92 q 360 73 330 73 q 452 92 409 73 q 527 146 494 112 l 527 483 q 503 511 518 495 q 466 539 487 526 q 419 562 446 553 q 361 571 393 571 q 279 552 315 571 q 219 500 243 534 q 183 421 195 467 q 171 318 171 374 m 61 309 q 85 466 61 399 q 150 575 110 532 q 241 640 190 618 q 348 661 293 661 q 421 650 390 661 q 474 626 452 640 q 508 597 496 611 q 528 571 521 583 l 531 571 l 553 644 l 632 644 l 632 -315 l 527 -315 l 527 60 l 525 60 q 445 2 490 22 q 340 -17 399 -17 q 281 -11 313 -17 q 219 10 250 -5 q 159 48 188 24 q 109 109 131 73 q 74 195 87 145 q 61 309 61 244 z "},"r":{"ha":465,"x_min":102,"x_max":455,"o":"m 455 559 l 447 559 q 374 552 410 559 q 306 531 338 545 q 249 497 275 517 q 207 449 224 477 l 207 0 l 102 0 l 102 644 l 183 644 l 203 542 l 205 542 q 244 589 221 567 q 295 627 267 610 q 357 652 323 643 q 429 661 391 661 q 443 661 435 661 q 455 660 450 661 l 455 559 z "},"s":{"ha":562,"x_min":64,"x_max":504,"o":"m 170 473 q 181 429 170 446 q 212 402 193 412 q 257 385 231 391 q 309 372 282 378 q 380 354 347 364 q 441 325 413 345 q 487 272 469 305 q 504 184 504 238 q 485 98 504 136 q 431 35 466 60 q 349 -4 397 9 q 243 -17 300 -17 q 179 -13 208 -17 q 128 -4 150 -9 q 90 8 106 2 q 64 20 75 14 l 64 108 q 145 82 105 92 q 233 73 185 73 q 302 79 271 73 q 354 99 332 86 q 388 133 376 113 q 400 179 400 153 q 389 224 400 206 q 360 253 378 241 q 318 272 342 264 q 267 286 294 279 q 197 303 233 293 q 132 332 161 313 q 85 381 103 350 q 67 463 67 413 q 85 551 67 513 q 135 612 104 588 q 208 649 166 637 q 295 661 249 661 q 394 651 349 661 q 477 625 440 641 l 477 536 q 395 561 437 551 q 309 572 353 571 q 245 564 272 572 q 202 544 219 557 q 177 512 185 530 q 170 473 170 494 z "},"t":{"ha":482,"x_min":10,"x_max":441,"o":"m 441 -1 q 400 -12 428 -7 q 334 -17 372 -16 q 245 -4 283 -17 q 183 32 208 8 q 146 88 159 55 q 134 162 134 121 l 134 554 l 10 554 l 10 644 l 134 644 l 134 821 l 239 821 l 239 644 l 432 644 l 432 554 l 239 554 l 239 178 q 246 137 239 156 q 266 104 252 118 q 302 82 280 90 q 354 75 323 75 q 398 78 375 75 q 441 87 422 81 l 441 -1 z "},"u":{"ha":719,"x_min":95,"x_max":624,"o":"m 357 -17 q 267 -6 307 -17 q 197 24 227 5 q 146 72 167 44 q 113 132 125 99 q 99 185 103 156 q 95 249 95 214 l 95 644 l 200 644 l 200 250 q 214 160 200 196 q 267 96 231 119 q 359 73 303 73 q 455 98 419 73 q 507 168 492 124 q 519 250 519 201 l 519 644 l 624 644 l 624 248 q 620 188 624 216 q 608 136 616 159 q 575 74 596 102 q 522 26 553 46 q 450 -6 491 5 q 357 -17 409 -17 z "},"v":{"ha":642,"x_min":20,"x_max":621,"o":"m 321 106 q 384 286 345 177 l 511 644 l 621 644 l 376 0 l 266 0 l 20 644 l 129 644 l 256 286 q 319 106 294 180 l 321 106 z "},"w":{"ha":989,"x_min":27,"x_max":962,"o":"m 492 538 q 453 385 471 449 l 347 0 l 239 0 l 27 644 l 134 644 l 253 243 q 289 116 277 163 l 292 116 q 328 257 302 165 l 435 644 l 553 644 l 661 257 q 697 116 683 178 l 700 116 q 736 243 716 178 l 855 644 l 962 644 l 749 0 l 640 0 l 534 385 q 495 538 515 453 l 492 538 z "},"x":{"ha":632,"x_min":14,"x_max":618,"o":"m 319 396 l 494 644 l 610 644 l 374 326 l 618 0 l 505 0 l 316 258 l 313 258 l 127 0 l 14 0 l 258 328 l 22 644 l 138 644 l 316 396 l 319 396 z "},"y":{"ha":666,"x_min":20,"x_max":646,"o":"m 20 644 l 128 644 l 328 139 l 332 139 l 535 644 l 646 644 l 243 -315 l 139 -315 l 277 13 l 20 644 z "},"z":{"ha":617,"x_min":47,"x_max":570,"o":"m 412 551 l 412 554 l 58 554 l 58 644 l 546 644 l 546 578 l 188 93 l 188 90 l 570 90 l 570 0 l 47 0 l 47 57 l 412 551 z "},"à":{"ha":680,"x_min":47,"x_max":578,"o":"m 479 71 l 476 71 q 444 39 463 55 q 398 11 424 23 q 342 -9 372 -2 q 277 -17 311 -17 q 191 -3 230 -17 q 124 38 152 11 q 80 103 96 64 q 64 191 64 142 q 82 277 64 239 q 130 341 99 315 q 205 382 161 368 q 302 396 249 396 q 395 387 352 395 q 471 367 437 379 l 473 367 l 473 412 q 470 458 473 438 q 458 494 467 479 q 402 548 441 527 q 298 570 363 570 q 206 561 249 570 q 120 535 163 551 l 120 623 q 158 638 136 631 q 205 651 180 646 q 256 659 229 656 q 311 661 283 661 q 470 627 408 661 q 559 535 532 592 q 574 487 570 513 q 578 430 578 461 l 578 0 l 490 0 l 479 71 m 473 283 q 404 298 444 291 q 316 307 364 306 q 211 278 249 307 q 173 191 173 250 q 182 138 173 161 q 209 101 192 116 q 248 80 225 87 q 296 73 271 73 q 359 82 330 73 q 411 106 389 92 q 450 133 434 119 q 473 154 466 146 l 473 283 m 302 999 l 386 762 l 298 762 l 189 999 l 302 999 m 47 644 z "},"á":{"ha":680,"x_min":64,"x_max":578,"o":"m 479 71 l 476 71 q 444 39 463 55 q 398 11 424 23 q 342 -9 372 -2 q 277 -17 311 -17 q 191 -3 230 -17 q 124 38 152 11 q 80 103 96 64 q 64 191 64 142 q 82 277 64 239 q 130 341 99 315 q 205 382 161 368 q 302 396 249 396 q 395 387 352 395 q 471 367 437 379 l 473 367 l 473 412 q 470 458 473 438 q 458 494 467 479 q 402 548 441 527 q 298 570 363 570 q 206 561 249 570 q 120 535 163 551 l 120 623 q 158 638 136 631 q 205 651 180 646 q 256 659 229 656 q 311 661 283 661 q 470 627 408 661 q 559 535 532 592 q 574 487 570 513 q 578 430 578 461 l 578 0 l 490 0 l 479 71 m 473 283 q 404 298 444 291 q 316 307 364 306 q 211 278 249 307 q 173 191 173 250 q 182 138 173 161 q 209 101 192 116 q 248 80 225 87 q 296 73 271 73 q 359 82 330 73 q 411 106 389 92 q 450 133 434 119 q 473 154 466 146 l 473 283 m 478 999 l 369 762 l 281 762 l 364 999 l 478 999 m 135 644 z "},"â":{"ha":680,"x_min":64,"x_max":578,"o":"m 479 71 l 476 71 q 444 39 463 55 q 398 11 424 23 q 342 -9 372 -2 q 277 -17 311 -17 q 191 -3 230 -17 q 124 38 152 11 q 80 103 96 64 q 64 191 64 142 q 82 277 64 239 q 130 341 99 315 q 205 382 161 368 q 302 396 249 396 q 395 387 352 395 q 471 367 437 379 l 473 367 l 473 412 q 470 458 473 438 q 458 494 467 479 q 402 548 441 527 q 298 570 363 570 q 206 561 249 570 q 120 535 163 551 l 120 623 q 158 638 136 631 q 205 651 180 646 q 256 659 229 656 q 311 661 283 661 q 470 627 408 661 q 559 535 532 592 q 574 487 570 513 q 578 430 578 461 l 578 0 l 490 0 l 479 71 m 473 283 q 404 298 444 291 q 316 307 364 306 q 211 278 249 307 q 173 191 173 250 q 182 138 173 161 q 209 101 192 116 q 248 80 225 87 q 296 73 271 73 q 359 82 330 73 q 411 106 389 92 q 450 133 434 119 q 473 154 466 146 l 473 283 m 396 999 l 538 762 l 444 762 l 344 929 l 341 929 l 242 762 l 147 762 l 290 999 l 396 999 m 106 644 z "},"ã":{"ha":680,"x_min":64,"x_max":578,"o":"m 479 71 l 476 71 q 444 39 463 55 q 398 11 424 23 q 342 -9 372 -2 q 277 -17 311 -17 q 191 -3 230 -17 q 124 38 152 11 q 80 103 96 64 q 64 191 64 142 q 82 277 64 239 q 130 341 99 315 q 205 382 161 368 q 302 396 249 396 q 395 387 352 395 q 471 367 437 379 l 473 367 l 473 412 q 470 458 473 438 q 458 494 467 479 q 402 548 441 527 q 298 570 363 570 q 206 561 249 570 q 120 535 163 551 l 120 623 q 158 638 136 631 q 205 651 180 646 q 256 659 229 656 q 311 661 283 661 q 470 627 408 661 q 559 535 532 592 q 574 487 570 513 q 578 430 578 461 l 578 0 l 490 0 l 479 71 m 473 283 q 404 298 444 291 q 316 307 364 306 q 211 278 249 307 q 173 191 173 250 q 182 138 173 161 q 209 101 192 116 q 248 80 225 87 q 296 73 271 73 q 359 82 330 73 q 411 106 389 92 q 450 133 434 119 q 473 154 466 146 l 473 283 m 118 799 l 118 814 q 123 860 118 838 q 141 902 128 883 q 177 931 155 920 q 232 943 199 943 q 286 933 260 943 q 335 911 313 923 q 379 888 357 899 q 416 878 400 878 q 447 893 437 878 q 457 937 457 908 l 540 937 l 540 922 q 535 876 540 899 q 516 834 530 853 q 481 805 503 816 q 426 793 458 793 q 372 803 398 793 q 323 825 345 813 q 279 848 300 838 q 241 858 258 858 q 211 843 220 858 q 201 799 201 828 l 118 799 m 92 644 z "},"ä":{"ha":680,"x_min":64,"x_max":578,"o":"m 479 71 l 476 71 q 444 39 463 55 q 398 11 424 23 q 342 -9 372 -2 q 277 -17 311 -17 q 191 -3 230 -17 q 124 38 152 11 q 80 103 96 64 q 64 191 64 142 q 82 277 64 239 q 130 341 99 315 q 205 382 161 368 q 302 396 249 396 q 395 387 352 395 q 471 367 437 379 l 473 367 l 473 412 q 470 458 473 438 q 458 494 467 479 q 402 548 441 527 q 298 570 363 570 q 206 561 249 570 q 120 535 163 551 l 120 623 q 158 638 136 631 q 205 651 180 646 q 256 659 229 656 q 311 661 283 661 q 470 627 408 661 q 559 535 532 592 q 574 487 570 513 q 578 430 578 461 l 578 0 l 490 0 l 479 71 m 473 283 q 404 298 444 291 q 316 307 364 306 q 211 278 249 307 q 173 191 173 250 q 182 138 173 161 q 209 101 192 116 q 248 80 225 87 q 296 73 271 73 q 359 82 330 73 q 411 106 389 92 q 450 133 434 119 q 473 154 466 146 l 473 283 m 155 794 l 155 907 l 263 907 l 263 794 l 155 794 m 414 794 l 414 907 l 522 907 l 522 794 l 414 794 m 101 644 z "},"ā":{"ha":680,"x_min":64,"x_max":578,"o":"m 479 71 l 476 71 q 444 39 463 55 q 398 11 424 23 q 342 -9 372 -2 q 277 -17 311 -17 q 191 -3 230 -17 q 124 38 152 11 q 80 103 96 64 q 64 191 64 142 q 82 277 64 239 q 130 341 99 315 q 205 382 161 368 q 302 396 249 396 q 395 387 352 395 q 471 367 437 379 l 473 367 l 473 412 q 470 458 473 438 q 458 494 467 479 q 402 548 441 527 q 298 570 363 570 q 206 561 249 570 q 120 535 163 551 l 120 623 q 158 638 136 631 q 205 651 180 646 q 256 659 229 656 q 311 661 283 661 q 470 627 408 661 q 559 535 532 592 q 574 487 570 513 q 578 430 578 461 l 578 0 l 490 0 l 479 71 m 473 283 q 404 298 444 291 q 316 307 364 306 q 211 278 249 307 q 173 191 173 250 q 182 138 173 161 q 209 101 192 116 q 248 80 225 87 q 296 73 271 73 q 359 82 330 73 q 411 106 389 92 q 450 133 434 119 q 473 154 466 146 l 473 283 m 160 882 l 526 882 l 526 794 l 160 794 l 160 882 m 106 644 z "},"ă":{"ha":680,"x_min":64,"x_max":578,"o":"m 479 71 l 476 71 q 444 39 463 55 q 398 11 424 23 q 342 -9 372 -2 q 277 -17 311 -17 q 191 -3 230 -17 q 124 38 152 11 q 80 103 96 64 q 64 191 64 142 q 82 277 64 239 q 130 341 99 315 q 205 382 161 368 q 302 396 249 396 q 395 387 352 395 q 471 367 437 379 l 473 367 l 473 412 q 470 458 473 438 q 458 494 467 479 q 402 548 441 527 q 298 570 363 570 q 206 561 249 570 q 120 535 163 551 l 120 623 q 158 638 136 631 q 205 651 180 646 q 256 659 229 656 q 311 661 283 661 q 470 627 408 661 q 559 535 532 592 q 574 487 570 513 q 578 430 578 461 l 578 0 l 490 0 l 479 71 m 473 283 q 404 298 444 291 q 316 307 364 306 q 211 278 249 307 q 173 191 173 250 q 182 138 173 161 q 209 101 192 116 q 248 80 225 87 q 296 73 271 73 q 359 82 330 73 q 411 106 389 92 q 450 133 434 119 q 473 154 466 146 l 473 283 m 336 852 q 416 881 387 852 q 455 971 446 909 l 544 971 q 527 891 541 928 q 486 828 512 854 q 422 786 460 801 q 336 770 385 770 q 251 786 288 770 q 187 828 213 801 q 146 891 161 854 q 129 971 132 928 l 218 971 q 257 881 227 909 q 336 852 286 852 m 99 644 z "},"å":{"ha":680,"x_min":64,"x_max":578,"o":"m 479 71 l 476 71 q 444 39 463 55 q 398 11 424 23 q 342 -9 372 -2 q 277 -17 311 -17 q 191 -3 230 -17 q 124 38 152 11 q 80 103 96 64 q 64 191 64 142 q 82 277 64 239 q 130 341 99 315 q 205 382 161 368 q 302 396 249 396 q 395 387 352 395 q 471 367 437 379 l 473 367 l 473 412 q 470 458 473 438 q 458 494 467 479 q 402 548 441 527 q 298 570 363 570 q 206 561 249 570 q 120 535 163 551 l 120 623 q 158 638 136 631 q 205 651 180 646 q 256 659 229 656 q 311 661 283 661 q 470 627 408 661 q 559 535 532 592 q 574 487 570 513 q 578 430 578 461 l 578 0 l 490 0 l 479 71 m 473 283 q 404 298 444 291 q 316 307 364 306 q 211 278 249 307 q 173 191 173 250 q 182 138 173 161 q 209 101 192 116 q 248 80 225 87 q 296 73 271 73 q 359 82 330 73 q 411 106 389 92 q 450 133 434 119 q 473 154 466 146 l 473 283 m 325 746 q 264 755 292 746 q 215 781 235 764 q 182 823 194 798 q 170 878 170 847 q 182 934 170 909 q 215 975 194 958 q 264 1001 235 992 q 325 1010 292 1010 q 386 1001 357 1010 q 435 975 414 992 q 468 934 456 958 q 480 878 480 909 q 468 823 480 847 q 435 781 456 798 q 386 755 414 764 q 325 746 357 746 m 325 944 q 274 927 294 944 q 253 878 253 910 q 274 829 253 846 q 325 812 294 812 q 376 829 355 812 q 397 878 397 846 q 376 927 397 910 q 325 944 355 944 m 87 644 z "},"ǻ":{"ha":680,"x_min":64,"x_max":578,"o":"m 512 1203 l 376 1029 l 290 1029 l 390 1203 l 512 1203 m 330 736 q 269 745 298 736 q 220 770 241 753 q 187 810 199 786 q 175 863 175 833 q 187 917 175 893 q 220 957 199 941 q 269 982 241 973 q 330 990 298 990 q 391 982 363 990 q 440 957 420 973 q 473 917 461 941 q 486 863 486 893 q 473 810 486 833 q 440 770 461 786 q 391 745 420 753 q 330 736 363 736 m 330 924 q 279 909 300 924 q 258 863 258 894 q 279 818 258 833 q 330 803 300 803 q 381 818 361 803 q 402 863 402 833 q 381 909 402 894 q 330 924 361 924 m 479 71 l 476 71 q 444 39 463 55 q 398 11 424 23 q 342 -9 372 -2 q 277 -17 311 -17 q 191 -3 230 -17 q 124 38 152 11 q 80 103 96 64 q 64 191 64 142 q 82 277 64 239 q 130 341 99 315 q 205 382 161 368 q 302 396 249 396 q 395 387 352 395 q 471 367 437 379 l 473 367 l 473 412 q 470 458 473 438 q 458 494 467 479 q 402 548 441 527 q 298 570 363 570 q 206 561 249 570 q 120 535 163 551 l 120 623 q 158 638 136 631 q 205 651 180 646 q 256 659 229 656 q 311 661 283 661 q 470 627 408 661 q 559 535 532 592 q 574 487 570 513 q 578 430 578 461 l 578 0 l 490 0 l 479 71 m 473 283 q 404 298 444 291 q 316 307 364 306 q 211 278 249 307 q 173 191 173 250 q 182 138 173 161 q 209 101 192 116 q 248 80 225 87 q 296 73 271 73 q 359 82 330 73 q 411 106 389 92 q 450 133 434 119 q 473 154 466 146 l 473 283 z "},"ą":{"ha":680,"x_min":64,"x_max":578,"o":"m 473 283 q 405 298 444 291 q 316 307 366 306 q 211 278 249 307 q 173 191 173 250 q 182 138 173 161 q 209 101 192 116 q 248 80 225 87 q 296 73 271 73 q 359 82 330 73 q 411 106 389 92 q 450 133 434 119 q 473 154 466 146 l 473 283 m 479 71 l 476 71 q 444 39 463 55 q 398 11 424 23 q 342 -9 372 -2 q 277 -17 311 -17 q 191 -3 230 -17 q 124 38 152 11 q 80 103 96 64 q 64 191 64 142 q 82 277 64 239 q 130 341 99 315 q 205 382 161 368 q 302 396 249 396 q 397 387 355 395 q 471 367 440 378 l 473 367 l 473 412 q 470 458 473 438 q 458 494 467 479 q 402 548 441 528 q 298 570 363 569 q 206 561 249 570 q 120 535 163 551 l 120 623 q 158 638 136 631 q 205 650 180 645 q 257 659 231 656 q 311 661 283 661 q 471 626 408 661 q 559 535 533 592 q 574 487 570 513 q 578 430 578 461 l 578 0 q 530 -35 557 -14 q 479 -82 503 -57 q 438 -135 455 -108 q 422 -189 422 -163 q 437 -227 422 -214 q 486 -241 453 -241 q 526 -237 505 -241 q 572 -225 547 -233 l 572 -312 q 524 -327 552 -321 q 465 -332 495 -332 q 362 -302 399 -332 q 325 -214 325 -272 q 339 -146 325 -177 q 376 -89 353 -115 q 429 -39 399 -62 q 490 6 458 -16 l 479 71 z "},"æ":{"ha":1080,"x_min":64,"x_max":1006,"o":"m 311 661 q 394 653 359 661 q 456 629 430 644 q 502 592 483 613 q 535 545 521 571 l 538 545 q 628 632 575 602 q 749 661 682 661 q 854 641 806 661 q 938 577 903 621 q 989 472 972 534 q 1004 336 1006 410 q 1004 300 1004 320 l 575 300 q 592 196 575 239 q 638 126 608 153 q 709 87 667 99 q 800 75 750 75 q 895 83 851 75 q 981 107 939 91 l 981 20 q 896 -8 947 3 q 787 -17 845 -18 q 646 8 709 -15 q 541 81 583 31 l 538 81 q 496 46 519 64 q 442 15 472 28 q 376 -8 412 1 q 295 -17 339 -17 q 199 -3 241 -17 q 126 38 156 11 q 80 103 96 64 q 64 191 64 142 q 82 277 64 239 q 130 341 99 315 q 205 382 161 368 q 302 396 249 396 q 396 388 353 396 q 471 367 438 379 l 474 367 l 474 406 q 433 527 474 485 q 298 570 392 570 q 206 561 249 570 q 120 535 163 551 l 120 623 q 158 638 137 631 q 203 650 178 645 q 256 658 229 655 q 311 661 283 661 m 305 73 q 370 80 340 73 q 424 99 399 87 q 467 126 448 111 q 498 155 486 140 q 473 282 477 208 q 402 298 446 290 q 316 307 359 307 q 211 278 249 307 q 173 191 173 250 q 183 138 173 161 q 210 101 193 116 q 252 80 227 87 q 305 73 276 73 m 743 571 q 678 557 707 571 q 628 518 649 543 q 594 461 607 494 q 578 391 582 428 l 892 391 q 883 461 892 429 q 854 519 873 494 q 807 557 835 543 q 743 571 779 571 z "},"ǽ":{"ha":1080,"x_min":64,"x_max":1006,"o":"m 311 661 q 394 653 359 661 q 456 629 430 644 q 502 592 483 613 q 535 545 521 571 l 538 545 q 628 632 575 602 q 749 661 682 661 q 854 641 806 661 q 938 577 903 621 q 989 472 972 534 q 1004 336 1006 410 q 1004 300 1004 320 l 575 300 q 592 196 575 239 q 638 126 608 153 q 709 87 667 99 q 800 75 750 75 q 895 83 851 75 q 981 107 939 91 l 981 20 q 896 -8 947 3 q 787 -17 845 -18 q 646 8 709 -15 q 541 81 583 31 l 538 81 q 496 46 519 64 q 442 15 472 28 q 376 -8 412 1 q 295 -17 339 -17 q 199 -3 241 -17 q 126 38 156 11 q 80 103 96 64 q 64 191 64 142 q 82 277 64 239 q 130 341 99 315 q 205 382 161 368 q 302 396 249 396 q 396 388 353 396 q 471 367 438 379 l 474 367 l 474 406 q 433 527 474 485 q 298 570 392 570 q 206 561 249 570 q 120 535 163 551 l 120 623 q 158 638 137 631 q 203 650 178 645 q 256 658 229 655 q 311 661 283 661 m 305 73 q 370 80 340 73 q 424 99 399 87 q 467 126 448 111 q 498 155 486 140 q 473 282 477 208 q 402 298 446 290 q 316 307 359 307 q 211 278 249 307 q 173 191 173 250 q 183 138 173 161 q 210 101 193 116 q 252 80 227 87 q 305 73 276 73 m 743 571 q 678 557 707 571 q 628 518 649 543 q 594 461 607 494 q 578 391 582 428 l 892 391 q 883 461 892 429 q 854 519 873 494 q 807 557 835 543 q 743 571 779 571 m 696 999 l 587 762 l 499 762 l 583 999 l 696 999 m 353 644 z "},"ć":{"ha":609,"x_min":64,"x_max":551,"o":"m 378 661 q 468 651 425 661 q 541 624 511 642 l 541 536 q 463 561 498 553 q 389 569 427 569 q 311 556 350 569 q 242 514 273 543 q 193 436 212 484 q 174 315 174 387 q 188 219 174 263 q 230 143 202 175 q 298 93 257 111 q 394 75 340 75 q 473 83 433 75 q 551 107 513 92 l 551 20 q 521 6 540 13 q 480 -6 503 -1 q 433 -14 458 -11 q 382 -17 408 -17 q 259 3 317 -17 q 158 63 201 22 q 90 166 115 104 q 64 314 64 229 q 78 429 64 378 q 114 518 91 479 q 168 584 137 557 q 234 628 199 611 q 306 653 269 646 q 378 661 343 661 m 500 999 l 391 762 l 302 762 l 386 999 l 500 999 m 157 644 z "},"ĉ":{"ha":609,"x_min":64,"x_max":558,"o":"m 378 661 q 468 651 425 661 q 541 624 511 642 l 541 536 q 463 561 498 553 q 389 569 427 569 q 311 556 350 569 q 242 514 273 543 q 193 436 212 484 q 174 315 174 387 q 188 219 174 263 q 230 143 202 175 q 298 93 257 111 q 394 75 340 75 q 473 83 433 75 q 551 107 513 92 l 551 20 q 521 6 540 13 q 480 -6 503 -1 q 433 -14 458 -11 q 382 -17 408 -17 q 259 3 317 -17 q 158 63 201 22 q 90 166 115 104 q 64 314 64 229 q 78 429 64 378 q 114 518 91 479 q 168 584 137 557 q 234 628 199 611 q 306 653 269 646 q 378 661 343 661 m 416 999 l 558 762 l 463 762 l 363 929 l 361 929 l 262 762 l 167 762 l 309 999 l 416 999 m 125 644 z "},"č":{"ha":609,"x_min":64,"x_max":565,"o":"m 378 661 q 468 651 425 661 q 541 624 511 642 l 541 536 q 463 561 498 553 q 389 569 427 569 q 311 556 350 569 q 242 514 273 543 q 193 436 212 484 q 174 315 174 387 q 188 219 174 263 q 230 143 202 175 q 298 93 257 111 q 394 75 340 75 q 473 83 433 75 q 551 107 513 92 l 551 20 q 521 6 540 13 q 480 -6 503 -1 q 433 -14 458 -11 q 382 -17 408 -17 q 259 3 317 -17 q 158 63 201 22 q 90 166 115 104 q 64 314 64 229 q 78 429 64 378 q 114 518 91 479 q 168 584 137 557 q 234 628 199 611 q 306 653 269 646 q 378 661 343 661 m 316 762 l 174 999 l 269 999 l 368 832 l 371 832 l 470 999 l 565 999 l 422 762 l 316 762 m 132 644 z "},"ċ":{"ha":609,"x_min":64,"x_max":551,"o":"m 378 661 q 468 651 425 661 q 541 624 511 642 l 541 536 q 463 561 498 553 q 389 569 427 569 q 311 556 350 569 q 242 514 273 543 q 193 436 212 484 q 174 315 174 387 q 188 219 174 263 q 230 143 202 175 q 298 93 257 111 q 394 75 340 75 q 473 83 433 75 q 551 107 513 92 l 551 20 q 521 6 540 13 q 480 -6 503 -1 q 433 -14 458 -11 q 382 -17 408 -17 q 259 3 317 -17 q 158 63 201 22 q 90 166 115 104 q 64 314 64 229 q 78 429 64 378 q 114 518 91 479 q 168 584 137 557 q 234 628 199 611 q 306 653 269 646 q 378 661 343 661 m 309 794 l 309 911 l 419 911 l 419 794 l 309 794 m 127 644 z "},"ç":{"ha":609,"x_min":64,"x_max":551,"o":"m 313 -11 q 215 22 260 -2 q 136 87 169 47 q 83 184 102 127 q 64 314 64 240 q 78 429 64 378 q 114 518 91 479 q 168 584 137 557 q 234 628 199 611 q 306 653 269 646 q 378 661 343 661 q 468 651 425 661 q 541 624 510 642 l 541 536 q 462 561 498 553 q 389 569 426 569 q 311 556 349 569 q 242 514 273 543 q 193 435 212 484 q 174 315 174 386 q 188 219 174 263 q 230 143 202 175 q 298 93 257 111 q 394 75 340 75 q 473 83 433 75 q 551 107 513 92 l 551 20 q 524 6 541 13 q 486 -5 507 0 q 442 -13 465 -9 q 395 -17 418 -16 l 376 -85 q 426 -98 403 -90 q 465 -120 448 -106 q 490 -153 481 -134 q 498 -197 498 -172 q 483 -258 498 -233 q 441 -300 467 -283 q 381 -325 415 -317 q 311 -332 347 -332 q 258 -329 281 -332 q 220 -319 235 -325 l 220 -243 q 239 -248 229 -245 q 261 -251 250 -250 q 282 -254 272 -253 q 301 -254 293 -254 q 339 -252 321 -254 q 373 -243 358 -250 q 397 -226 388 -237 q 406 -199 406 -216 q 397 -175 406 -185 q 370 -159 387 -165 q 328 -150 353 -153 q 273 -146 303 -147 l 313 -11 z "},"ď":{"ha":744,"x_min":64,"x_max":856,"o":"m 174 315 q 187 215 174 260 q 223 138 199 170 q 281 90 247 106 q 361 73 316 73 q 421 81 394 73 q 470 104 448 90 q 506 133 491 117 q 530 161 522 148 l 530 498 q 455 551 498 531 q 363 571 412 571 q 300 560 333 571 q 239 519 267 549 q 193 441 211 490 q 174 315 174 392 m 64 314 q 78 433 64 381 q 113 524 91 485 q 163 588 134 562 q 224 631 193 614 q 287 654 255 647 q 348 661 319 661 q 450 642 407 661 q 528 584 494 622 l 530 584 l 530 982 l 635 982 l 635 0 l 556 0 l 534 72 l 532 72 q 503 40 519 56 q 465 12 487 24 q 414 -9 443 -1 q 347 -17 385 -17 q 243 1 294 -17 q 153 59 193 19 q 89 161 113 98 q 64 314 64 224 m 757 844 q 741 883 757 871 q 700 895 725 895 l 700 982 q 721 983 711 983 q 819 954 782 983 q 856 870 856 924 q 843 802 856 836 q 802 732 830 769 l 705 732 q 742 791 727 764 q 757 844 757 819 z "},"đ":{"ha":744,"x_min":64,"x_max":744,"o":"m 64 314 q 78 433 64 381 q 113 524 91 485 q 163 588 135 562 q 223 631 192 614 q 287 654 255 647 q 348 661 319 661 q 450 642 407 661 q 528 584 494 622 l 530 584 l 530 781 l 334 781 l 334 871 l 530 871 l 530 982 l 635 982 l 635 871 l 744 871 l 744 781 l 635 781 l 635 0 l 556 0 l 534 72 l 532 72 q 503 40 519 56 q 465 12 487 24 q 414 -9 443 -1 q 347 -17 385 -17 q 243 1 294 -17 q 153 59 193 19 q 89 161 113 98 q 64 314 64 224 m 174 315 q 187 215 174 260 q 223 138 199 170 q 281 90 247 106 q 361 73 316 73 q 420 81 393 73 q 470 104 448 90 q 506 133 491 118 q 530 161 521 148 l 530 498 q 455 551 498 531 q 363 571 412 571 q 300 559 334 571 q 239 519 267 548 q 193 441 211 490 q 174 315 174 392 z "},"è":{"ha":691,"x_min":64,"x_max":616,"o":"m 323 999 l 407 762 l 319 762 l 210 999 l 323 999 m 68 644 m 354 571 q 287 557 318 571 q 233 518 256 543 q 196 461 210 494 q 178 391 182 428 l 504 391 q 494 461 504 429 q 465 519 484 494 q 418 557 446 543 q 354 571 391 571 m 412 75 q 507 83 464 75 q 593 107 550 92 l 593 20 q 507 -7 558 3 q 398 -17 456 -17 q 268 1 329 -17 q 162 58 208 18 q 91 160 117 97 q 64 313 64 224 q 89 466 64 401 q 154 574 113 531 q 248 640 195 618 q 358 661 300 661 q 459 643 412 661 q 541 587 507 625 q 596 487 576 548 q 616 340 616 426 q 616 327 616 332 q 615 300 616 321 l 173 300 q 192 196 173 239 q 242 126 210 153 q 318 87 275 99 q 412 75 361 75 z "},"é":{"ha":691,"x_min":64,"x_max":616,"o":"m 504 999 l 395 762 l 307 762 l 390 999 l 504 999 m 161 644 m 354 571 q 287 557 318 571 q 233 518 256 543 q 196 461 210 494 q 178 391 182 428 l 504 391 q 494 461 504 429 q 465 519 484 494 q 418 557 446 543 q 354 571 391 571 m 412 75 q 507 83 464 75 q 593 107 550 92 l 593 20 q 507 -7 558 3 q 398 -17 456 -17 q 268 1 329 -17 q 162 58 208 18 q 91 160 117 97 q 64 313 64 224 q 89 466 64 401 q 154 574 113 531 q 248 640 195 618 q 358 661 300 661 q 459 643 412 661 q 541 587 507 625 q 596 487 576 548 q 616 340 616 426 q 616 327 616 332 q 615 300 616 321 l 173 300 q 192 196 173 239 q 242 126 210 153 q 318 87 275 99 q 412 75 361 75 z "},"ê":{"ha":691,"x_min":64,"x_max":616,"o":"m 406 999 l 548 762 l 453 762 l 353 929 l 351 929 l 252 762 l 157 762 l 299 999 l 406 999 m 115 644 m 354 571 q 287 557 318 571 q 233 518 256 543 q 196 461 210 494 q 178 391 182 428 l 504 391 q 494 461 504 429 q 465 519 484 494 q 418 557 446 543 q 354 571 391 571 m 412 75 q 507 83 464 75 q 593 107 550 92 l 593 20 q 507 -7 558 3 q 398 -17 456 -17 q 268 1 329 -17 q 162 58 208 18 q 91 160 117 97 q 64 313 64 224 q 89 466 64 401 q 154 574 113 531 q 248 640 195 618 q 358 661 300 661 q 459 643 412 661 q 541 587 507 625 q 596 487 576 548 q 616 340 616 426 q 616 327 616 332 q 615 300 616 321 l 173 300 q 192 196 173 239 q 242 126 210 153 q 318 87 275 99 q 412 75 361 75 z "},"ě":{"ha":691,"x_min":64,"x_max":616,"o":"m 304 762 l 161 999 l 256 999 l 356 832 l 359 832 l 458 999 l 553 999 l 410 762 l 304 762 m 119 644 m 354 571 q 287 557 318 571 q 233 518 256 543 q 196 461 210 494 q 178 391 182 428 l 504 391 q 494 461 504 429 q 465 519 484 494 q 418 557 446 543 q 354 571 391 571 m 412 75 q 507 83 464 75 q 593 107 550 92 l 593 20 q 507 -7 558 3 q 398 -17 456 -17 q 268 1 329 -17 q 162 58 208 18 q 91 160 117 97 q 64 313 64 224 q 89 466 64 401 q 154 574 113 531 q 248 640 195 618 q 358 661 300 661 q 459 643 412 661 q 541 587 507 625 q 596 487 576 548 q 616 340 616 426 q 616 327 616 332 q 615 300 616 321 l 173 300 q 192 196 173 239 q 242 126 210 153 q 318 87 275 99 q 412 75 361 75 z "},"ë":{"ha":691,"x_min":64,"x_max":616,"o":"m 172 794 l 172 907 l 279 907 l 279 794 l 172 794 m 430 794 l 430 907 l 538 907 l 538 794 l 430 794 m 117 644 m 354 571 q 287 557 318 571 q 233 518 256 543 q 196 461 210 494 q 178 391 182 428 l 504 391 q 494 461 504 429 q 465 519 484 494 q 418 557 446 543 q 354 571 391 571 m 412 75 q 507 83 464 75 q 593 107 550 92 l 593 20 q 507 -7 558 3 q 398 -17 456 -17 q 268 1 329 -17 q 162 58 208 18 q 91 160 117 97 q 64 313 64 224 q 89 466 64 401 q 154 574 113 531 q 248 640 195 618 q 358 661 300 661 q 459 643 412 661 q 541 587 507 625 q 596 487 576 548 q 616 340 616 426 q 616 327 616 332 q 615 300 616 321 l 173 300 q 192 196 173 239 q 242 126 210 153 q 318 87 275 99 q 412 75 361 75 z "},"ē":{"ha":691,"x_min":64,"x_max":616,"o":"m 170 882 l 536 882 l 536 794 l 170 794 l 170 882 m 115 644 m 354 571 q 287 557 318 571 q 233 518 256 543 q 196 461 210 494 q 178 391 182 428 l 504 391 q 494 461 504 429 q 465 519 484 494 q 418 557 446 543 q 354 571 391 571 m 412 75 q 507 83 464 75 q 593 107 550 92 l 593 20 q 507 -7 558 3 q 398 -17 456 -17 q 268 1 329 -17 q 162 58 208 18 q 91 160 117 97 q 64 313 64 224 q 89 466 64 401 q 154 574 113 531 q 248 640 195 618 q 358 661 300 661 q 459 643 412 661 q 541 587 507 625 q 596 487 576 548 q 616 340 616 426 q 616 327 616 332 q 615 300 616 321 l 173 300 q 192 196 173 239 q 242 126 210 153 q 318 87 275 99 q 412 75 361 75 z "},"ĕ":{"ha":691,"x_min":64,"x_max":616,"o":"m 351 852 q 430 881 401 852 q 469 971 460 909 l 558 971 q 541 891 555 928 q 500 828 526 854 q 436 786 474 801 q 351 770 399 770 q 265 786 302 770 q 201 828 227 801 q 160 891 175 854 q 143 971 146 928 l 232 971 q 271 881 241 909 q 351 852 300 852 m 113 644 m 354 571 q 287 557 318 571 q 233 518 256 543 q 196 461 210 494 q 178 391 182 428 l 504 391 q 494 461 504 429 q 465 519 484 494 q 418 557 446 543 q 354 571 391 571 m 412 75 q 507 83 464 75 q 593 107 550 92 l 593 20 q 507 -7 558 3 q 398 -17 456 -17 q 268 1 329 -17 q 162 58 208 18 q 91 160 117 97 q 64 313 64 224 q 89 466 64 401 q 154 574 113 531 q 248 640 195 618 q 358 661 300 661 q 459 643 412 661 q 541 587 507 625 q 596 487 576 548 q 616 340 616 426 q 616 327 616 332 q 615 300 616 321 l 173 300 q 192 196 173 239 q 242 126 210 153 q 318 87 275 99 q 412 75 361 75 z "},"ė":{"ha":691,"x_min":64,"x_max":616,"o":"m 297 794 l 297 911 l 408 911 l 408 794 l 297 794 m 115 644 m 354 571 q 287 557 318 571 q 233 518 256 543 q 196 461 210 494 q 178 391 182 428 l 504 391 q 494 461 504 429 q 465 519 484 494 q 418 557 446 543 q 354 571 391 571 m 412 75 q 507 83 464 75 q 593 107 550 92 l 593 20 q 507 -7 558 3 q 398 -17 456 -17 q 268 1 329 -17 q 162 58 208 18 q 91 160 117 97 q 64 313 64 224 q 89 466 64 401 q 154 574 113 531 q 248 640 195 618 q 358 661 300 661 q 459 643 412 661 q 541 587 507 625 q 596 487 576 548 q 616 340 616 426 q 616 327 616 332 q 615 300 616 321 l 173 300 q 192 196 173 239 q 242 126 210 153 q 318 87 275 99 q 412 75 361 75 z "},"ę":{"ha":691,"x_min":64,"x_max":616,"o":"m 452 -13 q 423 -16 439 -15 q 398 -17 408 -17 q 268 1 329 -17 q 162 58 208 18 q 91 160 117 97 q 64 315 64 224 q 89 466 64 401 q 154 574 113 531 q 248 640 195 618 q 358 661 300 661 q 465 641 416 661 q 549 577 514 621 q 600 473 583 534 q 616 342 616 412 q 615 300 616 324 l 173 300 q 192 196 173 239 q 242 126 210 153 q 318 87 275 99 q 412 75 361 75 q 507 83 464 75 q 593 107 550 92 l 593 24 q 557 -2 576 13 q 518 -34 538 -17 q 481 -71 499 -52 q 449 -110 463 -90 q 427 -149 435 -130 q 419 -187 419 -169 q 435 -227 419 -213 q 483 -241 450 -241 q 523 -237 502 -241 q 569 -225 544 -233 l 569 -312 q 523 -327 549 -321 q 463 -332 496 -332 q 359 -302 397 -332 q 322 -214 322 -272 q 333 -155 322 -183 q 362 -103 344 -127 q 403 -56 380 -78 q 452 -16 427 -35 l 452 -13 m 354 571 q 287 557 318 571 q 233 518 256 543 q 196 461 210 494 q 178 391 182 428 l 504 391 q 494 461 504 429 q 465 519 484 494 q 418 557 446 543 q 354 571 391 571 z "},"ĝ":{"ha":737,"x_min":64,"x_max":635,"o":"m 421 999 l 564 762 l 469 762 l 369 929 l 366 929 l 267 762 l 172 762 l 315 999 l 421 999 m 131 644 m 174 318 q 193 194 174 242 q 239 119 211 146 q 300 82 267 92 q 363 73 334 73 q 455 92 412 73 q 530 146 498 112 l 530 483 q 506 511 522 495 q 470 539 490 526 q 422 562 449 553 q 365 571 396 571 q 282 552 318 571 q 223 500 247 534 q 186 421 199 467 q 174 318 174 374 m 351 661 q 425 650 393 661 q 478 625 456 640 q 514 595 500 610 q 532 571 527 580 l 534 571 l 556 644 l 635 644 l 635 -38 q 611 -168 635 -113 q 543 -260 587 -223 q 436 -314 498 -296 q 299 -332 374 -332 q 185 -321 235 -332 q 106 -294 135 -310 l 106 -205 q 151 -221 130 -215 q 196 -232 173 -228 q 243 -239 219 -237 q 296 -241 267 -241 q 470 -188 410 -241 q 530 -26 530 -135 l 530 60 l 528 60 q 448 2 494 22 q 343 -17 402 -17 q 285 -11 316 -17 q 222 10 254 -5 q 163 48 191 24 q 113 109 134 73 q 78 195 91 145 q 64 309 64 244 q 89 466 64 399 q 153 575 113 532 q 245 640 193 618 q 351 661 296 661 z "},"ğ":{"ha":737,"x_min":64,"x_max":635,"o":"m 367 852 q 447 881 417 852 q 486 971 476 909 l 574 971 q 557 891 572 928 q 516 828 543 854 q 453 786 490 801 q 367 770 415 770 q 281 786 319 770 q 217 828 243 801 q 177 891 191 854 q 159 971 162 928 l 248 971 q 287 881 258 909 q 367 852 317 852 m 130 644 m 174 318 q 193 194 174 242 q 239 119 211 146 q 300 82 267 92 q 363 73 334 73 q 455 92 412 73 q 530 146 498 112 l 530 483 q 506 511 522 495 q 470 539 490 526 q 422 562 449 553 q 365 571 396 571 q 282 552 318 571 q 223 500 247 534 q 186 421 199 467 q 174 318 174 374 m 351 661 q 425 650 393 661 q 478 625 456 640 q 514 595 500 610 q 532 571 527 580 l 534 571 l 556 644 l 635 644 l 635 -38 q 611 -168 635 -113 q 543 -260 587 -223 q 436 -314 498 -296 q 299 -332 374 -332 q 185 -321 235 -332 q 106 -294 135 -310 l 106 -205 q 151 -221 130 -215 q 196 -232 173 -228 q 243 -239 219 -237 q 296 -241 267 -241 q 470 -188 410 -241 q 530 -26 530 -135 l 530 60 l 528 60 q 448 2 494 22 q 343 -17 402 -17 q 285 -11 316 -17 q 222 10 254 -5 q 163 48 191 24 q 113 109 134 73 q 78 195 91 145 q 64 309 64 244 q 89 466 64 399 q 153 575 113 532 q 245 640 193 618 q 351 661 296 661 z "},"ġ":{"ha":737,"x_min":64,"x_max":635,"o":"m 316 794 l 316 911 l 427 911 l 427 794 l 316 794 m 134 644 m 174 318 q 193 194 174 242 q 239 119 211 146 q 300 82 267 92 q 363 73 334 73 q 455 92 412 73 q 530 146 498 112 l 530 483 q 506 511 522 495 q 470 539 490 526 q 422 562 449 553 q 365 571 396 571 q 282 552 318 571 q 223 500 247 534 q 186 421 199 467 q 174 318 174 374 m 351 661 q 425 650 393 661 q 478 625 456 640 q 514 595 500 610 q 532 571 527 580 l 534 571 l 556 644 l 635 644 l 635 -38 q 611 -168 635 -113 q 543 -260 587 -223 q 436 -314 498 -296 q 299 -332 374 -332 q 185 -321 235 -332 q 106 -294 135 -310 l 106 -205 q 151 -221 130 -215 q 196 -232 173 -228 q 243 -239 219 -237 q 296 -241 267 -241 q 470 -188 410 -241 q 530 -26 530 -135 l 530 60 l 528 60 q 448 2 494 22 q 343 -17 402 -17 q 285 -11 316 -17 q 222 10 254 -5 q 163 48 191 24 q 113 109 134 73 q 78 195 91 145 q 64 309 64 244 q 89 466 64 399 q 153 575 113 532 q 245 640 193 618 q 351 661 296 661 z "},"ģ":{"ha":737,"x_min":64,"x_max":715,"o":"m 361 887 q 377 849 361 861 q 418 837 393 837 l 418 749 q 399 749 408 749 q 299 777 336 749 q 262 861 262 806 q 275 929 262 896 q 315 999 288 962 l 412 999 q 376 940 391 968 q 361 887 361 912 m 715 644 m 174 318 q 193 194 174 242 q 239 119 211 146 q 300 82 267 92 q 363 73 334 73 q 455 92 412 73 q 530 146 498 112 l 530 483 q 506 511 522 495 q 470 539 490 526 q 422 562 449 553 q 365 571 396 571 q 282 552 318 571 q 223 500 247 534 q 186 421 199 467 q 174 318 174 374 m 351 661 q 425 650 393 661 q 478 625 456 640 q 514 595 500 610 q 532 571 527 580 l 534 571 l 556 644 l 635 644 l 635 -38 q 611 -168 635 -113 q 543 -260 587 -223 q 436 -314 498 -296 q 299 -332 374 -332 q 185 -321 235 -332 q 106 -294 135 -310 l 106 -205 q 151 -221 130 -215 q 196 -232 173 -228 q 243 -239 219 -237 q 296 -241 267 -241 q 470 -188 410 -241 q 530 -26 530 -135 l 530 60 l 528 60 q 448 2 494 22 q 343 -17 402 -17 q 285 -11 316 -17 q 222 10 254 -5 q 163 48 191 24 q 113 109 134 73 q 78 195 91 145 q 64 309 64 244 q 89 466 64 399 q 153 575 113 532 q 245 640 193 618 q 351 661 296 661 z "},"ĥ":{"ha":739,"x_min":-33,"x_max":637,"o":"m 214 556 l 216 556 q 255 598 233 578 q 303 631 277 617 q 360 653 330 645 q 426 661 391 661 q 499 651 463 661 q 567 616 536 642 q 618 547 598 591 q 637 431 637 502 l 637 0 l 532 0 l 532 414 q 503 532 532 492 q 406 571 473 571 q 300 541 351 571 q 214 458 250 511 l 214 0 l 109 0 l 109 982 l 214 982 l 214 556 m 222 1198 l 369 1031 l 262 1031 l 169 1133 l 166 1133 l 74 1031 l -33 1031 l 113 1198 l 222 1198 z "},"ħ":{"ha":739,"x_min":0,"x_max":637,"o":"m 214 781 l 214 556 l 216 556 q 255 598 233 578 q 303 631 277 617 q 360 653 330 645 q 426 661 391 661 q 499 651 463 661 q 567 616 536 642 q 618 547 598 591 q 637 431 637 502 l 637 0 l 532 0 l 532 414 q 503 532 532 492 q 406 571 473 571 q 300 541 351 571 q 214 458 250 511 l 214 0 l 109 0 l 109 781 l 0 781 l 0 871 l 109 871 l 109 982 l 214 982 l 214 871 l 410 871 l 410 781 l 214 781 z "},"ì":{"ha":322,"x_min":-123,"x_max":216,"o":"m 109 0 l 109 644 l 214 644 l 214 0 l 109 0 m 132 999 l 216 762 l 127 762 l 18 999 l 132 999 m -123 644 z "},"í":{"ha":322,"x_min":-26,"x_max":317,"o":"m 109 0 l 109 644 l 214 644 l 214 0 l 109 0 m 317 999 l 208 762 l 120 762 l 203 999 l 317 999 m -26 644 z "},"î":{"ha":322,"x_min":-71,"x_max":362,"o":"m 109 0 l 109 644 l 214 644 l 214 0 l 109 0 m 220 999 l 362 762 l 267 762 l 168 929 l 165 929 l 66 762 l -29 762 l 113 999 l 220 999 m -71 644 z "},"ĩ":{"ha":322,"x_min":-71,"x_max":377,"o":"m 109 0 l 109 644 l 214 644 l 214 0 l 109 0 m -45 799 l -45 814 q -40 860 -45 838 q -21 902 -35 883 q 14 931 -8 920 q 69 943 37 943 q 123 933 97 943 q 172 911 150 923 q 216 888 195 899 q 254 878 237 878 q 284 893 275 878 q 294 937 294 908 l 377 937 l 377 922 q 372 876 377 899 q 354 834 367 853 q 318 805 340 816 q 263 793 296 793 q 209 803 235 793 q 160 825 182 813 q 116 848 138 838 q 79 858 95 858 q 48 843 58 858 q 38 799 38 828 l -45 799 m -71 644 z "},"ï":{"ha":322,"x_min":-71,"x_max":349,"o":"m 109 0 l 109 644 l 214 644 l 214 0 l 109 0 m -17 794 l -17 907 l 91 907 l 91 794 l -17 794 m 241 794 l 241 907 l 349 907 l 349 794 l 241 794 m -71 644 z "},"ī":{"ha":322,"x_min":-72,"x_max":349,"o":"m 109 0 l 109 644 l 214 644 l 214 0 l 109 0 m -18 882 l 349 882 l 349 794 l -18 794 l -18 882 m -72 644 z "},"ĭ":{"ha":322,"x_min":-74,"x_max":371,"o":"m 109 0 l 109 644 l 214 644 l 214 0 l 109 0 m 163 852 q 243 881 214 852 q 282 971 273 909 l 371 971 q 354 891 368 928 q 313 828 339 854 q 249 786 287 801 q 163 770 212 770 q 78 786 115 770 q 14 828 40 801 q -27 891 -12 854 q -44 971 -41 928 l 45 971 q 84 881 54 909 q 163 852 113 852 m -74 644 z "},"į":{"ha":322,"x_min":0,"x_max":247,"o":"m 214 0 q 170 -41 191 -20 q 133 -83 149 -62 q 107 -128 117 -104 q 97 -178 97 -152 q 112 -223 97 -205 q 163 -241 127 -241 q 201 -237 181 -241 q 247 -225 222 -233 l 247 -312 q 200 -327 227 -321 q 144 -332 172 -332 q 81 -322 109 -332 q 36 -294 54 -312 q 9 -251 18 -275 q 0 -198 0 -227 q 8 -143 0 -170 q 31 -93 16 -117 q 65 -44 45 -68 q 109 2 85 -21 l 109 644 l 214 644 l 214 0 m 106 794 l 106 910 l 216 910 l 216 794 l 106 794 z "},"ı":{"ha":322,"x_min":109,"x_max":214,"o":"m 109 0 l 109 644 l 214 644 l 214 0 l 109 0 z "},"ĳ":{"ha":657,"x_min":106,"x_max":551,"o":"m 109 0 l 109 644 l 214 644 l 214 0 l 109 0 m 106 794 l 106 911 l 216 911 l 216 794 l 106 794 m 549 -144 q 498 -282 549 -233 q 336 -332 447 -332 q 280 -328 307 -332 q 241 -319 254 -323 l 241 -229 q 281 -238 261 -235 q 323 -241 302 -241 q 416 -214 388 -241 q 444 -132 444 -188 l 444 644 l 549 644 l 549 -144 m 441 794 l 441 911 l 551 911 l 551 794 l 441 794 z "},"ĵ":{"ha":335,"x_min":-81,"x_max":368,"o":"m 227 -144 q 176 -282 227 -233 q 14 -332 125 -332 q -42 -328 -15 -332 q -81 -319 -68 -323 l -81 -229 q -41 -237 -61 -234 q 1 -241 -21 -241 q 94 -214 66 -241 q 121 -132 121 -188 l 121 644 l 227 644 l 227 -144 m 226 999 l 368 762 l 273 762 l 174 929 l 171 929 l 72 762 l -23 762 l 119 999 l 226 999 z "},"ķ":{"ha":676,"x_min":109,"x_max":656,"o":"m 519 644 l 656 644 l 341 348 l 655 0 l 524 0 l 215 343 l 214 343 l 214 0 l 109 0 l 109 982 l 214 982 l 214 357 l 215 357 l 519 644 m 323 -220 q 308 -182 323 -194 q 267 -170 292 -170 l 267 -83 q 286 -82 277 -82 q 386 -111 349 -82 q 422 -195 422 -140 q 410 -262 422 -229 q 369 -332 397 -296 l 272 -332 q 309 -272 295 -300 q 323 -220 323 -243 z "},"ĸ":{"ha":669,"x_min":102,"x_max":649,"o":"m 512 644 l 649 644 l 334 327 l 648 0 l 517 0 l 208 323 l 207 323 l 207 0 l 102 0 l 102 644 l 207 644 l 207 336 l 208 336 l 512 644 z "},"ĺ":{"ha":322,"x_min":9,"x_max":328,"o":"m 109 0 l 109 982 l 214 982 l 214 0 l 109 0 m 328 1198 l 205 1030 l 111 1030 l 210 1198 l 328 1198 m 9 982 z "},"ľ":{"ha":322,"x_min":109,"x_max":437,"o":"m 109 0 l 109 982 l 214 982 l 214 0 l 109 0 m 338 844 q 322 883 338 871 q 281 895 307 895 l 281 982 q 302 983 292 983 q 400 954 363 983 q 437 870 437 924 q 425 802 437 836 q 384 732 412 769 l 287 732 q 323 791 309 764 q 338 844 338 819 z "},"ļ":{"ha":322,"x_min":97,"x_max":253,"o":"m 109 0 l 109 982 l 214 982 l 214 0 l 109 0 m 154 -220 q 138 -182 154 -194 q 97 -170 122 -170 l 97 -83 q 116 -82 107 -82 q 216 -111 179 -82 q 253 -195 253 -140 q 240 -262 253 -229 q 199 -332 227 -296 l 102 -332 q 140 -272 125 -300 q 154 -220 154 -243 z "},"ł":{"ha":322,"x_min":-6,"x_max":341,"o":"m 109 0 l 109 419 l -6 346 l -6 453 l 109 526 l 109 982 l 214 982 l 214 589 l 341 671 l 341 564 l 214 481 l 214 0 l 109 0 z "},"ŀ":{"ha":433,"x_min":109,"x_max":433,"o":"m 109 0 l 109 982 l 214 982 l 214 0 l 109 0 m 322 372 l 322 489 l 433 489 l 433 372 l 322 372 z "},"ń":{"ha":732,"x_min":102,"x_max":631,"o":"m 203 555 l 205 555 q 244 596 223 577 q 292 630 266 616 q 350 653 319 645 q 419 661 382 661 q 502 649 463 661 q 569 610 541 637 q 614 539 597 583 q 631 431 631 495 l 631 0 l 526 0 l 526 414 q 493 534 526 498 q 399 571 461 571 q 294 541 345 571 q 207 458 243 511 l 207 0 l 102 0 l 102 644 l 183 644 l 203 555 m 541 999 l 432 762 l 344 762 l 427 999 l 541 999 m 198 644 z "},"ň":{"ha":732,"x_min":102,"x_max":631,"o":"m 203 555 l 205 555 q 244 596 223 577 q 292 630 266 616 q 350 653 319 645 q 419 661 382 661 q 502 649 463 661 q 569 610 541 637 q 614 539 597 583 q 631 431 631 495 l 631 0 l 526 0 l 526 414 q 493 534 526 498 q 399 571 461 571 q 294 541 345 571 q 207 458 243 511 l 207 0 l 102 0 l 102 644 l 183 644 l 203 555 m 326 762 l 183 999 l 278 999 l 378 832 l 380 832 l 479 999 l 574 999 l 432 762 l 326 762 m 141 644 z "},"ñ":{"ha":732,"x_min":102,"x_max":631,"o":"m 203 555 l 205 555 q 244 596 223 577 q 292 630 266 616 q 350 653 319 645 q 419 661 382 661 q 502 649 463 661 q 569 610 541 637 q 614 539 597 583 q 631 431 631 495 l 631 0 l 526 0 l 526 414 q 493 534 526 498 q 399 571 461 571 q 294 541 345 571 q 207 458 243 511 l 207 0 l 102 0 l 102 644 l 183 644 l 203 555 m 150 799 l 150 814 q 155 860 150 838 q 173 902 160 883 q 209 931 186 920 q 264 943 231 943 q 318 933 292 943 q 367 911 345 923 q 411 888 389 899 q 448 878 432 878 q 479 893 469 878 q 489 937 489 908 l 572 937 l 572 922 q 567 876 572 899 q 548 834 562 853 q 513 805 535 816 q 458 793 490 793 q 404 803 430 793 q 355 825 377 813 q 311 848 332 838 q 273 858 290 858 q 242 843 252 858 q 233 799 233 828 l 150 799 m 123 644 z "},"ņ":{"ha":732,"x_min":102,"x_max":631,"o":"m 203 555 l 205 555 q 244 596 223 577 q 292 630 266 616 q 350 653 319 645 q 419 661 382 661 q 502 649 463 661 q 569 610 541 637 q 614 539 597 583 q 631 431 631 495 l 631 0 l 526 0 l 526 414 q 493 534 526 498 q 399 571 461 571 q 294 541 345 571 q 207 458 243 511 l 207 0 l 102 0 l 102 644 l 183 644 l 203 555 m 338 -220 q 322 -182 338 -194 q 281 -170 306 -170 l 281 -83 q 300 -82 291 -82 q 400 -111 363 -82 q 437 -195 437 -140 q 424 -262 437 -229 q 383 -332 411 -296 l 286 -332 q 323 -272 309 -300 q 338 -220 338 -243 z "},"ŉ":{"ha":732,"x_min":-28,"x_max":631,"o":"m 203 555 l 205 555 q 244 596 223 577 q 292 630 266 616 q 350 653 319 645 q 419 661 382 661 q 502 649 463 661 q 569 610 541 637 q 614 539 597 583 q 631 431 631 495 l 631 0 l 526 0 l 526 414 q 493 534 526 498 q 399 571 461 571 q 294 541 345 571 q 207 458 243 511 l 207 0 l 102 0 l 102 644 l 183 644 l 203 555 m 28 844 q 13 883 28 871 q -28 895 -3 895 l -28 982 q -7 983 -18 983 q 91 954 54 983 q 127 870 127 924 q 115 802 127 836 q 74 732 102 769 l -23 732 q 14 791 -1 764 q 28 844 28 819 z "},"ò":{"ha":741,"x_min":64,"x_max":676,"o":"m 566 321 q 552 428 566 381 q 511 506 537 474 q 449 555 485 538 q 370 572 413 572 q 292 555 328 572 q 230 506 256 538 q 189 428 203 474 q 174 321 174 381 q 189 216 174 262 q 230 138 203 170 q 292 89 256 106 q 371 73 328 73 q 449 89 414 73 q 511 138 485 106 q 552 216 537 170 q 566 321 566 262 m 676 321 q 654 183 676 245 q 593 76 633 121 q 497 7 553 32 q 371 -17 441 -17 q 242 7 299 -17 q 146 76 186 32 q 85 183 106 121 q 64 321 64 245 q 86 460 64 398 q 148 568 108 523 q 244 637 187 612 q 370 661 300 661 q 498 637 441 661 q 595 568 555 612 q 655 460 634 523 q 676 321 676 398 m 334 999 l 417 762 l 329 762 l 220 999 l 334 999 m 79 644 z "},"ó":{"ha":741,"x_min":64,"x_max":676,"o":"m 566 321 q 552 428 566 381 q 511 506 537 474 q 449 555 485 538 q 370 572 413 572 q 292 555 328 572 q 230 506 256 538 q 189 428 203 474 q 174 321 174 381 q 189 216 174 262 q 230 138 203 170 q 292 89 256 106 q 371 73 328 73 q 449 89 414 73 q 511 138 485 106 q 552 216 537 170 q 566 321 566 262 m 676 321 q 654 183 676 245 q 593 76 633 121 q 497 7 553 32 q 371 -17 441 -17 q 242 7 299 -17 q 146 76 186 32 q 85 183 106 121 q 64 321 64 245 q 86 460 64 398 q 148 568 108 523 q 244 637 187 612 q 370 661 300 661 q 498 637 441 661 q 595 568 555 612 q 655 460 634 523 q 676 321 676 398 m 530 999 l 420 762 l 332 762 l 416 999 l 530 999 m 186 644 z "},"ô":{"ha":741,"x_min":64,"x_max":676,"o":"m 566 321 q 552 428 566 381 q 511 506 537 474 q 449 555 485 538 q 370 572 413 572 q 292 555 328 572 q 230 506 256 538 q 189 428 203 474 q 174 321 174 381 q 189 216 174 262 q 230 138 203 170 q 292 89 256 106 q 371 73 328 73 q 449 89 414 73 q 511 138 485 106 q 552 216 537 170 q 566 321 566 262 m 676 321 q 654 183 676 245 q 593 76 633 121 q 497 7 553 32 q 371 -17 441 -17 q 242 7 299 -17 q 146 76 186 32 q 85 183 106 121 q 64 321 64 245 q 86 460 64 398 q 148 568 108 523 q 244 637 187 612 q 370 661 300 661 q 498 637 441 661 q 595 568 555 612 q 655 460 634 523 q 676 321 676 398 m 420 999 l 563 762 l 468 762 l 368 929 l 366 929 l 267 762 l 172 762 l 314 999 l 420 999 m 130 644 z "},"õ":{"ha":741,"x_min":64,"x_max":676,"o":"m 566 321 q 552 428 566 381 q 511 506 537 474 q 449 555 485 538 q 370 572 413 572 q 292 555 328 572 q 230 506 256 538 q 189 428 203 474 q 174 321 174 381 q 189 216 174 262 q 230 138 203 170 q 292 89 256 106 q 371 73 328 73 q 449 89 414 73 q 511 138 485 106 q 552 216 537 170 q 566 321 566 262 m 676 321 q 654 183 676 245 q 593 76 633 121 q 497 7 553 32 q 371 -17 441 -17 q 242 7 299 -17 q 146 76 186 32 q 85 183 106 121 q 64 321 64 245 q 86 460 64 398 q 148 568 108 523 q 244 637 187 612 q 370 661 300 661 q 498 637 441 661 q 595 568 555 612 q 655 460 634 523 q 676 321 676 398 m 155 799 l 155 814 q 160 860 155 838 q 178 902 165 883 q 214 931 191 920 q 269 943 236 943 q 323 933 296 943 q 372 911 349 923 q 415 888 394 899 q 453 878 437 878 q 484 893 474 878 q 494 937 494 908 l 576 937 l 576 922 q 571 876 576 899 q 553 834 566 853 q 517 805 540 816 q 463 793 495 793 q 408 803 435 793 q 359 825 382 813 q 316 848 337 838 q 278 858 294 858 q 247 843 257 858 q 237 799 237 828 l 155 799 m 128 644 z "},"ö":{"ha":741,"x_min":64,"x_max":676,"o":"m 566 321 q 552 428 566 381 q 511 506 537 474 q 449 555 485 538 q 370 572 413 572 q 292 555 328 572 q 230 506 256 538 q 189 428 203 474 q 174 321 174 381 q 189 216 174 262 q 230 138 203 170 q 292 89 256 106 q 371 73 328 73 q 449 89 414 73 q 511 138 485 106 q 552 216 537 170 q 566 321 566 262 m 676 321 q 654 183 676 245 q 593 76 633 121 q 497 7 553 32 q 371 -17 441 -17 q 242 7 299 -17 q 146 76 186 32 q 85 183 106 121 q 64 321 64 245 q 86 460 64 398 q 148 568 108 523 q 244 637 187 612 q 370 661 300 661 q 498 637 441 661 q 595 568 555 612 q 655 460 634 523 q 676 321 676 398 m 186 794 l 186 907 l 294 907 l 294 794 l 186 794 m 445 794 l 445 907 l 553 907 l 553 794 l 445 794 m 132 644 z "},"ō":{"ha":741,"x_min":64,"x_max":676,"o":"m 566 321 q 552 428 566 381 q 511 506 537 474 q 449 555 485 538 q 370 572 413 572 q 292 555 328 572 q 230 506 256 538 q 189 428 203 474 q 174 321 174 381 q 189 216 174 262 q 230 138 203 170 q 292 89 256 106 q 371 73 328 73 q 449 89 414 73 q 511 138 485 106 q 552 216 537 170 q 566 321 566 262 m 676 321 q 654 183 676 245 q 593 76 633 121 q 497 7 553 32 q 371 -17 441 -17 q 242 7 299 -17 q 146 76 186 32 q 85 183 106 121 q 64 321 64 245 q 86 460 64 398 q 148 568 108 523 q 244 637 187 612 q 370 661 300 661 q 498 637 441 661 q 595 568 555 612 q 655 460 634 523 q 676 321 676 398 m 186 882 l 552 882 l 552 794 l 186 794 l 186 882 m 132 644 z "},"ŏ":{"ha":741,"x_min":64,"x_max":676,"o":"m 566 321 q 552 428 566 381 q 511 506 537 474 q 449 555 485 538 q 370 572 413 572 q 292 555 328 572 q 230 506 256 538 q 189 428 203 474 q 174 321 174 381 q 189 216 174 262 q 230 138 203 170 q 292 89 256 106 q 371 73 328 73 q 449 89 414 73 q 511 138 485 106 q 552 216 537 170 q 566 321 566 262 m 676 321 q 654 183 676 245 q 593 76 633 121 q 497 7 553 32 q 371 -17 441 -17 q 242 7 299 -17 q 146 76 186 32 q 85 183 106 121 q 64 321 64 245 q 86 460 64 398 q 148 568 108 523 q 244 637 187 612 q 370 661 300 661 q 498 637 441 661 q 595 568 555 612 q 655 460 634 523 q 676 321 676 398 m 366 852 q 446 881 416 852 q 485 971 475 909 l 574 971 q 556 891 571 928 q 516 828 542 854 q 452 786 490 801 q 366 770 414 770 q 280 786 318 770 q 217 828 243 801 q 176 891 191 854 q 159 971 161 928 l 248 971 q 287 881 257 909 q 366 852 316 852 m 129 644 z "},"ő":{"ha":741,"x_min":64,"x_max":676,"o":"m 566 321 q 552 428 566 381 q 511 506 537 474 q 449 555 485 538 q 370 572 413 572 q 292 555 328 572 q 230 506 256 538 q 189 428 203 474 q 174 321 174 381 q 189 216 174 262 q 230 138 203 170 q 292 89 256 106 q 371 73 328 73 q 449 89 414 73 q 511 138 485 106 q 552 216 537 170 q 566 321 566 262 m 676 321 q 654 183 676 245 q 593 76 633 121 q 497 7 553 32 q 371 -17 441 -17 q 242 7 299 -17 q 146 76 186 32 q 85 183 106 121 q 64 321 64 245 q 86 460 64 398 q 148 568 108 523 q 244 637 187 612 q 370 661 300 661 q 498 637 441 661 q 595 568 555 612 q 655 460 634 523 q 676 321 676 398 m 421 999 l 315 762 l 227 762 l 311 999 l 421 999 m 632 999 l 512 762 l 424 762 l 521 999 l 632 999 m 186 644 z "},"ø":{"ha":741,"x_min":64,"x_max":676,"o":"m 64 41 l 122 106 q 79 203 94 149 q 64 321 64 257 q 86 460 64 398 q 148 568 108 523 q 244 637 187 612 q 370 661 300 661 q 473 646 427 661 q 557 602 520 631 l 609 661 l 676 604 l 618 537 q 661 440 646 494 q 676 321 676 386 q 654 183 676 245 q 593 76 633 121 q 497 7 553 32 q 371 -17 441 -17 q 267 -2 314 -17 q 183 41 220 13 l 132 -17 l 64 41 m 174 321 q 197 192 174 248 l 491 526 q 370 572 441 572 q 292 555 328 572 q 230 506 256 538 q 189 428 203 474 q 174 321 174 381 m 566 321 q 560 392 566 359 q 543 452 554 425 l 250 117 q 371 73 300 73 q 449 89 414 73 q 511 138 485 106 q 552 216 537 170 q 566 321 566 262 z "},"ǿ":{"ha":741,"x_min":64,"x_max":676,"o":"m 64 41 l 122 106 q 79 203 94 149 q 64 321 64 257 q 86 460 64 398 q 148 568 108 523 q 244 637 187 612 q 370 661 300 661 q 473 646 427 661 q 557 602 520 631 l 609 661 l 676 604 l 618 537 q 661 440 646 494 q 676 321 676 386 q 654 183 676 245 q 593 76 633 121 q 497 7 553 32 q 371 -17 441 -17 q 267 -2 314 -17 q 183 41 220 13 l 132 -17 l 64 41 m 174 321 q 197 192 174 248 l 491 526 q 370 572 441 572 q 292 555 328 572 q 230 506 256 538 q 189 428 203 474 q 174 321 174 381 m 566 321 q 560 392 566 359 q 543 452 554 425 l 250 117 q 371 73 300 73 q 449 89 414 73 q 511 138 485 106 q 552 216 537 170 q 566 321 566 262 m 531 999 l 422 762 l 334 762 l 417 999 l 531 999 m 188 644 z "},"œ":{"ha":1193,"x_min":64,"x_max":1118,"o":"m 913 75 q 1009 83 966 75 q 1095 107 1052 92 l 1095 20 q 1009 -7 1060 3 q 900 -17 958 -17 q 808 -8 851 -17 q 729 18 765 0 q 664 66 692 37 q 616 136 635 95 l 614 136 q 517 24 579 65 q 368 -17 455 -17 q 241 7 297 -17 q 145 76 184 32 q 85 183 106 121 q 64 321 64 245 q 86 460 64 398 q 147 568 107 523 q 242 637 186 612 q 368 661 298 661 q 520 618 458 661 q 616 504 583 576 l 619 504 q 719 622 656 583 q 860 661 782 661 q 966 641 917 661 q 1051 577 1016 621 q 1102 473 1086 534 q 1118 342 1118 413 q 1117 300 1118 322 l 675 300 q 693 196 675 239 q 744 126 712 153 q 820 87 777 99 q 913 75 863 75 m 566 321 q 552 428 566 381 q 511 506 537 474 q 449 555 485 538 q 370 572 413 572 q 292 555 328 572 q 230 506 256 538 q 189 428 203 474 q 174 321 174 381 q 189 216 174 262 q 230 138 203 170 q 292 89 256 106 q 371 73 328 73 q 449 89 414 73 q 511 138 485 106 q 552 216 537 170 q 566 321 566 262 m 856 571 q 789 557 820 571 q 735 518 758 543 q 698 461 712 494 q 680 391 684 428 l 1006 391 q 996 461 1006 429 q 967 519 986 494 q 920 557 948 543 q 856 571 892 571 z "},"ŕ":{"ha":465,"x_min":60,"x_max":455,"o":"m 403 999 l 294 762 l 205 762 l 289 999 l 403 999 m 60 644 m 455 559 l 447 559 q 374 552 410 559 q 306 531 338 545 q 249 497 275 517 q 207 449 224 477 l 207 0 l 102 0 l 102 644 l 183 644 l 203 542 l 205 542 q 244 589 221 567 q 295 627 267 610 q 357 652 323 643 q 429 661 391 661 q 443 661 435 661 q 455 660 450 661 l 455 559 z "},"ř":{"ha":465,"x_min":28,"x_max":461,"o":"m 212 762 l 70 999 l 165 999 l 264 832 l 267 832 l 366 999 l 461 999 l 319 762 l 212 762 m 28 644 m 455 559 l 447 559 q 374 552 410 559 q 306 531 338 545 q 249 497 275 517 q 207 449 224 477 l 207 0 l 102 0 l 102 644 l 183 644 l 203 542 l 205 542 q 244 589 221 567 q 295 627 267 610 q 357 652 323 643 q 429 661 391 661 q 443 661 435 661 q 455 660 450 661 l 455 559 z "},"ŗ":{"ha":465,"x_min":102,"x_max":455,"o":"m 164 -220 q 148 -182 164 -194 q 107 -170 132 -170 l 107 -83 q 126 -82 117 -82 q 226 -111 189 -82 q 263 -195 263 -140 q 250 -262 263 -229 q 210 -332 237 -296 l 113 -332 q 150 -272 136 -300 q 164 -220 164 -243 m 455 559 l 447 559 q 374 552 410 559 q 306 531 338 545 q 249 497 275 517 q 207 449 224 477 l 207 0 l 102 0 l 102 644 l 183 644 l 203 542 l 205 542 q 244 589 221 567 q 295 627 267 610 q 357 652 323 643 q 429 661 391 661 q 443 661 435 661 q 455 660 450 661 l 455 559 z "},"ś":{"ha":562,"x_min":64,"x_max":504,"o":"m 433 999 l 324 762 l 236 762 l 319 999 l 433 999 m 90 644 m 170 473 q 181 429 170 446 q 212 402 193 412 q 257 385 231 391 q 309 372 282 378 q 380 354 347 364 q 441 325 413 345 q 487 272 469 305 q 504 184 504 238 q 485 98 504 136 q 431 35 466 60 q 349 -4 397 9 q 243 -17 300 -17 q 179 -13 208 -17 q 128 -4 150 -9 q 90 8 106 2 q 64 20 75 14 l 64 108 q 145 82 105 92 q 233 73 185 73 q 302 79 271 73 q 354 99 332 86 q 388 133 376 113 q 400 179 400 153 q 389 224 400 206 q 360 253 378 241 q 318 272 342 264 q 267 286 294 279 q 197 303 233 293 q 132 332 161 313 q 85 381 103 350 q 67 463 67 413 q 85 551 67 513 q 135 612 104 588 q 208 649 166 637 q 295 661 249 661 q 394 651 349 661 q 477 625 440 641 l 477 536 q 395 561 437 551 q 309 572 353 571 q 245 564 272 572 q 202 544 219 557 q 177 512 185 530 q 170 473 170 494 z "},"ŝ":{"ha":562,"x_min":47,"x_max":504,"o":"m 338 999 l 480 762 l 385 762 l 286 929 l 283 929 l 184 762 l 89 762 l 231 999 l 338 999 m 47 644 m 170 473 q 181 429 170 446 q 212 402 193 412 q 257 385 231 391 q 309 372 282 378 q 380 354 347 364 q 441 325 413 345 q 487 272 469 305 q 504 184 504 238 q 485 98 504 136 q 431 35 466 60 q 349 -4 397 9 q 243 -17 300 -17 q 179 -13 208 -17 q 128 -4 150 -9 q 90 8 106 2 q 64 20 75 14 l 64 108 q 145 82 105 92 q 233 73 185 73 q 302 79 271 73 q 354 99 332 86 q 388 133 376 113 q 400 179 400 153 q 389 224 400 206 q 360 253 378 241 q 318 272 342 264 q 267 286 294 279 q 197 303 233 293 q 132 332 161 313 q 85 381 103 350 q 67 463 67 413 q 85 551 67 513 q 135 612 104 588 q 208 649 166 637 q 295 661 249 661 q 394 651 349 661 q 477 625 440 641 l 477 536 q 395 561 437 551 q 309 572 353 571 q 245 564 272 572 q 202 544 219 557 q 177 512 185 530 q 170 473 170 494 z "},"š":{"ha":562,"x_min":54,"x_max":504,"o":"m 238 762 l 96 999 l 191 999 l 290 832 l 293 832 l 392 999 l 487 999 l 345 762 l 238 762 m 54 644 m 170 473 q 181 429 170 446 q 212 402 193 412 q 257 385 231 391 q 309 372 282 378 q 380 354 347 364 q 441 325 413 345 q 487 272 469 305 q 504 184 504 238 q 485 98 504 136 q 431 35 466 60 q 349 -4 397 9 q 243 -17 300 -17 q 179 -13 208 -17 q 128 -4 150 -9 q 90 8 106 2 q 64 20 75 14 l 64 108 q 145 82 105 92 q 233 73 185 73 q 302 79 271 73 q 354 99 332 86 q 388 133 376 113 q 400 179 400 153 q 389 224 400 206 q 360 253 378 241 q 318 272 342 264 q 267 286 294 279 q 197 303 233 293 q 132 332 161 313 q 85 381 103 350 q 67 463 67 413 q 85 551 67 513 q 135 612 104 588 q 208 649 166 637 q 295 661 249 661 q 394 651 349 661 q 477 625 440 641 l 477 536 q 395 561 437 551 q 309 572 353 571 q 245 564 272 572 q 202 544 219 557 q 177 512 185 530 q 170 473 170 494 z "},"ş":{"ha":562,"x_min":64,"x_max":504,"o":"m 504 184 q 489 107 504 142 q 447 48 474 73 q 381 7 420 23 q 296 -14 343 -8 l 277 -85 q 327 -98 304 -90 q 366 -120 349 -106 q 391 -153 382 -134 q 399 -197 399 -172 q 384 -258 399 -233 q 342 -300 368 -283 q 282 -325 316 -317 q 212 -332 248 -332 q 160 -329 184 -332 q 121 -319 136 -325 l 121 -243 q 140 -248 130 -245 q 162 -251 151 -250 q 184 -254 174 -253 q 202 -254 194 -254 q 240 -252 222 -254 q 274 -243 259 -250 q 298 -226 289 -237 q 307 -199 307 -216 q 298 -175 307 -185 q 271 -159 288 -165 q 229 -150 254 -153 q 174 -146 204 -147 l 213 -16 q 120 -2 156 -13 q 64 20 84 8 l 64 108 q 146 82 106 91 q 233 73 186 73 q 302 79 271 73 q 354 99 332 86 q 388 133 376 113 q 400 179 400 153 q 389 224 400 206 q 360 253 378 241 q 318 272 342 264 q 267 286 294 279 q 197 303 233 293 q 132 332 161 313 q 85 381 103 350 q 67 463 67 413 q 85 551 67 513 q 135 612 104 588 q 208 649 166 637 q 295 661 249 661 q 394 651 349 661 q 477 625 440 641 l 477 536 q 395 561 437 551 q 309 572 353 571 q 245 564 272 572 q 202 544 219 557 q 177 512 185 530 q 170 473 170 494 q 181 429 170 446 q 212 402 193 412 q 257 385 231 391 q 309 372 282 378 q 380 354 347 364 q 441 325 413 345 q 487 272 469 305 q 504 184 504 238 z "},"ș":{"ha":562,"x_min":64,"x_max":504,"o":"m 249 -220 q 233 -182 249 -194 q 192 -170 217 -170 l 192 -83 q 211 -82 202 -82 q 311 -111 274 -82 q 348 -195 348 -140 q 335 -262 348 -229 q 294 -332 322 -296 l 197 -332 q 235 -272 220 -300 q 249 -220 249 -243 m 170 473 q 181 429 170 446 q 212 402 193 412 q 257 385 231 391 q 309 372 282 378 q 380 354 347 364 q 441 325 413 345 q 487 272 469 305 q 504 184 504 238 q 485 98 504 136 q 431 35 466 60 q 349 -4 397 9 q 243 -17 300 -17 q 179 -13 208 -17 q 128 -4 150 -9 q 90 8 106 2 q 64 20 75 14 l 64 108 q 145 82 105 92 q 233 73 185 73 q 302 79 271 73 q 354 99 332 86 q 388 133 376 113 q 400 179 400 153 q 389 224 400 206 q 360 253 378 241 q 318 272 342 264 q 267 286 294 279 q 197 303 233 293 q 132 332 161 313 q 85 381 103 350 q 67 463 67 413 q 85 551 67 513 q 135 612 104 588 q 208 649 166 637 q 295 661 249 661 q 394 651 349 661 q 477 625 440 641 l 477 536 q 395 561 437 551 q 309 572 353 571 q 245 564 272 572 q 202 544 219 557 q 177 512 185 530 q 170 473 170 494 z "},"ß":{"ha":846,"x_min":109,"x_max":789,"o":"m 672 808 q 660 742 672 770 q 629 689 648 713 q 589 646 610 666 q 549 607 568 627 q 518 567 530 588 q 506 518 506 545 q 515 479 506 496 q 541 451 525 463 q 578 428 557 438 q 623 407 600 417 q 681 378 652 394 q 735 339 711 362 q 774 282 759 316 q 789 200 789 249 q 770 111 789 151 q 716 43 751 71 q 633 -1 682 14 q 528 -17 585 -17 q 472 -13 497 -17 q 427 -4 447 -9 q 391 8 406 1 q 366 20 376 14 l 366 108 q 405 93 387 100 q 440 82 422 87 q 477 75 458 77 q 518 73 496 73 q 587 81 556 73 q 639 106 617 90 q 673 145 661 123 q 685 196 685 168 q 674 245 685 224 q 646 281 663 266 q 605 308 628 296 q 557 331 581 320 q 501 358 529 344 q 451 392 473 372 q 416 440 429 412 q 402 509 402 469 q 414 579 402 549 q 445 633 427 609 q 485 677 463 657 q 525 716 507 696 q 555 757 543 736 q 568 805 568 778 q 559 845 568 827 q 534 878 551 864 q 489 900 517 892 q 422 907 461 907 q 329 890 368 907 q 264 841 290 873 q 226 766 239 810 q 214 668 214 722 l 214 0 l 109 0 l 109 674 q 129 807 109 747 q 190 909 150 867 q 288 976 230 952 q 422 999 347 999 q 533 983 486 999 q 611 941 581 967 q 657 880 642 914 q 672 808 672 846 z "},"ſ":{"ha":397,"x_min":109,"x_max":431,"o":"m 109 743 q 127 860 109 812 q 178 939 146 908 q 253 984 210 970 q 345 999 296 999 q 392 996 369 999 q 431 990 415 994 l 431 901 q 393 906 412 905 q 360 907 374 907 q 298 899 326 907 q 252 870 271 890 q 223 820 233 851 q 214 743 214 788 l 214 0 l 109 0 l 109 743 z "},"ť":{"ha":482,"x_min":10,"x_max":512,"o":"m 441 -1 q 400 -12 428 -7 q 334 -17 372 -16 q 245 -4 283 -17 q 183 32 208 8 q 146 88 159 55 q 134 162 134 121 l 134 554 l 10 554 l 10 644 l 134 644 l 134 821 l 239 821 l 239 644 l 432 644 l 432 554 l 239 554 l 239 178 q 246 137 239 156 q 266 104 252 118 q 302 82 280 90 q 354 75 323 75 q 398 78 375 75 q 441 87 422 81 l 441 -1 m 413 844 q 397 883 413 871 q 356 895 381 895 l 356 982 q 377 983 367 983 q 475 954 438 983 q 512 870 512 924 q 499 802 512 836 q 458 732 486 769 l 361 732 q 398 791 383 764 q 413 844 413 819 m 402 644 z "},"ţ":{"ha":482,"x_min":10,"x_max":441,"o":"m 441 -1 q 400 -12 428 -7 q 334 -17 372 -16 q 245 -4 283 -17 q 183 32 208 8 q 146 88 159 55 q 134 162 134 121 l 134 554 l 10 554 l 10 644 l 134 644 l 134 821 l 239 821 l 239 644 l 432 644 l 432 554 l 239 554 l 239 178 q 246 137 239 156 q 266 104 252 118 q 302 82 280 90 q 354 75 323 75 q 398 78 375 75 q 441 87 422 81 l 441 -1 m 248 -220 q 232 -182 248 -194 q 191 -170 216 -170 l 191 -83 q 210 -82 201 -82 q 310 -111 273 -82 q 347 -195 347 -140 q 334 -262 347 -229 q 293 -332 321 -296 l 196 -332 q 233 -272 219 -300 q 248 -220 248 -243 z "},"ŧ":{"ha":482,"x_min":10,"x_max":441,"o":"m 441 -1 q 398 -12 427 -7 q 334 -17 368 -17 q 245 -4 283 -17 q 183 32 208 8 q 146 88 159 55 q 134 162 134 121 l 134 317 l 10 317 l 10 408 l 134 408 l 134 554 l 10 554 l 10 644 l 134 644 l 134 821 l 239 821 l 239 644 l 432 644 l 432 554 l 239 554 l 239 408 l 397 408 l 397 317 l 239 317 l 239 178 q 246 137 239 156 q 266 104 252 119 q 302 82 280 90 q 354 75 324 75 q 398 78 374 75 q 441 87 422 81 l 441 -1 z "},"ù":{"ha":719,"x_min":69,"x_max":624,"o":"m 357 -17 q 267 -6 307 -17 q 197 24 227 5 q 146 72 167 44 q 113 132 125 99 q 99 185 103 156 q 95 249 95 214 l 95 644 l 200 644 l 200 250 q 214 160 200 196 q 267 96 231 119 q 359 73 303 73 q 455 98 419 73 q 507 168 492 124 q 519 250 519 201 l 519 644 l 624 644 l 624 248 q 620 188 624 216 q 608 136 616 159 q 575 74 596 102 q 522 26 553 46 q 450 -6 491 5 q 357 -17 409 -17 m 324 999 l 408 762 l 319 762 l 210 999 l 324 999 m 69 644 z "},"ú":{"ha":719,"x_min":95,"x_max":624,"o":"m 357 -17 q 267 -6 307 -17 q 197 24 227 5 q 146 72 167 44 q 113 132 125 99 q 99 185 103 156 q 95 249 95 214 l 95 644 l 200 644 l 200 250 q 214 160 200 196 q 267 96 231 119 q 359 73 303 73 q 455 98 419 73 q 507 168 492 124 q 519 250 519 201 l 519 644 l 624 644 l 624 248 q 620 188 624 216 q 608 136 616 159 q 575 74 596 102 q 522 26 553 46 q 450 -6 491 5 q 357 -17 409 -17 m 511 999 l 402 762 l 314 762 l 397 999 l 511 999 m 168 644 z "},"û":{"ha":719,"x_min":95,"x_max":624,"o":"m 357 -17 q 267 -6 307 -17 q 197 24 227 5 q 146 72 167 44 q 113 132 125 99 q 99 185 103 156 q 95 249 95 214 l 95 644 l 200 644 l 200 250 q 214 160 200 196 q 267 96 231 119 q 359 73 303 73 q 455 98 419 73 q 507 168 492 124 q 519 250 519 201 l 519 644 l 624 644 l 624 248 q 620 188 624 216 q 608 136 616 159 q 575 74 596 102 q 522 26 553 46 q 450 -6 491 5 q 357 -17 409 -17 m 414 999 l 556 762 l 461 762 l 361 929 l 359 929 l 260 762 l 165 762 l 307 999 l 414 999 m 123 644 z "},"ũ":{"ha":719,"x_min":95,"x_max":624,"o":"m 357 -17 q 267 -6 307 -17 q 197 24 227 5 q 146 72 167 44 q 113 132 125 99 q 99 185 103 156 q 95 249 95 214 l 95 644 l 200 644 l 200 250 q 214 160 200 196 q 267 96 231 119 q 359 73 303 73 q 455 98 419 73 q 507 168 492 124 q 519 250 519 201 l 519 644 l 624 644 l 624 248 q 620 188 624 216 q 608 136 616 159 q 575 74 596 102 q 522 26 553 46 q 450 -6 491 5 q 357 -17 409 -17 m 151 799 l 151 814 q 156 860 151 838 q 174 902 161 883 q 210 931 187 920 q 264 943 232 943 q 319 933 292 943 q 368 911 345 923 q 411 888 390 899 q 449 878 433 878 q 480 893 470 878 q 490 937 490 908 l 572 937 l 572 922 q 567 876 572 899 q 549 834 562 853 q 513 805 536 816 q 458 793 491 793 q 404 803 431 793 q 355 825 378 813 q 312 848 333 838 q 274 858 290 858 q 243 843 253 858 q 233 799 233 828 l 151 799 m 124 644 z "},"ü":{"ha":719,"x_min":95,"x_max":624,"o":"m 357 -17 q 267 -6 307 -17 q 197 24 227 5 q 146 72 167 44 q 113 132 125 99 q 99 185 103 156 q 95 249 95 214 l 95 644 l 200 644 l 200 250 q 214 160 200 196 q 267 96 231 119 q 359 73 303 73 q 455 98 419 73 q 507 168 492 124 q 519 250 519 201 l 519 644 l 624 644 l 624 248 q 620 188 624 216 q 608 136 616 159 q 575 74 596 102 q 522 26 553 46 q 450 -6 491 5 q 357 -17 409 -17 m 176 794 l 176 907 l 284 907 l 284 794 l 176 794 m 435 794 l 435 907 l 543 907 l 543 794 l 435 794 m 122 644 z "},"ū":{"ha":719,"x_min":95,"x_max":624,"o":"m 357 -17 q 267 -6 307 -17 q 197 24 227 5 q 146 72 167 44 q 113 132 125 99 q 99 185 103 156 q 95 249 95 214 l 95 644 l 200 644 l 200 250 q 214 160 200 196 q 267 96 231 119 q 359 73 303 73 q 455 98 419 73 q 507 168 492 124 q 519 250 519 201 l 519 644 l 624 644 l 624 248 q 620 188 624 216 q 608 136 616 159 q 575 74 596 102 q 522 26 553 46 q 450 -6 491 5 q 357 -17 409 -17 m 177 882 l 543 882 l 543 794 l 177 794 l 177 882 m 123 644 z "},"ŭ":{"ha":719,"x_min":95,"x_max":624,"o":"m 357 -17 q 267 -6 307 -17 q 197 24 227 5 q 146 72 167 44 q 113 132 125 99 q 99 185 103 156 q 95 249 95 214 l 95 644 l 200 644 l 200 250 q 214 160 200 196 q 267 96 231 119 q 359 73 303 73 q 455 98 419 73 q 507 168 492 124 q 519 250 519 201 l 519 644 l 624 644 l 624 248 q 620 188 624 216 q 608 136 616 159 q 575 74 596 102 q 522 26 553 46 q 450 -6 491 5 q 357 -17 409 -17 m 357 852 q 436 881 407 852 q 475 971 466 909 l 564 971 q 547 891 562 928 q 506 828 532 854 q 443 786 480 801 q 357 770 405 770 q 271 786 309 770 q 207 828 233 801 q 166 891 181 854 q 149 971 152 928 l 238 971 q 277 881 248 909 q 357 852 307 852 m 119 644 z "},"ů":{"ha":719,"x_min":95,"x_max":624,"o":"m 357 -17 q 267 -6 307 -17 q 197 24 227 5 q 146 72 167 44 q 113 132 125 99 q 99 185 103 156 q 95 249 95 214 l 95 644 l 200 644 l 200 250 q 214 160 200 196 q 267 96 231 119 q 359 73 303 73 q 455 98 419 73 q 507 168 492 124 q 519 250 519 201 l 519 644 l 624 644 l 624 248 q 620 188 624 216 q 608 136 616 159 q 575 74 596 102 q 522 26 553 46 q 450 -6 491 5 q 357 -17 409 -17 m 360 746 q 299 755 328 746 q 250 781 271 764 q 217 823 229 798 q 205 878 205 847 q 217 934 205 909 q 250 975 229 958 q 299 1001 271 992 q 360 1010 328 1010 q 421 1001 393 1010 q 470 975 450 992 q 503 934 491 958 q 515 878 515 909 q 503 823 515 847 q 470 781 491 798 q 421 755 450 764 q 360 746 393 746 m 360 944 q 309 927 330 944 q 288 878 288 910 q 309 829 288 846 q 360 812 330 812 q 411 829 391 812 q 432 878 432 846 q 411 927 432 910 q 360 944 391 944 m 123 644 z "},"ű":{"ha":719,"x_min":95,"x_max":624,"o":"m 357 -17 q 267 -6 307 -17 q 197 24 227 5 q 146 72 167 44 q 113 132 125 99 q 99 185 103 156 q 95 249 95 214 l 95 644 l 200 644 l 200 250 q 214 160 200 196 q 267 96 231 119 q 359 73 303 73 q 455 98 419 73 q 507 168 492 124 q 519 250 519 201 l 519 644 l 624 644 l 624 248 q 620 188 624 216 q 608 136 616 159 q 575 74 596 102 q 522 26 553 46 q 450 -6 491 5 q 357 -17 409 -17 m 405 999 l 298 762 l 211 762 l 294 999 l 405 999 m 616 999 l 496 762 l 408 762 l 505 999 l 616 999 m 170 644 z "},"ų":{"ha":719,"x_min":95,"x_max":624,"o":"m 435 3 q 394 -11 417 -5 q 342 -16 370 -16 q 264 -5 300 -16 q 198 24 227 5 q 146 71 168 43 q 113 132 125 98 q 99 185 103 156 q 95 249 95 214 l 95 644 l 200 644 l 200 250 q 214 160 200 196 q 267 96 231 119 q 359 73 304 73 q 455 98 418 73 q 507 168 492 123 q 519 250 519 201 l 519 644 l 624 644 l 624 248 q 615 169 624 203 q 591 106 607 135 q 553 49 575 77 q 503 -12 530 21 q 471 -51 486 -31 q 444 -90 456 -70 q 426 -132 433 -111 q 419 -178 419 -154 q 438 -226 419 -211 q 489 -241 456 -241 q 529 -237 508 -241 q 575 -225 550 -233 l 575 -312 q 529 -327 555 -321 q 469 -332 502 -332 q 409 -325 436 -332 q 363 -301 382 -317 q 333 -262 344 -286 q 322 -208 322 -239 q 331 -151 322 -180 q 354 -95 339 -122 q 391 -43 370 -67 q 436 1 412 -18 l 435 3 z "},"ẁ":{"ha":989,"x_min":27,"x_max":962,"o":"m 492 538 q 453 385 471 449 l 347 0 l 239 0 l 27 644 l 134 644 l 253 243 q 289 116 277 163 l 292 116 q 328 257 302 165 l 435 644 l 553 644 l 661 257 q 697 116 683 178 l 700 116 q 736 243 716 178 l 855 644 l 962 644 l 749 0 l 640 0 l 534 385 q 495 538 515 453 l 492 538 m 456 999 l 539 762 l 451 762 l 342 999 l 456 999 m 201 644 z "},"ẃ":{"ha":989,"x_min":27,"x_max":962,"o":"m 492 538 q 453 385 471 449 l 347 0 l 239 0 l 27 644 l 134 644 l 253 243 q 289 116 277 163 l 292 116 q 328 257 302 165 l 435 644 l 553 644 l 661 257 q 697 116 683 178 l 700 116 q 736 243 716 178 l 855 644 l 962 644 l 749 0 l 640 0 l 534 385 q 495 538 515 453 l 492 538 m 651 999 l 542 762 l 454 762 l 537 999 l 651 999 m 308 644 z "},"ŵ":{"ha":989,"x_min":27,"x_max":962,"o":"m 492 538 q 453 385 471 449 l 347 0 l 239 0 l 27 644 l 134 644 l 253 243 q 289 116 277 163 l 292 116 q 328 257 302 165 l 435 644 l 553 644 l 661 257 q 697 116 683 178 l 700 116 q 736 243 716 178 l 855 644 l 962 644 l 749 0 l 640 0 l 534 385 q 495 538 515 453 l 492 538 m 547 999 l 689 762 l 594 762 l 494 929 l 492 929 l 393 762 l 298 762 l 440 999 l 547 999 m 256 644 z "},"ẅ":{"ha":989,"x_min":27,"x_max":962,"o":"m 492 538 q 453 385 471 449 l 347 0 l 239 0 l 27 644 l 134 644 l 253 243 q 289 116 277 163 l 292 116 q 328 257 302 165 l 435 644 l 553 644 l 661 257 q 697 116 683 178 l 700 116 q 736 243 716 178 l 855 644 l 962 644 l 749 0 l 640 0 l 534 385 q 495 538 515 453 l 492 538 m 311 794 l 311 907 l 419 907 l 419 794 l 311 794 m 570 794 l 570 907 l 677 907 l 677 794 l 570 794 m 257 644 z "},"ỳ":{"ha":666,"x_min":20,"x_max":646,"o":"m 20 644 l 128 644 l 328 139 l 332 139 l 535 644 l 646 644 l 243 -315 l 139 -315 l 277 13 l 20 644 m 304 999 l 387 762 l 299 762 l 190 999 l 304 999 m 49 644 z "},"ý":{"ha":666,"x_min":20,"x_max":646,"o":"m 20 644 l 128 644 l 328 139 l 332 139 l 535 644 l 646 644 l 243 -315 l 139 -315 l 277 13 l 20 644 m 477 999 l 368 762 l 279 762 l 363 999 l 477 999 m 134 644 z "},"ŷ":{"ha":666,"x_min":20,"x_max":646,"o":"m 20 644 l 128 644 l 328 139 l 332 139 l 535 644 l 646 644 l 243 -315 l 139 -315 l 277 13 l 20 644 m 383 999 l 526 762 l 431 762 l 331 929 l 328 929 l 229 762 l 134 762 l 277 999 l 383 999 m 93 644 z "},"ÿ":{"ha":666,"x_min":20,"x_max":646,"o":"m 20 644 l 128 644 l 328 139 l 332 139 l 535 644 l 646 644 l 243 -315 l 139 -315 l 277 13 l 20 644 m 147 794 l 147 907 l 255 907 l 255 794 l 147 794 m 406 794 l 406 907 l 513 907 l 513 794 l 406 794 m 93 644 z "},"ź":{"ha":617,"x_min":47,"x_max":570,"o":"m 412 551 l 412 554 l 58 554 l 58 644 l 546 644 l 546 578 l 188 93 l 188 90 l 570 90 l 570 0 l 47 0 l 47 57 l 412 551 m 441 999 l 332 762 l 243 762 l 327 999 l 441 999 m 98 644 z "},"ž":{"ha":617,"x_min":47,"x_max":570,"o":"m 412 551 l 412 554 l 58 554 l 58 644 l 546 644 l 546 578 l 188 93 l 188 90 l 570 90 l 570 0 l 47 0 l 47 57 l 412 551 m 245 762 l 102 999 l 197 999 l 297 832 l 300 832 l 399 999 l 494 999 l 351 762 l 245 762 m 60 644 z "},"ż":{"ha":617,"x_min":47,"x_max":570,"o":"m 412 551 l 412 554 l 58 554 l 58 644 l 546 644 l 546 578 l 188 93 l 188 90 l 570 90 l 570 0 l 47 0 l 47 57 l 412 551 m 243 794 l 243 911 l 354 911 l 354 794 l 243 794 m 62 644 z "},"ŋ":{"ha":732,"x_min":102,"x_max":631,"o":"m 418 -280 q 387 -279 402 -280 q 357 -275 371 -277 l 357 -184 q 381 -187 369 -186 q 406 -189 393 -189 q 498 -163 470 -189 q 526 -81 526 -138 l 526 414 q 493 534 526 498 q 399 571 461 571 q 294 541 345 571 q 207 458 243 511 l 207 0 l 102 0 l 102 644 l 183 644 l 203 555 l 205 555 q 244 596 223 577 q 292 630 266 616 q 350 653 319 645 q 419 661 382 661 q 502 649 463 661 q 569 610 541 637 q 614 539 597 583 q 631 431 631 495 l 631 -88 q 618 -169 631 -133 q 580 -229 606 -204 q 514 -267 554 -254 q 418 -280 473 -280 z "},"ð":{"ha":730,"x_min":64,"x_max":656,"o":"m 604 827 l 473 791 q 543 690 510 744 q 602 578 576 637 q 641 456 627 519 q 656 325 656 392 q 636 189 656 251 q 578 80 616 126 q 486 9 541 35 q 363 -17 431 -17 q 237 6 292 -17 q 143 72 181 30 q 84 173 104 114 q 64 304 64 233 q 85 437 64 377 q 144 539 106 496 q 232 606 181 582 q 341 629 282 629 q 433 613 394 629 q 504 566 472 597 l 506 568 q 447 669 480 619 q 374 765 413 718 l 195 716 l 172 800 l 310 838 q 234 914 272 878 q 159 982 195 950 l 290 982 q 349 929 318 958 q 410 865 379 900 l 581 912 l 604 827 m 548 317 q 531 421 548 378 q 488 491 515 465 q 428 528 461 517 q 361 540 395 540 q 285 524 319 540 q 226 478 251 508 q 188 404 201 448 q 174 304 174 360 q 188 206 174 250 q 227 133 202 163 q 287 88 252 104 q 363 73 321 73 q 438 90 404 73 q 497 139 473 107 q 535 216 522 171 q 548 317 548 261 z "},"þ":{"ha":737,"x_min":102,"x_max":673,"o":"m 673 332 q 660 212 673 264 q 625 121 646 160 q 574 56 603 82 q 513 13 545 29 q 450 -10 482 -3 q 389 -17 418 -17 q 287 2 331 -17 q 209 60 243 22 l 207 60 l 207 -315 l 102 -315 l 102 982 l 207 982 l 207 584 l 209 584 q 289 642 243 622 q 394 661 335 661 q 453 655 422 661 q 515 634 484 648 q 574 594 546 619 q 625 533 603 570 q 660 446 647 496 q 673 332 673 396 m 562 326 q 544 449 562 400 q 497 525 526 498 q 436 562 469 552 q 374 571 404 571 q 282 551 325 571 q 207 498 240 531 l 207 146 q 282 92 240 112 q 374 73 325 73 q 436 84 404 73 q 497 123 469 95 q 544 202 526 152 q 562 326 562 252 z "},"ⁿ":{"ha":571,"x_min":75,"x_max":496,"o":"m 169 763 l 172 763 q 239 820 200 797 q 333 844 278 842 q 394 834 365 844 q 446 804 423 825 q 483 748 469 783 q 496 663 496 713 l 496 348 l 400 348 l 400 657 q 377 733 400 707 q 309 759 353 759 q 234 736 269 759 q 171 673 199 713 l 171 348 l 75 348 l 75 831 l 157 831 l 169 763 z "},"ﬀ":{"ha":839,"x_min":20,"x_max":873,"o":"m 370 999 q 417 996 394 999 q 456 990 441 994 l 456 901 q 416 906 434 905 q 385 907 399 907 q 323 899 351 907 q 277 870 296 890 q 249 820 258 851 q 239 743 239 788 l 239 644 l 531 644 l 531 745 q 550 860 531 812 q 601 939 568 908 q 677 984 633 970 q 772 999 722 999 q 832 996 805 999 q 873 988 860 992 l 873 899 q 828 905 852 903 q 786 907 804 907 q 723 899 751 907 q 675 870 694 890 q 646 820 656 851 q 636 743 636 788 l 636 644 l 828 644 l 828 554 l 636 554 l 636 0 l 531 0 l 531 554 l 239 554 l 239 0 l 134 0 l 134 554 l 20 554 l 20 644 l 134 644 l 134 745 q 152 860 134 812 q 203 939 171 908 q 278 984 235 970 q 370 999 321 999 z "},"ﬁ":{"ha":745,"x_min":20,"x_max":636,"o":"m 239 554 l 239 0 l 134 0 l 134 554 l 20 554 l 20 644 l 134 644 l 134 720 q 159 849 134 796 q 226 936 184 903 q 321 984 268 969 q 431 999 375 999 q 474 997 452 999 q 517 992 496 996 q 558 985 538 989 q 593 977 578 981 l 593 887 q 519 902 554 897 q 444 907 484 907 q 291 861 344 907 q 239 718 239 814 l 239 644 l 636 644 l 636 0 l 531 0 l 531 554 l 239 554 z "},"ﬃ":{"ha":1142,"x_min":20,"x_max":1034,"o":"m 636 554 l 636 0 l 531 0 l 531 554 l 239 554 l 239 0 l 134 0 l 134 554 l 20 554 l 20 644 l 134 644 l 134 745 q 152 860 134 812 q 203 939 171 908 q 278 984 235 970 q 370 999 321 999 q 417 996 394 999 q 456 990 441 994 l 456 901 q 416 906 434 905 q 385 907 399 907 q 323 899 351 907 q 277 870 296 890 q 249 820 258 851 q 239 743 239 788 l 239 644 l 531 644 l 531 720 q 556 849 531 796 q 624 936 582 903 q 719 984 665 969 q 829 999 772 999 q 871 997 849 999 q 915 992 893 996 q 956 985 936 989 q 990 977 975 981 l 990 887 q 916 902 951 897 q 842 907 880 907 q 689 861 741 907 q 636 718 636 814 l 636 644 l 1034 644 l 1034 0 l 928 0 l 928 554 l 636 554 z "},"ﬂ":{"ha":745,"x_min":20,"x_max":636,"o":"m 431 554 l 239 554 l 239 0 l 134 0 l 134 554 l 20 554 l 20 644 l 134 644 l 134 720 q 159 848 134 795 q 226 935 184 901 q 322 984 268 968 q 434 999 376 999 q 492 996 464 999 q 547 989 521 994 q 596 980 574 985 q 636 969 619 975 l 636 0 l 531 0 l 531 897 q 488 905 509 902 q 445 907 466 907 q 291 861 344 907 q 239 718 239 814 l 239 644 l 431 644 l 431 554 z "},"ﬄ":{"ha":1142,"x_min":20,"x_max":1034,"o":"m 828 554 l 636 554 l 636 0 l 531 0 l 531 554 l 239 554 l 239 0 l 134 0 l 134 554 l 20 554 l 20 644 l 134 644 l 134 745 q 152 860 134 812 q 203 939 171 908 q 278 984 235 970 q 370 999 321 999 q 417 996 394 999 q 456 990 441 994 l 456 901 q 417 906 435 905 q 385 907 399 907 q 323 899 351 907 q 277 870 296 890 q 249 820 258 851 q 239 743 239 788 l 239 644 l 531 644 l 531 720 q 556 848 531 795 q 624 935 582 901 q 720 984 665 968 q 831 999 774 999 q 890 996 861 999 q 945 989 918 994 q 994 980 971 985 q 1034 969 1017 975 l 1034 0 l 928 0 l 928 899 q 885 905 907 903 q 842 907 863 907 q 689 861 741 907 q 636 718 636 814 l 636 644 l 828 644 l 828 554 z "},"&":{"ha":930,"x_min":68,"x_max":862,"o":"m 833 472 q 800 294 832 374 q 714 152 768 214 q 769 96 743 122 q 814 49 794 69 q 846 16 833 28 q 862 0 859 3 l 728 0 q 702 26 726 3 q 644 86 679 50 q 502 9 578 36 q 348 -17 426 -17 q 220 3 273 -17 q 133 57 167 24 q 83 133 99 90 q 68 219 68 175 q 83 312 68 272 q 124 383 98 352 q 184 438 151 414 q 255 482 218 462 q 204 534 228 508 q 162 587 180 559 q 134 646 144 615 q 123 713 123 677 q 141 803 123 764 q 193 869 159 842 q 272 910 226 896 q 374 924 318 924 q 470 911 426 924 q 548 873 515 899 q 600 810 581 848 q 618 724 618 773 q 601 635 618 673 q 554 566 583 597 q 488 512 525 536 q 410 466 450 488 q 461 414 433 443 q 520 353 489 385 q 583 288 551 321 q 648 221 616 254 q 703 328 682 267 q 725 472 724 390 l 833 472 m 348 73 q 402 77 373 73 q 460 91 431 81 q 520 115 490 100 q 578 151 551 130 q 511 220 546 184 q 442 291 476 256 q 376 358 408 326 q 320 416 345 390 q 264 379 290 399 q 219 338 239 360 q 189 288 200 315 q 178 227 178 261 q 188 170 178 197 q 219 120 198 142 q 272 85 240 98 q 348 73 304 73 m 233 713 q 241 666 233 688 q 263 622 248 644 q 298 578 277 600 q 347 529 319 555 q 409 564 379 546 q 460 604 438 583 q 496 653 483 626 q 509 715 509 680 q 498 769 509 747 q 470 806 488 791 q 426 828 452 821 q 370 835 401 835 q 270 804 307 835 q 233 713 233 772 z "},"`":{"ha":475,"x_min":0,"x_max":338,"o":"m 255 999 l 338 762 l 250 762 l 141 999 l 255 999 m 0 644 z "},"̀":{"ha":0,"x_min":-630,"x_max":-292,"o":"m -375 999 l -292 762 l -380 762 l -489 999 l -375 999 m -630 644 z "},"´":{"ha":475,"x_min":0,"x_max":343,"o":"m 343 999 l 234 762 l 146 762 l 229 999 l 343 999 m 0 644 z "},"́":{"ha":0,"x_min":-543,"x_max":-199,"o":"m -199 999 l -309 762 l -397 762 l -313 999 l -199 999 m -543 644 z "},"ˆ":{"ha":475,"x_min":0,"x_max":433,"o":"m 290 999 l 433 762 l 338 762 l 238 929 l 235 929 l 136 762 l 41 762 l 184 999 l 290 999 m 0 644 z "},"̂":{"ha":0,"x_min":-583,"x_max":-150,"o":"m -292 999 l -150 762 l -245 762 l -345 929 l -347 929 l -446 762 l -541 762 l -399 999 l -292 999 m -583 644 z "},"ˇ":{"ha":475,"x_min":0,"x_max":433,"o":"m 184 762 l 42 999 l 137 999 l 237 832 l 239 832 l 338 999 l 433 999 l 291 762 l 184 762 m 0 644 z "},"̌":{"ha":0,"x_min":-590,"x_max":-157,"o":"m -406 762 l -548 999 l -453 999 l -353 832 l -351 832 l -252 999 l -157 999 l -299 762 l -406 762 m -590 644 z "},"̕":{"ha":72,"x_min":-46,"x_max":110,"o":"m 11 844 q -5 883 11 871 q -46 895 -21 895 l -46 982 q -25 983 -35 983 q 73 954 36 983 q 110 870 110 924 q 97 802 110 836 q 56 732 84 769 l -41 732 q -4 791 -19 764 q 11 844 11 819 m 0 644 z "},"˜":{"ha":475,"x_min":0,"x_max":448,"o":"m 26 799 l 26 814 q 32 860 26 838 q 50 902 37 883 q 85 931 63 920 q 140 943 108 943 q 195 933 168 943 q 243 911 221 923 q 287 888 266 899 q 325 878 309 878 q 356 893 346 878 q 366 937 366 908 l 448 937 l 448 922 q 443 876 448 899 q 425 834 438 853 q 389 805 412 816 q 334 793 367 793 q 280 803 307 793 q 231 825 254 813 q 188 848 209 838 q 150 858 166 858 q 119 843 129 858 q 109 799 109 828 l 26 799 m 0 644 z "},"̃":{"ha":0,"x_min":-581,"x_max":-133,"o":"m -555 799 l -555 814 q -550 860 -555 838 q -531 902 -545 883 q -496 931 -518 920 q -441 943 -473 943 q -387 933 -413 943 q -338 911 -360 923 q -294 888 -315 899 q -256 878 -273 878 q -225 893 -235 878 q -216 937 -216 908 l -133 937 l -133 922 q -138 876 -133 899 q -156 834 -143 853 q -192 805 -170 816 q -247 793 -214 793 q -301 803 -275 793 q -350 825 -328 813 q -394 848 -372 838 q -431 858 -415 858 q -462 843 -452 858 q -472 799 -472 828 l -555 799 m -581 644 z "},"¨":{"ha":475,"x_min":0,"x_max":420,"o":"m 54 794 l 54 907 l 162 907 l 162 794 l 54 794 m 313 794 l 313 907 l 420 907 l 420 794 l 313 794 m 0 644 z "},"̈":{"ha":0,"x_min":-581,"x_max":-161,"o":"m -527 794 l -527 907 l -419 907 l -419 794 l -527 794 m -269 794 l -269 907 l -161 907 l -161 794 l -269 794 m -581 644 z "},"¯":{"ha":475,"x_min":0,"x_max":420,"o":"m 54 882 l 420 882 l 420 794 l 54 794 l 54 882 m 0 644 z "},"̄":{"ha":0,"x_min":-584,"x_max":-163,"o":"m -530 882 l -163 882 l -163 794 l -530 794 l -530 882 m -584 644 z "},"˘":{"ha":475,"x_min":0,"x_max":445,"o":"m 237 852 q 317 881 288 852 q 356 971 347 909 l 445 971 q 428 891 442 928 q 387 828 413 854 q 323 786 361 801 q 237 770 286 770 q 152 786 189 770 q 88 828 114 801 q 47 891 62 854 q 30 971 33 928 l 119 971 q 158 881 128 909 q 237 852 187 852 m 0 644 z "},"̆":{"ha":0,"x_min":-572,"x_max":-127,"o":"m -335 852 q -255 881 -285 852 q -216 971 -226 909 l -127 971 q -145 891 -130 928 q -185 828 -159 854 q -249 786 -212 801 q -335 770 -287 770 q -421 786 -383 770 q -485 828 -458 801 q -525 891 -511 854 q -543 971 -540 928 l -454 971 q -415 881 -444 909 q -335 852 -385 852 m -572 644 z "},"˚":{"ha":475,"x_min":0,"x_max":393,"o":"m 237 746 q 176 755 205 746 q 127 781 148 764 q 94 823 106 798 q 82 878 82 847 q 94 934 82 909 q 127 975 106 958 q 176 1001 148 992 q 237 1010 205 1010 q 298 1001 270 1010 q 348 975 327 992 q 380 934 368 958 q 393 878 393 909 q 380 823 393 847 q 348 781 368 798 q 298 755 327 764 q 237 746 270 746 m 237 944 q 186 927 207 944 q 165 878 165 910 q 186 829 165 846 q 237 812 207 812 q 289 829 268 812 q 309 878 309 846 q 289 927 309 910 q 237 944 268 944 m 0 644 z "},"̊":{"ha":0,"x_min":-591,"x_max":-199,"o":"m -354 746 q -415 755 -387 746 q -464 781 -444 764 q -497 823 -485 798 q -509 878 -509 847 q -497 934 -509 909 q -464 975 -485 958 q -415 1001 -444 992 q -354 1010 -387 1010 q -293 1001 -321 1010 q -244 975 -264 992 q -211 934 -223 958 q -199 878 -199 909 q -211 823 -199 847 q -244 781 -223 798 q -293 755 -264 764 q -354 746 -321 746 m -354 944 q -405 927 -385 944 q -426 878 -426 910 q -405 829 -426 846 q -354 812 -385 812 q -303 829 -323 812 q -282 878 -282 846 q -303 927 -282 910 q -354 944 -323 944 m -591 644 z "},"˝":{"ha":475,"x_min":0,"x_max":446,"o":"m 235 999 l 128 762 l 41 762 l 124 999 l 235 999 m 446 999 l 326 762 l 237 762 l 334 999 l 446 999 m 0 644 z "},"̋":{"ha":0,"x_min":-559,"x_max":-114,"o":"m -325 999 l -431 762 l -519 762 l -435 999 l -325 999 m -114 999 l -234 762 l -322 762 l -225 999 l -114 999 m -559 644 z "},"˙":{"ha":475,"x_min":0,"x_max":292,"o":"m 182 794 l 182 911 l 292 911 l 292 794 l 182 794 m 0 644 z "},"̇":{"ha":0,"x_min":-594,"x_max":-302,"o":"m -412 794 l -412 911 l -302 911 l -302 794 l -412 794 m -594 644 z "},"¸":{"ha":475,"x_min":103,"x_max":381,"o":"m 199 0 l 282 0 l 258 -85 q 308 -98 286 -90 q 347 -120 331 -106 q 372 -153 363 -134 q 381 -197 381 -172 q 366 -258 381 -233 q 324 -300 350 -283 q 264 -325 298 -317 q 193 -332 230 -332 q 141 -329 164 -332 q 103 -319 117 -325 l 103 -243 q 137 -250 117 -247 q 184 -254 158 -254 q 222 -252 203 -254 q 255 -243 240 -250 q 280 -226 271 -237 q 289 -199 289 -215 q 279 -175 289 -185 q 253 -159 270 -165 q 211 -150 235 -153 q 155 -146 186 -147 l 199 0 z "},"̧":{"ha":0,"x_min":-425,"x_max":-147,"o":"m -329 0 l -246 0 l -270 -85 q -220 -98 -243 -90 q -181 -120 -197 -106 q -156 -153 -165 -134 q -147 -197 -147 -172 q -163 -258 -147 -233 q -204 -300 -178 -283 q -264 -325 -231 -317 q -335 -332 -298 -332 q -388 -329 -364 -332 q -425 -319 -411 -325 l -425 -243 q -391 -250 -412 -247 q -345 -254 -370 -254 q -307 -252 -325 -254 q -273 -243 -288 -250 q -249 -226 -258 -237 q -239 -199 -239 -215 q -249 -175 -239 -185 q -276 -159 -258 -165 q -318 -150 -293 -153 q -373 -146 -342 -147 l -329 0 z "},"˛":{"ha":475,"x_min":121,"x_max":391,"o":"m 391 20 q 336 -22 366 2 q 279 -74 305 -46 q 235 -131 253 -102 q 218 -188 218 -160 q 279 -241 218 -241 q 321 -237 300 -241 q 368 -225 342 -233 l 368 -312 q 320 -327 348 -321 q 260 -332 292 -332 q 157 -302 193 -332 q 121 -214 121 -272 q 137 -144 121 -178 q 178 -81 153 -111 q 233 -26 203 -52 q 293 20 264 -1 l 391 20 z "},"̨":{"ha":0,"x_min":-379,"x_max":-109,"o":"m -109 20 q -164 -22 -134 2 q -221 -74 -195 -46 q -264 -131 -247 -102 q -282 -188 -282 -160 q -220 -241 -282 -241 q -179 -237 -200 -241 q -132 -225 -157 -233 l -132 -312 q -180 -327 -152 -321 q -240 -332 -208 -332 q -343 -302 -307 -332 q -379 -214 -379 -272 q -363 -144 -379 -178 q -322 -81 -347 -111 q -267 -26 -297 -52 q -207 20 -236 -1 l -109 20 z "},"̦":{"ha":475,"x_min":175,"x_max":331,"o":"m 232 -220 q 216 -182 232 -194 q 175 -170 200 -170 l 175 -83 q 194 -82 185 -82 q 294 -111 257 -82 q 331 -195 331 -140 q 318 -262 331 -229 q 277 -332 305 -296 l 180 -332 q 218 -272 203 -300 q 232 -220 232 -243 z "},"̒":{"ha":0,"x_min":-453,"x_max":0,"o":"m -354 887 q -338 849 -354 861 q -297 837 -322 837 l -297 749 q -316 749 -307 749 q -416 777 -378 749 q -453 861 -453 806 q -440 929 -453 896 q -399 999 -427 962 l -302 999 q -339 940 -324 968 q -354 887 -354 912 m 0 644 z "},",":{"ha":366,"x_min":14,"x_max":244,"o":"m 127 148 l 244 148 l 116 -264 l 14 -264 l 127 148 z "},";":{"ha":370,"x_min":14,"x_max":248,"o":"m 127 148 l 244 148 l 116 -264 l 14 -264 l 127 148 m 248 547 l 248 415 l 119 415 l 119 547 l 248 547 z "},":":{"ha":367,"x_min":119,"x_max":248,"o":"m 119 0 l 119 132 l 248 132 l 248 0 l 119 0 m 248 547 l 248 415 l 119 415 l 119 547 l 248 547 z "},".":{"ha":367,"x_min":119,"x_max":248,"o":"m 119 0 l 119 132 l 248 132 l 248 0 l 119 0 z "},"…":{"ha":1101,"x_min":119,"x_max":982,"o":"m 119 0 l 119 132 l 248 132 l 248 0 l 119 0 m 486 0 l 486 132 l 615 132 l 615 0 l 486 0 m 852 0 l 852 132 l 982 132 l 982 0 l 852 0 z "},"-":{"ha":462,"x_min":81,"x_max":380,"o":"m 81 387 l 380 387 l 380 289 l 81 289 l 81 387 z "},"!":{"ha":367,"x_min":119,"x_max":248,"o":"m 119 0 l 119 132 l 248 132 l 248 0 l 119 0 m 244 907 l 228 292 l 139 292 l 123 907 l 244 907 z "},"¡":{"ha":367,"x_min":119,"x_max":248,"o":"m 248 644 l 248 512 l 119 512 l 119 644 l 248 644 m 228 352 l 244 -263 l 123 -263 l 139 352 l 228 352 z "},"?":{"ha":592,"x_min":54,"x_max":524,"o":"m 151 0 l 151 132 l 281 132 l 281 0 l 151 0 m 524 711 q 511 638 524 671 q 478 581 498 606 q 432 535 457 555 q 380 494 406 514 q 337 457 358 476 q 299 416 315 438 q 273 365 283 393 q 263 303 263 337 l 263 292 l 170 292 q 169 322 169 312 q 182 406 169 368 q 219 471 196 443 q 270 522 243 500 q 324 564 298 543 q 359 593 342 578 q 388 625 375 608 q 407 662 400 642 q 414 707 414 682 q 402 760 414 736 q 367 800 389 784 q 312 825 344 817 q 242 834 281 834 q 142 821 191 834 q 54 791 93 808 l 54 880 q 143 912 91 900 q 247 924 195 924 q 362 909 311 924 q 449 866 414 894 q 504 799 485 838 q 524 711 524 760 z "},"¿":{"ha":592,"x_min":68,"x_max":538,"o":"m 441 644 l 441 512 l 311 512 l 311 644 l 441 644 m 68 -67 q 80 2 68 -29 q 109 57 91 33 q 151 101 127 81 q 199 140 174 121 q 247 179 223 159 q 289 222 270 199 q 318 275 307 246 q 329 341 329 304 l 329 352 l 422 352 q 423 322 423 334 q 409 235 423 272 q 370 170 394 197 q 318 120 347 142 q 262 77 290 98 q 230 48 245 63 q 203 17 214 34 q 184 -19 191 1 q 178 -62 178 -38 q 190 -116 178 -92 q 225 -156 203 -140 q 280 -181 248 -172 q 350 -190 311 -190 q 451 -177 402 -190 q 538 -146 499 -164 l 538 -236 q 449 -268 501 -256 q 345 -280 397 -280 q 230 -265 281 -280 q 143 -221 178 -250 q 88 -154 107 -193 q 68 -67 68 -115 z "},"‘":{"ha":304,"x_min":41,"x_max":257,"o":"m 41 907 l 138 907 l 257 572 l 140 572 l 41 907 z "},"’":{"ha":304,"x_min":47,"x_max":264,"o":"m 146 907 l 264 907 l 144 572 l 47 572 l 146 907 z "},"“":{"ha":549,"x_min":54,"x_max":501,"o":"m 54 907 l 151 907 l 257 572 l 140 572 l 54 907 m 284 907 l 382 907 l 501 572 l 382 572 l 284 907 z "},"”":{"ha":549,"x_min":47,"x_max":508,"o":"m 146 907 l 264 907 l 144 572 l 47 572 l 146 907 m 389 907 l 508 907 l 369 572 l 271 572 l 389 907 z "},"‚":{"ha":304,"x_min":16,"x_max":232,"o":"m 115 153 l 232 153 l 113 -182 l 16 -182 l 115 153 z "},"„":{"ha":549,"x_min":16,"x_max":476,"o":"m 115 153 l 232 153 l 113 -182 l 16 -182 l 115 153 m 357 153 l 476 153 l 337 -182 l 239 -182 l 357 153 z "},"‹":{"ha":407,"x_min":75,"x_max":353,"o":"m 75 321 l 254 576 l 353 576 l 200 321 l 353 66 l 254 66 l 75 321 z "},"›":{"ha":407,"x_min":54,"x_max":332,"o":"m 153 66 l 54 66 l 207 321 l 54 576 l 153 576 l 332 321 l 153 66 z "},"«":{"ha":676,"x_min":75,"x_max":622,"o":"m 75 321 l 273 576 l 376 576 l 200 321 l 376 66 l 273 66 l 75 321 m 344 321 l 524 576 l 622 576 l 469 321 l 622 66 l 524 66 l 344 321 z "},"»":{"ha":676,"x_min":54,"x_max":602,"o":"m 403 66 l 300 66 l 476 321 l 300 576 l 403 576 l 602 321 l 403 66 m 153 66 l 54 66 l 207 321 l 54 576 l 153 576 l 332 321 l 153 66 z "},"/":{"ha":382,"x_min":12,"x_max":370,"o":"m 12 -169 l 270 907 l 370 907 l 113 -169 l 12 -169 z "},"|":{"ha":315,"x_min":109,"x_max":207,"o":"m 207 -315 l 109 -315 l 109 982 l 207 982 l 207 -315 z "},"–":{"ha":678,"x_min":0,"x_max":678,"o":"m 0 378 l 678 378 l 678 294 l 0 294 l 0 378 z "},"—":{"ha":1153,"x_min":0,"x_max":1153,"o":"m 0 378 l 1153 378 l 1153 294 l 0 294 l 0 378 z "},"―":{"ha":1153,"x_min":0,"x_max":1153,"o":"m 0 378 l 1153 378 l 1153 294 l 0 294 l 0 378 z "},"•":{"ha":616,"x_min":95,"x_max":521,"o":"m 95 452 q 111 537 95 498 q 156 604 127 576 q 223 649 184 633 q 308 665 262 665 q 392 649 353 665 q 460 604 431 633 q 505 537 488 576 q 521 452 521 498 q 505 368 521 407 q 460 300 488 329 q 392 256 431 272 q 308 239 353 239 q 223 256 262 239 q 156 300 184 272 q 111 368 127 329 q 95 452 95 407 z "},"·":{"ha":367,"x_min":119,"x_max":248,"o":"m 119 267 l 119 399 l 248 399 l 248 267 l 119 267 z "},"(":{"ha":416,"x_min":75,"x_max":368,"o":"m 180 352 q 195 184 180 261 q 237 42 211 106 q 297 -74 262 -22 q 368 -166 331 -126 l 310 -220 q 266 -177 291 -204 q 215 -111 241 -149 q 163 -24 189 -73 q 119 82 138 24 q 87 208 99 140 q 75 352 75 276 q 87 496 75 429 q 119 622 99 564 q 163 728 138 680 q 215 815 189 777 q 266 881 241 853 q 310 924 291 908 l 368 870 q 297 778 331 830 q 237 662 262 726 q 195 520 211 597 q 180 352 180 443 z "},")":{"ha":416,"x_min":49,"x_max":342,"o":"m 237 352 q 221 520 237 443 q 180 662 205 597 q 120 778 154 726 q 49 870 85 830 l 106 924 q 151 881 125 908 q 202 815 176 853 q 253 728 228 777 q 298 622 278 680 q 330 496 317 564 q 342 352 342 429 q 330 208 342 276 q 298 82 317 140 q 253 -24 278 24 q 202 -111 228 -73 q 151 -177 176 -149 q 106 -220 125 -204 l 49 -166 q 120 -74 85 -126 q 180 42 154 -22 q 221 184 205 106 q 237 352 237 261 z "},"[":{"ha":438,"x_min":109,"x_max":397,"o":"m 109 907 l 397 907 l 397 824 l 207 824 l 207 -120 l 397 -120 l 397 -203 l 109 -203 l 109 907 z "},"]":{"ha":438,"x_min":41,"x_max":330,"o":"m 330 -203 l 41 -203 l 41 -120 l 231 -120 l 231 824 l 41 824 l 41 907 l 330 907 l 330 -203 z "},"{":{"ha":417,"x_min":81,"x_max":380,"o":"m 81 393 q 123 396 102 393 q 160 407 144 398 q 188 435 177 416 q 199 485 199 453 q 186 552 199 522 q 158 612 174 583 q 130 669 142 640 q 118 733 118 698 q 127 789 118 758 q 163 846 137 819 q 236 890 189 872 q 357 907 283 907 l 380 907 l 380 824 l 372 824 q 260 800 297 824 q 224 731 224 775 q 234 677 224 702 q 257 627 243 652 q 282 571 271 602 q 292 501 292 541 q 281 437 292 465 q 256 393 271 410 q 225 365 241 375 q 199 353 209 355 l 199 351 q 225 339 209 349 q 256 311 241 329 q 281 267 271 294 q 292 203 292 239 q 283 137 292 165 q 262 86 274 110 q 236 32 248 59 q 224 -27 224 5 q 261 -96 224 -71 q 372 -120 298 -120 l 380 -120 l 380 -203 l 357 -203 q 236 -186 283 -203 q 163 -142 189 -168 q 127 -85 137 -115 q 118 -31 118 -55 q 122 9 118 -9 q 133 43 126 27 q 148 74 140 59 q 165 105 156 90 q 189 158 179 130 q 199 219 199 186 q 188 269 199 251 q 160 297 177 288 q 123 308 144 306 q 81 311 102 311 l 81 393 z "},"}":{"ha":417,"x_min":37,"x_max":336,"o":"m 336 311 q 294 308 315 311 q 257 297 273 306 q 229 269 240 288 q 218 219 218 251 q 228 158 218 186 q 252 105 238 130 q 269 74 261 90 q 284 43 277 59 q 295 9 291 27 q 299 -31 299 -9 q 290 -85 299 -55 q 254 -142 280 -115 q 181 -186 228 -168 q 60 -203 134 -203 l 37 -203 l 37 -120 l 45 -120 q 156 -96 119 -120 q 193 -27 193 -71 q 181 32 193 5 q 155 86 170 59 q 134 137 143 110 q 125 203 125 165 q 136 267 125 239 q 161 311 146 294 q 192 339 176 329 q 218 351 208 349 l 218 353 q 192 365 208 355 q 161 393 176 375 q 136 437 146 410 q 125 501 125 465 q 135 571 125 541 q 160 627 146 602 q 183 677 174 652 q 193 731 193 702 q 157 800 193 775 q 45 824 120 824 l 37 824 l 37 907 l 60 907 q 181 890 134 907 q 254 846 228 872 q 290 789 280 819 q 299 733 299 758 q 287 669 299 698 q 259 612 275 640 q 231 552 243 583 q 218 485 218 522 q 229 435 218 453 q 257 407 240 416 q 294 396 273 398 q 336 393 315 393 l 336 311 z "},"*":{"ha":747,"x_min":81,"x_max":665,"o":"m 375 576 l 372 576 l 316 441 l 240 336 l 161 394 l 237 498 l 341 598 l 340 602 l 200 616 l 81 654 l 112 748 l 231 709 l 351 639 l 354 642 l 324 779 l 324 907 l 422 907 l 422 779 l 393 642 l 395 639 l 516 709 l 635 748 l 665 654 l 547 616 l 407 602 l 406 598 l 510 498 l 586 394 l 507 336 l 431 441 l 375 576 z "},"†":{"ha":645,"x_min":81,"x_max":564,"o":"m 373 779 l 342 642 l 345 639 l 457 669 l 564 669 l 564 576 l 457 576 l 345 607 l 342 604 l 373 467 l 343 87 l 302 87 l 272 467 l 303 604 l 300 607 l 188 576 l 81 576 l 81 669 l 188 669 l 300 639 l 303 642 l 272 779 l 272 907 l 373 907 l 373 779 z "},"‡":{"ha":645,"x_min":81,"x_max":564,"o":"m 272 467 l 303 604 l 300 607 l 188 576 l 81 576 l 81 669 l 188 669 l 300 639 l 303 642 l 272 779 l 272 907 l 373 907 l 373 779 l 342 642 l 345 639 l 457 669 l 564 669 l 564 576 l 457 576 l 345 607 l 342 604 l 373 467 l 373 440 l 342 303 l 345 300 l 457 331 l 564 331 l 564 238 l 457 238 l 345 269 l 342 266 l 373 129 l 373 0 l 272 0 l 272 129 l 303 266 l 300 269 l 188 238 l 81 238 l 81 331 l 188 331 l 300 300 l 303 303 l 272 440 l 272 467 z "},"§":{"ha":592,"x_min":68,"x_max":524,"o":"m 169 747 q 155 682 159 713 q 151 620 151 650 q 160 528 151 572 q 185 442 170 484 q 221 360 201 400 q 264 282 242 321 q 320 187 292 234 q 370 93 349 140 q 404 0 392 45 q 416 -88 416 -45 q 415 -102 416 -94 l 423 -102 q 437 -39 433 -71 q 441 24 441 -6 q 432 115 441 71 q 408 200 423 159 q 372 280 393 241 q 330 357 352 319 q 274 454 302 406 q 223 550 245 502 q 189 643 201 597 q 176 730 176 688 q 177 747 176 739 l 169 747 m 245 736 q 260 671 245 706 q 298 596 275 636 q 351 513 321 557 q 408 420 380 469 q 451 339 431 381 q 488 252 472 297 q 513 158 504 207 q 522 56 522 109 q 497 -109 522 -43 q 433 -212 473 -174 q 343 -265 393 -250 q 243 -280 294 -280 q 147 -270 189 -280 q 68 -244 104 -260 l 68 -155 q 149 -180 108 -170 q 232 -191 189 -191 q 318 -167 288 -191 q 347 -92 347 -143 q 332 -24 347 -60 q 292 52 316 12 q 237 138 267 92 q 178 235 207 184 q 136 313 156 273 q 102 398 117 354 q 79 490 87 443 q 70 589 70 538 q 95 753 70 688 q 159 856 120 818 q 247 909 199 894 q 342 924 296 924 q 441 914 395 924 q 524 888 487 904 l 524 799 q 442 825 484 814 q 356 835 400 835 q 272 808 298 835 q 245 736 245 782 z "},"¶":{"ha":803,"x_min":64,"x_max":688,"o":"m 338 -262 l 338 218 q 226 260 276 230 q 140 334 176 290 q 84 435 104 378 q 64 559 64 492 q 91 700 64 636 q 164 810 117 764 q 276 882 211 857 q 423 907 341 907 l 688 907 l 688 -262 l 583 -262 l 583 814 l 443 814 l 443 -262 l 338 -262 z "},"Α":{"ha":882,"x_min":24,"x_max":859,"o":"m 24 0 l 393 907 l 489 907 l 859 0 l 739 0 l 630 273 l 251 273 l 142 0 l 24 0 m 440 766 q 324 458 380 597 l 290 373 l 591 373 l 557 458 q 443 766 501 600 l 440 766 z "},"Β":{"ha":824,"x_min":115,"x_max":746,"o":"m 563 469 q 638 447 605 463 q 696 405 672 431 q 733 345 720 380 q 746 265 746 310 q 736 198 746 233 q 705 131 727 163 q 647 70 683 98 q 559 24 612 42 q 469 5 518 11 q 350 0 419 0 l 115 0 l 115 907 l 342 907 q 398 906 373 907 q 445 903 424 905 q 485 898 467 901 q 519 891 503 895 q 597 860 562 880 q 656 812 632 840 q 694 749 681 784 q 707 672 707 713 q 700 608 707 639 q 674 552 692 578 q 630 506 657 526 q 563 472 602 486 l 563 469 m 394 515 q 450 518 427 515 q 493 527 474 521 q 567 580 544 544 q 591 665 591 616 q 566 747 591 715 q 490 794 542 779 q 430 805 464 802 q 350 808 396 808 l 226 808 l 226 515 l 394 515 m 226 415 l 226 100 l 359 100 q 448 104 407 100 q 517 118 488 109 q 570 144 548 128 q 605 179 591 160 q 624 220 618 199 q 629 264 629 242 q 623 313 629 290 q 603 354 617 336 q 567 385 589 372 q 510 406 544 399 q 464 413 490 411 q 399 415 437 415 l 226 415 z "},"Γ":{"ha":720,"x_min":115,"x_max":693,"o":"m 115 0 l 115 907 l 693 907 l 693 808 l 226 808 l 226 0 l 115 0 z "},"Δ":{"ha":872,"x_min":41,"x_max":831,"o":"m 380 907 l 491 907 l 831 69 l 831 0 l 41 0 l 41 69 l 380 907 m 172 100 l 701 100 l 540 511 q 439 777 490 640 l 435 777 q 334 513 376 618 l 172 100 z "},"Ε":{"ha":766,"x_min":115,"x_max":691,"o":"m 226 100 l 691 100 l 691 0 l 115 0 l 115 907 l 666 907 l 666 808 l 226 808 l 226 515 l 617 515 l 617 415 l 226 415 l 226 100 z "},"Ζ":{"ha":813,"x_min":68,"x_max":745,"o":"m 739 907 l 739 838 l 213 100 l 745 100 l 745 0 l 68 0 l 68 69 l 595 808 l 80 808 l 80 907 l 739 907 z "},"Η":{"ha":927,"x_min":115,"x_max":812,"o":"m 226 515 l 701 515 l 701 907 l 812 907 l 812 0 l 701 0 l 701 415 l 226 415 l 226 0 l 115 0 l 115 907 l 226 907 l 226 515 z "},"Θ":{"ha":1015,"x_min":81,"x_max":933,"o":"m 711 415 l 304 415 l 304 515 l 711 515 l 711 415 m 817 453 q 793 614 817 545 q 727 731 769 684 q 629 802 686 778 q 507 826 572 826 q 386 802 442 826 q 287 731 329 778 q 222 614 245 684 q 198 453 198 545 q 222 292 198 361 q 288 176 246 222 q 386 105 330 129 q 509 81 443 81 q 630 105 574 81 q 727 176 686 129 q 793 292 769 222 q 817 453 817 361 m 933 453 q 903 264 933 350 q 818 115 873 178 q 684 18 762 53 q 509 -17 606 -17 q 329 18 408 -17 q 195 115 250 53 q 111 264 140 178 q 81 453 81 350 q 112 643 81 557 q 197 792 142 730 q 331 889 252 854 q 507 924 410 924 q 686 889 607 924 q 820 792 765 854 q 904 643 875 730 q 933 453 933 557 z "},"Ι":{"ha":341,"x_min":115,"x_max":226,"o":"m 115 0 l 115 907 l 226 907 l 226 0 l 115 0 z "},"Κ":{"ha":840,"x_min":115,"x_max":813,"o":"m 115 0 l 115 907 l 226 907 l 226 459 l 227 459 l 644 907 l 781 907 l 357 456 l 813 0 l 669 0 l 227 444 l 226 444 l 226 0 l 115 0 z "},"Λ":{"ha":871,"x_min":24,"x_max":848,"o":"m 435 758 q 323 463 378 600 l 141 0 l 24 0 l 387 907 l 484 907 l 848 0 l 730 0 l 549 463 q 438 758 491 608 l 435 758 z "},"Μ":{"ha":1141,"x_min":115,"x_max":1026,"o":"m 596 0 l 545 0 l 317 542 q 222 785 269 654 l 216 785 q 226 439 226 596 l 226 0 l 115 0 l 115 907 l 275 907 l 488 394 q 569 182 525 306 l 572 182 q 653 394 621 319 l 867 907 l 1026 907 l 1026 0 l 916 0 l 916 439 q 925 785 916 593 l 920 785 q 825 542 869 646 l 596 0 z "},"Ν":{"ha":967,"x_min":115,"x_max":852,"o":"m 581 401 q 746 155 665 281 l 750 155 q 741 425 741 287 l 741 907 l 852 907 l 852 0 l 742 0 l 386 506 q 221 753 294 638 l 217 753 q 226 463 226 629 l 226 0 l 115 0 l 115 907 l 225 907 l 581 401 z "},"Ξ":{"ha":792,"x_min":68,"x_max":724,"o":"m 140 515 l 652 515 l 652 415 l 140 415 l 140 515 m 68 100 l 724 100 l 724 0 l 68 0 l 68 100 m 92 907 l 701 907 l 701 808 l 92 808 l 92 907 z "},"Ο":{"ha":1015,"x_min":81,"x_max":933,"o":"m 817 453 q 793 614 817 545 q 727 731 769 684 q 629 802 686 778 q 507 826 572 826 q 386 802 442 826 q 287 731 329 778 q 222 614 245 684 q 198 453 198 545 q 222 292 198 361 q 288 176 246 222 q 386 105 330 129 q 509 81 443 81 q 630 105 574 81 q 727 176 686 129 q 793 292 769 222 q 817 453 817 361 m 933 453 q 903 264 933 350 q 818 115 873 178 q 684 18 762 53 q 509 -17 606 -17 q 329 18 408 -17 q 195 115 250 53 q 111 264 140 178 q 81 453 81 350 q 112 643 81 557 q 197 792 142 730 q 331 889 252 854 q 507 924 410 924 q 686 889 607 924 q 820 792 765 854 q 904 643 875 730 q 933 453 933 557 z "},"Π":{"ha":920,"x_min":115,"x_max":805,"o":"m 805 907 l 805 0 l 694 0 l 694 808 l 226 808 l 226 0 l 115 0 l 115 907 l 805 907 z "},"Ρ":{"ha":792,"x_min":115,"x_max":724,"o":"m 226 0 l 115 0 l 115 907 l 367 907 q 471 901 423 907 q 559 880 519 894 q 682 792 640 850 q 724 650 724 734 q 697 528 724 581 q 617 440 669 475 q 490 387 565 405 q 320 369 415 369 q 226 373 275 369 l 226 0 m 226 474 q 273 470 248 471 q 319 469 297 469 q 452 481 397 469 q 541 516 507 493 q 591 573 576 540 q 607 650 607 607 q 582 736 607 703 q 509 788 556 770 q 442 803 480 799 q 354 808 404 808 l 226 808 l 226 474 z "},"Σ":{"ha":816,"x_min":68,"x_max":741,"o":"m 341 213 q 233 100 292 159 l 233 97 q 400 100 330 100 l 741 100 l 741 0 l 68 0 l 68 72 l 442 477 l 442 481 l 93 840 l 93 907 l 736 907 l 736 808 l 409 808 q 269 810 336 808 l 269 808 q 372 705 321 756 l 585 481 l 341 213 z "},"Τ":{"ha":771,"x_min":27,"x_max":744,"o":"m 441 0 l 330 0 l 330 808 l 27 808 l 27 907 l 744 907 l 744 808 l 441 808 l 441 0 z "},"Υ":{"ha":822,"x_min":34,"x_max":788,"o":"m 412 460 q 451 565 427 514 q 505 670 474 616 q 574 781 536 723 q 658 907 612 840 l 788 907 q 712 801 751 854 q 638 693 674 747 q 571 584 602 640 q 516 469 540 528 q 479 345 493 409 q 466 211 466 281 l 466 0 l 355 0 l 355 211 q 326 408 355 316 q 251 584 297 500 q 147 747 204 668 q 34 907 90 827 l 165 907 q 248 783 210 841 q 316 671 286 725 q 370 566 347 617 q 410 460 394 514 l 412 460 z "},"Φ":{"ha":1056,"x_min":75,"x_max":981,"o":"m 473 -45 l 473 57 q 305 97 379 64 q 179 182 231 130 q 101 306 128 235 q 75 460 75 377 q 102 615 75 545 q 181 740 130 686 q 307 825 233 793 q 473 865 381 858 l 473 966 l 584 966 l 584 865 q 752 825 678 858 q 877 740 826 793 q 955 616 928 687 q 981 460 981 545 q 954 306 981 377 q 875 182 926 235 q 750 97 823 130 q 584 57 676 64 l 584 -45 l 473 -45 m 190 461 q 212 331 190 387 q 272 238 234 275 q 362 179 311 200 q 473 154 414 159 l 473 768 q 362 743 414 764 q 272 684 311 722 q 212 591 234 646 q 190 461 190 536 m 867 461 q 845 591 867 536 q 784 684 823 646 q 694 742 746 722 q 584 767 643 762 l 584 154 q 694 179 643 158 q 784 237 746 199 q 845 331 823 275 q 867 461 867 387 z "},"Χ":{"ha":838,"x_min":27,"x_max":811,"o":"m 423 540 l 674 907 l 797 907 l 489 460 l 811 0 l 687 0 l 421 385 l 418 385 l 153 0 l 27 0 l 352 463 l 47 907 l 168 907 l 420 540 l 423 540 z "},"Ψ":{"ha":995,"x_min":75,"x_max":920,"o":"m 553 0 l 442 0 l 442 290 q 260 327 332 294 q 148 426 189 360 q 91 593 106 492 q 75 835 75 694 q 76 907 75 861 l 188 907 q 187 843 187 865 q 199 627 187 713 q 240 489 211 541 q 318 414 269 437 q 442 388 368 391 l 442 907 l 553 907 l 553 388 q 676 414 627 391 q 755 489 726 437 q 796 627 784 541 q 808 843 808 713 q 807 907 808 873 l 919 907 q 920 835 920 872 q 904 593 920 694 q 847 426 888 492 q 735 327 806 360 q 553 290 664 294 l 553 0 z "},"Ω":{"ha":1035,"x_min":95,"x_max":940,"o":"m 517 924 q 693 891 615 924 q 825 801 770 859 q 908 665 879 743 q 937 495 937 586 q 920 369 937 427 q 876 262 903 311 q 813 173 848 213 q 741 102 778 133 l 741 100 l 940 100 l 940 0 l 618 0 l 618 76 q 693 163 656 121 q 757 254 729 206 q 803 360 785 302 q 820 493 820 418 q 796 643 820 580 q 730 746 772 705 q 634 806 689 787 q 517 826 579 826 q 401 807 456 826 q 304 747 346 787 q 239 644 263 706 q 215 495 215 581 q 232 361 215 420 q 278 255 250 303 q 342 163 306 206 q 417 76 378 121 l 417 0 l 95 0 l 95 100 l 292 100 l 292 102 q 216 175 252 135 q 155 263 181 215 q 114 370 129 312 q 98 495 98 427 q 127 665 98 586 q 210 801 156 743 q 342 891 264 859 q 517 924 420 924 z "},"Ά":{"ha":882,"x_min":24,"x_max":859,"o":"m 227 907 l 155 650 l 61 650 l 125 907 l 227 907 m 24 0 l 393 907 l 489 907 l 859 0 l 739 0 l 630 273 l 251 273 l 142 0 l 24 0 m 440 766 q 324 458 380 597 l 290 373 l 591 373 l 557 458 q 443 766 501 600 l 440 766 z "},"Έ":{"ha":878,"x_min":0,"x_max":804,"o":"m 165 907 l 94 650 l 0 650 l 64 907 l 165 907 m 338 100 l 804 100 l 804 0 l 228 0 l 228 907 l 779 907 l 779 808 l 338 808 l 338 515 l 730 515 l 730 415 l 338 415 l 338 100 z "},"Ή":{"ha":1040,"x_min":0,"x_max":924,"o":"m 165 907 l 94 650 l 0 650 l 64 907 l 165 907 m 338 515 l 814 515 l 814 907 l 924 907 l 924 0 l 814 0 l 814 415 l 338 415 l 338 0 l 228 0 l 228 907 l 338 907 l 338 515 z "},"Ί":{"ha":454,"x_min":0,"x_max":338,"o":"m 165 907 l 94 650 l 0 650 l 64 907 l 165 907 m 228 0 l 228 907 l 338 907 l 338 0 l 228 0 z "},"Ϊ":{"ha":341,"x_min":-65,"x_max":357,"o":"m 115 0 l 115 907 l 226 907 l 226 0 l 115 0 m -12 982 l -12 1097 l 97 1097 l 97 982 l -12 982 m 248 982 l 248 1097 l 357 1097 l 357 982 l 248 982 m -65 907 z "},"Ό":{"ha":1097,"x_min":0,"x_max":1015,"o":"m 165 907 l 94 650 l 0 650 l 64 907 l 165 907 m 899 453 q 875 614 899 545 q 809 731 851 684 q 711 802 768 778 q 589 826 654 826 q 468 802 524 826 q 369 731 411 778 q 304 614 328 684 q 280 453 280 545 q 304 292 280 361 q 370 176 328 222 q 468 105 412 129 q 591 81 525 81 q 712 105 656 81 q 809 176 768 129 q 875 292 851 222 q 899 453 899 361 m 1015 453 q 985 264 1015 350 q 900 115 956 178 q 766 18 844 53 q 591 -17 688 -17 q 411 18 490 -17 q 277 115 332 53 q 193 264 222 178 q 163 453 163 350 q 194 643 163 557 q 279 792 224 730 q 413 889 334 854 q 589 924 492 924 q 768 889 689 924 q 902 792 847 854 q 986 643 957 730 q 1015 453 1015 557 z "},"Ύ":{"ha":995,"x_min":0,"x_max":961,"o":"m 165 907 l 94 650 l 0 650 l 64 907 l 165 907 m 585 460 q 624 565 600 514 q 678 670 647 616 q 747 781 709 723 q 831 907 785 840 l 961 907 q 885 801 924 854 q 811 693 847 747 q 744 584 775 640 q 689 469 713 528 q 652 345 666 409 q 639 211 639 281 l 639 0 l 528 0 l 528 211 q 499 408 528 316 q 424 584 470 500 q 320 747 377 668 q 207 907 263 827 l 338 907 q 420 783 382 841 q 489 671 458 725 q 543 566 519 617 q 583 460 567 514 l 585 460 z "},"Ϋ":{"ha":822,"x_min":34,"x_max":788,"o":"m 412 460 q 451 565 427 514 q 505 670 474 616 q 574 781 536 723 q 658 907 612 840 l 788 907 q 712 801 751 854 q 638 693 674 747 q 571 584 602 640 q 516 469 540 528 q 479 345 493 409 q 466 211 466 281 l 466 0 l 355 0 l 355 211 q 326 408 355 316 q 251 584 297 500 q 147 747 204 668 q 34 907 90 827 l 165 907 q 248 783 210 841 q 316 671 286 725 q 370 566 347 617 q 410 460 394 514 l 412 460 m 224 982 l 224 1097 l 334 1097 l 334 982 l 224 982 m 484 982 l 484 1097 l 593 1097 l 593 982 l 484 982 m 172 907 z "},"Ώ":{"ha":1103,"x_min":0,"x_max":1015,"o":"m 165 907 l 94 650 l 0 650 l 64 907 l 165 907 m 593 924 q 768 891 690 924 q 900 801 846 859 q 983 665 954 743 q 1012 495 1012 586 q 995 369 1012 427 q 951 262 979 311 q 888 173 924 213 q 816 102 853 133 l 816 100 l 1015 100 l 1015 0 l 693 0 l 693 76 q 768 163 732 121 q 832 254 804 206 q 878 360 861 302 q 895 493 895 418 q 871 643 895 580 q 806 746 847 705 q 709 806 764 787 q 593 826 654 826 q 476 807 531 826 q 380 747 421 787 q 314 644 338 706 q 290 495 290 581 q 308 361 290 420 q 353 255 325 303 q 417 163 381 206 q 492 76 454 121 l 492 0 l 170 0 l 170 100 l 367 100 l 367 102 q 292 175 327 135 q 230 263 256 215 q 189 370 204 312 q 174 495 174 427 q 202 665 174 586 q 286 801 231 743 q 417 891 340 859 q 593 924 495 924 z "},"α":{"ha":779,"x_min":64,"x_max":742,"o":"m 687 -10 q 627 3 654 -10 q 581 38 600 16 q 549 87 562 60 q 531 146 537 115 l 528 146 q 497 90 515 118 q 455 37 480 61 q 395 -2 429 13 q 314 -17 360 -17 q 219 3 264 -17 q 140 64 174 24 q 85 167 105 105 q 64 311 64 229 q 89 472 64 406 q 151 581 113 538 q 234 642 189 623 q 322 661 279 661 q 401 647 366 661 q 463 610 435 633 q 511 554 490 586 q 547 486 532 522 l 550 486 q 563 526 555 505 q 578 569 570 548 q 593 610 585 591 q 606 644 600 630 l 705 644 q 670 558 687 600 q 640 478 654 517 q 614 399 625 438 q 594 317 602 359 q 602 205 594 250 q 625 133 610 160 q 660 94 640 106 q 705 82 680 82 q 722 83 710 82 q 742 86 734 84 l 742 -4 q 715 -8 730 -7 q 687 -10 701 -10 m 498 349 q 476 429 490 389 q 440 500 461 468 q 390 551 418 532 q 326 571 361 571 q 266 554 294 571 q 219 504 239 536 q 187 424 199 471 q 176 317 176 377 q 183 234 176 277 q 208 155 191 191 q 253 96 225 119 q 322 73 281 73 q 395 99 363 73 q 449 165 427 124 q 483 255 471 206 q 498 349 496 304 z "},"β":{"ha":765,"x_min":115,"x_max":690,"o":"m 510 525 q 583 493 550 514 q 640 442 616 473 q 677 371 664 412 q 690 277 690 330 q 671 161 690 215 q 615 67 652 107 q 523 5 578 28 q 396 -17 468 -17 q 296 -1 341 -17 q 222 43 252 15 l 220 43 l 220 -315 l 115 -315 l 115 705 q 127 819 115 774 q 163 897 140 863 q 218 953 186 930 q 290 987 250 976 q 374 999 329 999 q 478 982 430 999 q 562 934 526 966 q 618 854 598 902 q 639 746 639 807 q 631 675 639 709 q 608 612 624 641 q 568 562 593 584 q 510 528 544 541 l 510 525 m 304 566 q 361 564 335 564 q 442 579 410 564 q 493 620 474 595 q 520 679 513 646 q 528 746 528 711 q 518 810 528 781 q 489 862 509 840 q 440 897 470 884 q 372 909 411 909 q 314 899 342 909 q 266 865 287 888 q 233 806 245 842 q 220 719 220 770 l 220 140 q 296 89 254 106 q 388 73 338 73 q 474 89 437 73 q 534 133 510 105 q 569 196 557 160 q 581 273 581 233 q 561 368 581 330 q 512 428 542 406 q 444 460 481 450 q 371 469 407 469 q 343 469 361 469 q 304 467 326 469 l 304 566 z "},"γ":{"ha":673,"x_min":27,"x_max":639,"o":"m 353 -56 q 355 -166 355 -127 l 355 -315 l 231 -315 q 247 -121 247 -198 q 228 86 247 -18 q 177 289 208 190 q 106 478 145 388 q 27 644 67 569 l 144 644 q 198 530 170 595 q 251 392 226 465 q 297 242 277 319 q 328 90 317 165 l 330 90 q 390 212 361 150 q 443 343 418 275 q 489 486 468 411 q 526 644 510 560 l 639 644 q 592 450 623 547 q 521 264 561 354 q 437 93 481 174 q 353 -56 393 12 z "},"δ":{"ha":739,"x_min":64,"x_max":675,"o":"m 347 631 q 292 681 319 655 q 243 733 265 706 q 209 790 222 760 q 195 851 195 819 q 210 914 195 886 q 250 960 224 941 q 315 989 277 979 q 400 999 353 999 q 471 994 435 999 q 542 981 507 989 q 608 963 576 973 q 667 941 640 952 l 667 844 q 535 891 601 873 q 408 910 470 910 q 331 896 361 910 q 300 850 300 882 q 318 803 300 827 q 364 752 336 779 q 428 696 392 726 q 500 631 464 666 q 565 564 534 600 q 621 486 596 528 q 660 394 646 444 q 675 290 675 345 q 652 166 675 222 q 589 69 630 110 q 491 6 548 28 q 363 -17 433 -17 q 240 3 296 -17 q 146 61 185 24 q 86 150 107 98 q 64 267 64 203 q 88 393 64 336 q 151 497 111 451 q 241 576 190 543 q 347 629 292 610 l 347 631 m 565 293 q 554 379 565 340 q 523 452 543 418 q 477 513 503 485 q 420 569 451 542 q 327 526 372 553 q 249 462 282 499 q 195 378 215 425 q 174 273 174 331 q 188 192 174 229 q 226 128 201 155 q 285 87 250 102 q 362 73 319 73 q 446 87 408 73 q 509 130 483 102 q 550 199 536 157 q 565 293 565 240 z "},"ε":{"ha":638,"x_min":68,"x_max":584,"o":"m 481 286 q 420 289 452 288 q 345 291 388 291 q 219 264 260 291 q 178 186 178 237 q 189 141 178 162 q 221 105 199 120 q 277 81 243 90 q 355 73 311 73 q 485 87 426 73 q 584 122 543 102 l 584 33 q 489 -2 549 14 q 346 -17 428 -17 q 224 -2 276 -17 q 137 38 172 12 q 85 100 102 64 q 68 178 68 136 q 79 239 68 212 q 109 285 90 265 q 151 317 127 304 q 199 335 174 330 l 199 338 q 159 355 178 344 q 123 385 139 367 q 99 427 108 402 q 90 482 90 451 q 109 555 90 522 q 163 612 127 589 q 248 648 198 635 q 361 661 298 661 q 470 653 418 661 q 564 633 522 645 l 564 544 q 468 564 515 556 q 372 571 420 571 q 301 563 333 571 q 247 542 269 555 q 212 510 224 528 q 199 469 199 491 q 207 432 199 449 q 231 403 214 415 q 275 384 248 391 q 341 376 302 376 q 421 377 387 376 q 481 381 455 378 l 481 286 z "},"ζ":{"ha":625,"x_min":64,"x_max":614,"o":"m 490 909 q 142 871 311 873 l 142 965 q 604 998 395 965 l 604 916 q 446 802 523 865 q 308 667 368 739 q 210 510 247 594 q 174 333 174 427 q 189 250 174 283 q 229 192 203 216 q 287 154 254 169 q 355 129 319 140 q 418 111 388 119 q 476 94 448 103 q 530 71 505 84 q 574 39 555 58 q 604 -6 593 20 q 614 -68 614 -32 q 595 -175 614 -125 q 544 -272 576 -224 l 431 -272 q 486 -173 469 -218 q 503 -90 503 -129 q 485 -37 503 -58 q 437 -2 467 -16 q 368 21 406 12 q 288 43 329 31 q 207 74 247 56 q 135 124 166 93 q 84 204 103 156 q 64 323 64 252 q 98 505 64 417 q 190 666 132 592 q 326 801 248 740 q 490 904 403 861 l 490 909 z "},"η":{"ha":777,"x_min":34,"x_max":668,"o":"m 226 555 q 265 596 243 577 q 313 630 287 616 q 371 653 340 645 q 437 661 401 661 q 486 657 460 661 q 538 643 513 653 q 588 617 564 633 q 629 575 611 600 q 657 514 647 549 q 668 431 668 478 l 668 -315 l 563 -315 l 563 414 q 551 486 563 456 q 520 534 540 515 q 474 562 500 553 q 418 571 448 571 q 314 541 362 570 q 230 458 267 511 l 230 0 l 125 0 l 125 477 q 124 516 125 499 q 118 545 123 533 q 102 563 113 557 q 73 569 92 569 q 52 567 62 569 q 34 562 41 565 l 34 646 q 63 652 45 650 q 95 654 81 654 q 150 648 127 654 q 188 628 173 641 q 212 597 203 616 q 224 555 220 578 l 226 555 z "},"θ":{"ha":754,"x_min":71,"x_max":683,"o":"m 683 498 q 662 273 683 369 q 603 112 642 176 q 507 15 564 47 q 378 -17 450 -17 q 247 13 304 -17 q 150 104 189 43 q 91 261 111 166 q 71 484 71 355 q 92 709 71 613 q 152 870 113 806 q 248 967 191 935 q 376 999 304 999 q 508 969 451 999 q 604 878 565 939 q 663 721 643 816 q 683 498 683 627 m 377 73 q 517 170 469 73 q 570 460 566 268 l 184 460 q 236 169 187 266 q 377 73 285 73 m 377 909 q 241 819 289 909 q 185 551 193 728 l 569 551 q 377 909 557 909 z "},"ι":{"ha":363,"x_min":102,"x_max":326,"o":"m 207 159 q 210 119 207 134 q 219 94 212 103 q 237 82 226 85 q 265 79 248 79 q 297 83 279 79 q 326 90 316 86 l 326 2 q 286 -6 310 -3 q 237 -10 261 -10 q 173 -1 199 -10 q 131 26 147 8 q 109 70 115 44 q 102 130 102 96 l 102 644 l 207 644 l 207 159 z "},"κ":{"ha":723,"x_min":102,"x_max":696,"o":"m 102 0 l 102 644 l 207 644 l 207 343 l 484 591 q 562 642 520 624 q 662 661 604 661 l 662 567 q 622 562 641 567 q 586 547 603 556 q 553 527 568 538 q 524 503 538 515 l 376 374 l 696 0 l 559 0 l 302 309 l 207 227 l 207 0 l 102 0 z "},"λ":{"ha":675,"x_min":27,"x_max":645,"o":"m 137 999 q 220 982 185 999 q 282 932 256 964 q 330 854 309 901 q 372 751 351 808 l 645 0 l 530 0 l 408 349 q 359 498 378 437 l 357 498 q 296 349 334 435 l 144 0 l 27 0 l 309 627 q 264 753 284 700 q 222 840 243 806 q 176 892 201 875 q 117 909 151 909 q 81 905 100 909 q 51 897 62 901 l 51 983 q 90 994 66 989 q 137 999 115 999 z "},"μ":{"ha":800,"x_min":109,"x_max":763,"o":"m 574 98 q 484 8 538 34 q 362 -17 430 -17 q 274 1 313 -17 q 213 49 235 18 l 210 49 l 213 -197 l 214 -315 l 109 -315 l 109 644 l 214 644 l 214 245 q 224 168 214 200 q 254 115 235 136 q 302 85 274 95 q 366 75 330 75 q 446 90 410 75 q 508 133 482 104 q 547 205 533 161 q 560 308 560 249 l 560 644 l 665 644 l 665 212 q 669 144 665 171 q 682 103 673 118 q 702 81 690 87 q 732 75 715 75 q 746 76 736 75 q 763 79 755 77 l 763 -4 q 736 -8 751 -7 q 710 -10 722 -10 q 656 -2 679 -10 q 617 19 633 5 q 592 53 602 33 q 576 98 582 73 l 574 98 z "},"ν":{"ha":656,"x_min":34,"x_max":599,"o":"m 599 644 q 577 451 598 538 q 522 288 557 364 q 441 142 487 212 q 344 0 395 72 l 260 0 q 208 164 235 81 q 153 330 181 248 q 94 492 124 412 q 34 644 64 571 l 147 644 q 196 522 172 586 q 242 390 220 457 q 284 256 264 323 q 320 125 304 189 l 323 125 q 382 221 353 165 q 434 342 411 277 q 472 481 458 408 q 486 629 486 554 l 486 644 l 599 644 z "},"ξ":{"ha":606,"x_min":71,"x_max":595,"o":"m 286 503 q 219 520 250 509 q 167 550 189 531 q 133 596 145 568 q 121 663 121 624 q 142 751 121 711 q 202 821 163 790 q 294 876 241 852 q 411 918 347 900 l 410 922 q 119 890 205 892 l 119 982 q 578 998 376 982 l 578 914 q 437 870 500 894 q 327 818 373 847 q 256 753 281 789 q 231 673 231 718 q 255 608 231 633 q 318 571 280 583 q 406 555 357 559 q 499 551 455 551 q 534 552 508 551 l 534 469 l 517 469 q 440 464 481 469 q 363 448 399 458 q 292 420 326 437 q 234 380 258 403 q 195 328 209 357 q 180 264 180 298 q 197 200 180 224 q 240 161 213 176 q 301 137 267 146 q 373 121 336 128 q 427 109 400 115 q 479 93 454 102 q 525 71 504 84 q 562 39 546 58 q 587 -7 578 20 q 595 -69 595 -33 q 576 -173 595 -121 q 525 -272 557 -224 l 414 -272 q 468 -170 452 -216 q 484 -85 484 -123 q 470 -34 484 -54 q 429 -1 455 -14 q 371 20 404 12 q 304 35 339 28 q 221 56 262 44 q 146 91 179 68 q 92 151 113 113 q 71 247 71 188 q 89 343 71 302 q 137 414 107 384 q 205 466 167 445 q 286 500 244 487 l 286 503 z "},"ο":{"ha":741,"x_min":64,"x_max":676,"o":"m 566 321 q 552 428 566 381 q 511 506 537 474 q 449 555 485 538 q 370 572 413 572 q 292 555 328 572 q 230 506 256 538 q 189 428 203 474 q 174 321 174 381 q 189 216 174 262 q 230 138 203 170 q 292 89 256 106 q 371 73 328 73 q 449 89 414 73 q 511 138 485 106 q 552 216 537 170 q 566 321 566 262 m 676 321 q 654 183 676 245 q 593 76 633 121 q 497 7 553 32 q 371 -17 441 -17 q 242 7 299 -17 q 146 76 186 32 q 85 183 106 121 q 64 321 64 245 q 86 460 64 398 q 148 568 108 523 q 244 637 187 612 q 370 661 300 661 q 498 637 441 661 q 595 568 555 612 q 655 460 634 523 q 676 321 676 398 z "},"π":{"ha":799,"x_min":37,"x_max":762,"o":"m 271 554 l 271 0 l 166 0 l 166 554 l 37 554 l 37 644 l 762 644 l 762 554 l 638 554 l 638 184 q 639 138 638 158 q 646 105 640 118 q 663 86 651 92 q 696 79 675 79 q 715 80 705 79 q 733 83 726 81 l 733 -4 q 706 -8 722 -7 q 671 -10 690 -10 q 605 -1 631 -10 q 563 27 578 9 q 540 72 547 45 q 533 130 533 98 l 533 554 l 271 554 z "},"ρ":{"ha":749,"x_min":109,"x_max":688,"o":"m 578 328 q 564 432 578 387 q 526 508 551 477 q 468 555 501 539 q 395 571 435 571 q 326 556 358 571 q 268 508 293 542 q 228 418 243 474 q 214 280 214 363 l 214 154 q 284 95 241 117 q 383 73 328 73 q 452 86 418 73 q 515 130 487 100 q 561 210 543 161 q 578 328 578 260 m 109 288 q 121 425 109 366 q 156 524 134 483 q 207 592 178 566 q 266 634 235 618 q 329 655 298 650 q 389 661 361 661 q 519 635 463 661 q 613 563 576 608 q 669 457 650 518 q 688 327 688 396 q 675 213 688 263 q 640 125 662 163 q 588 60 618 87 q 526 16 559 33 q 458 -9 493 -1 q 391 -17 423 -17 q 331 -11 358 -17 q 281 6 303 -4 q 241 30 258 17 q 212 56 224 43 l 210 56 q 212 -7 211 25 q 214 -78 214 -39 l 214 -315 l 109 -315 l 109 288 z "},"σ":{"ha":768,"x_min":61,"x_max":734,"o":"m 391 554 q 293 536 334 554 q 224 487 252 519 q 183 409 197 454 q 170 307 170 363 q 185 208 170 252 q 225 134 199 164 q 286 89 251 104 q 363 73 321 73 q 501 134 452 73 q 550 304 550 194 q 540 386 550 349 q 513 454 530 423 q 474 509 496 484 q 429 554 452 534 l 391 554 m 631 554 q 589 555 612 554 q 548 557 566 555 l 548 554 q 590 511 570 537 q 627 453 611 486 q 652 380 642 420 q 661 296 661 340 q 642 174 661 231 q 583 74 622 117 q 488 8 545 32 q 359 -17 432 -16 q 236 7 291 -17 q 142 75 180 31 q 82 179 103 118 q 61 313 61 240 q 66 377 61 343 q 85 447 72 412 q 119 515 98 481 q 170 574 140 548 q 262 626 208 607 q 395 644 316 644 l 734 644 l 734 554 l 631 554 z "},"ς":{"ha":576,"x_min":61,"x_max":535,"o":"m 171 335 q 185 245 171 281 q 223 186 199 210 q 277 149 247 163 q 340 123 308 134 q 411 98 376 111 q 473 65 446 85 q 518 13 501 45 q 535 -71 535 -19 q 516 -174 535 -123 q 465 -272 496 -224 l 350 -272 q 406 -169 388 -218 q 424 -82 424 -121 q 411 -32 423 -51 q 377 -1 398 -14 q 326 23 355 12 q 265 44 297 33 q 216 63 241 53 q 169 89 191 74 q 126 125 146 104 q 92 175 106 146 q 70 242 78 204 q 61 330 61 281 q 87 485 61 420 q 157 588 114 549 q 253 644 200 627 q 359 661 305 661 q 449 651 406 661 q 522 625 492 642 l 522 537 q 444 562 479 553 q 369 571 408 570 q 295 558 331 571 q 231 518 258 546 q 187 445 203 490 q 171 335 171 400 z "},"τ":{"ha":614,"x_min":34,"x_max":580,"o":"m 34 644 l 580 644 l 580 554 l 332 554 l 332 172 q 336 131 332 149 q 349 99 339 113 q 378 79 359 86 q 427 72 397 72 q 498 80 457 72 l 498 -4 q 460 -13 485 -9 q 404 -17 435 -17 q 319 -5 353 -17 q 265 28 286 6 q 236 80 245 50 q 228 149 228 111 l 228 554 l 34 554 l 34 644 z "},"υ":{"ha":758,"x_min":34,"x_max":683,"o":"m 34 646 q 63 652 46 650 q 97 654 81 654 q 157 645 132 654 q 198 615 182 635 q 221 567 214 595 q 228 507 228 539 q 227 456 228 481 q 225 407 226 430 q 223 350 224 384 q 222 287 222 316 q 264 125 222 178 q 385 73 306 73 q 460 89 426 73 q 520 137 495 104 q 558 218 545 169 q 572 333 572 267 q 556 484 572 403 q 513 644 539 565 l 624 644 q 648 569 637 606 q 666 492 659 531 q 679 414 674 454 q 683 330 683 374 q 664 187 683 251 q 608 78 646 123 q 514 8 570 33 q 383 -17 458 -17 q 258 4 310 -17 q 174 64 207 25 q 127 158 142 103 q 112 282 112 214 q 115 385 112 327 q 119 496 119 442 q 108 550 119 534 q 70 565 97 565 q 51 563 60 565 q 34 559 41 562 l 34 646 z "},"φ":{"ha":941,"x_min":61,"x_max":880,"o":"m 418 -315 l 418 -24 q 272 10 338 -18 q 159 84 206 38 q 87 190 113 130 q 61 321 61 251 q 86 453 61 392 q 158 561 111 515 q 270 637 204 608 q 418 672 336 666 l 418 982 l 523 982 l 523 672 q 669 637 604 666 q 782 562 735 608 q 854 454 829 515 q 880 323 880 393 q 855 191 880 252 q 783 84 830 130 q 670 10 736 39 q 523 -24 604 -18 l 523 -315 l 418 -315 m 772 323 q 753 423 772 378 q 701 502 734 469 q 622 556 667 536 q 523 583 576 577 l 523 64 q 622 90 576 70 q 701 144 667 111 q 753 222 734 177 q 772 323 772 267 m 170 321 q 189 221 170 267 q 241 143 208 176 q 320 90 274 110 q 418 64 366 70 l 418 583 q 320 556 366 577 q 241 502 274 535 q 189 422 208 468 q 170 321 170 376 z "},"χ":{"ha":667,"x_min":-34,"x_max":647,"o":"m 338 292 q 369 354 352 321 q 401 416 386 388 l 532 644 l 647 644 l 374 180 q 422 -18 399 62 q 472 -146 446 -98 q 529 -217 498 -195 q 597 -238 559 -238 q 627 -236 610 -238 l 627 -322 q 604 -327 617 -326 q 578 -328 591 -328 q 487 -304 528 -328 q 412 -230 446 -279 q 352 -103 379 -180 q 302 79 326 -26 l 300 79 q 273 23 288 54 q 243 -32 258 -7 l 81 -315 l -34 -315 l 264 192 q 218 372 240 300 q 172 487 196 444 q 118 549 147 530 q 53 567 90 567 q 22 565 40 567 l 22 651 q 45 656 33 654 q 71 657 58 657 q 159 636 120 657 q 230 571 198 615 q 287 458 261 527 q 335 292 313 389 l 338 292 z "},"ψ":{"ha":972,"x_min":74,"x_max":898,"o":"m 538 -315 l 433 -315 l 433 -20 q 303 2 359 -16 q 207 52 247 20 q 142 131 168 83 q 101 243 116 178 q 80 392 85 309 q 74 578 74 475 q 75 644 74 614 l 184 644 q 183 590 183 597 q 188 418 183 493 q 204 286 193 342 q 234 190 216 229 q 281 125 253 151 q 346 88 309 100 q 433 73 384 75 l 433 844 l 538 844 l 538 73 q 626 88 588 75 q 691 125 663 100 q 738 190 719 151 q 768 286 756 229 q 784 418 779 342 q 789 590 789 493 q 788 644 789 600 l 897 644 q 898 578 898 604 q 892 392 898 475 q 871 243 886 309 q 830 131 856 178 q 765 51 804 83 q 669 2 725 19 q 538 -20 613 -16 l 538 -315 z "},"ω":{"ha":1059,"x_min":75,"x_max":985,"o":"m 529 143 q 510 98 523 125 q 471 45 496 71 q 407 1 446 20 q 312 -17 368 -17 q 215 5 259 -17 q 140 67 172 26 q 92 165 109 107 q 75 296 75 223 q 83 403 75 354 q 105 494 92 452 q 136 573 119 536 q 173 644 154 610 l 288 644 q 249 569 267 606 q 216 490 230 531 q 193 402 201 448 q 184 302 184 356 q 193 215 184 256 q 218 142 201 174 q 260 92 235 111 q 321 73 286 73 q 382 88 354 73 q 432 134 411 104 q 464 210 452 165 q 476 313 476 254 q 475 378 476 341 q 471 456 475 416 l 588 456 q 585 378 585 416 q 584 321 584 341 q 595 212 584 259 q 627 134 607 165 q 675 88 648 104 q 733 73 702 73 q 797 92 770 73 q 841 142 824 111 q 867 216 859 174 q 875 303 875 258 q 866 403 875 357 q 844 490 858 449 q 811 569 829 531 q 772 644 792 606 l 886 644 q 923 573 905 610 q 955 494 941 536 q 977 403 968 452 q 985 296 985 354 q 967 165 985 223 q 919 67 950 107 q 844 5 888 26 q 745 -17 800 -17 q 652 1 691 -16 q 589 45 614 19 q 550 98 564 71 q 531 143 537 125 l 529 143 z "},"ά":{"ha":776,"x_min":64,"x_max":742,"o":"m 687 -10 q 627 3 654 -10 q 581 38 600 16 q 549 87 562 60 q 531 146 537 115 l 528 146 q 497 90 515 118 q 455 37 480 61 q 395 -2 429 13 q 314 -17 360 -17 q 219 3 264 -17 q 140 64 174 24 q 85 167 105 105 q 64 311 64 229 q 89 472 64 406 q 151 581 113 538 q 234 642 189 623 q 322 661 279 661 q 401 647 366 661 q 463 610 435 633 q 511 554 490 586 q 547 486 532 522 l 550 486 q 563 526 555 505 q 578 569 570 548 q 593 610 585 591 q 606 644 600 630 l 705 644 q 670 558 687 600 q 640 478 654 517 q 614 399 625 438 q 594 317 602 359 q 602 205 594 250 q 625 133 610 160 q 660 94 640 106 q 705 82 680 82 q 722 83 710 82 q 742 86 734 84 l 742 -4 q 715 -8 730 -7 q 687 -10 701 -10 m 498 349 q 476 429 490 389 q 440 500 461 468 q 390 551 418 532 q 326 571 361 571 q 266 554 294 571 q 219 504 239 536 q 187 424 199 471 q 176 317 176 377 q 183 234 176 277 q 208 155 191 191 q 253 96 225 119 q 322 73 281 73 q 395 99 363 73 q 449 165 427 124 q 483 255 471 206 q 498 349 496 304 m 534 999 l 386 762 l 294 762 l 418 999 l 534 999 m 165 644 z "},"έ":{"ha":638,"x_min":68,"x_max":584,"o":"m 481 286 q 420 289 452 288 q 345 291 388 291 q 219 264 260 291 q 178 186 178 237 q 189 141 178 162 q 221 105 199 120 q 277 81 243 90 q 355 73 311 73 q 485 87 426 73 q 584 122 543 102 l 584 33 q 489 -2 549 14 q 346 -17 428 -17 q 224 -2 276 -17 q 137 38 172 12 q 85 100 102 64 q 68 178 68 136 q 79 239 68 212 q 109 285 90 265 q 151 317 127 304 q 199 335 174 330 l 199 338 q 159 355 178 344 q 123 385 139 367 q 99 427 108 402 q 90 482 90 451 q 109 555 90 522 q 163 612 127 589 q 248 648 198 635 q 361 661 298 661 q 470 653 418 661 q 564 633 522 645 l 564 544 q 468 564 515 556 q 372 571 420 571 q 301 563 333 571 q 247 542 269 555 q 212 510 224 528 q 199 469 199 491 q 207 432 199 449 q 231 403 214 415 q 275 384 248 391 q 341 376 302 376 q 421 377 387 376 q 481 381 455 378 l 481 286 m 541 999 l 393 762 l 300 762 l 425 999 l 541 999 m 172 644 z "},"ή":{"ha":777,"x_min":34,"x_max":668,"o":"m 226 555 q 265 596 243 577 q 313 630 287 616 q 371 653 340 645 q 437 661 401 661 q 486 657 460 661 q 538 643 513 653 q 588 617 564 633 q 629 575 611 600 q 657 514 647 549 q 668 431 668 478 l 668 -315 l 563 -315 l 563 414 q 551 486 563 456 q 520 534 540 515 q 474 562 500 553 q 418 571 448 571 q 314 541 362 570 q 230 458 267 511 l 230 0 l 125 0 l 125 477 q 124 516 125 499 q 118 545 123 533 q 102 563 113 557 q 73 569 92 569 q 52 567 62 569 q 34 562 41 565 l 34 646 q 63 652 45 650 q 95 654 81 654 q 150 648 127 654 q 188 628 173 641 q 212 597 203 616 q 224 555 220 578 l 226 555 m 619 999 l 471 762 l 378 762 l 503 999 l 619 999 m 250 644 z "},"ί":{"ha":363,"x_min":-10,"x_max":359,"o":"m 207 159 q 210 119 207 134 q 219 94 212 103 q 237 82 226 85 q 265 79 248 79 q 297 83 279 79 q 326 90 316 86 l 326 2 q 286 -6 310 -3 q 237 -10 261 -10 q 173 -1 199 -10 q 131 26 147 8 q 109 70 115 44 q 102 130 102 96 l 102 644 l 207 644 l 207 159 m 359 999 l 211 762 l 119 762 l 243 999 l 359 999 m -10 644 z "},"ϊ":{"ha":363,"x_min":-77,"x_max":343,"o":"m 207 159 q 210 119 207 134 q 219 94 212 103 q 237 82 226 85 q 265 79 248 79 q 297 83 279 79 q 326 90 316 86 l 326 2 q 286 -6 310 -3 q 237 -10 261 -10 q 173 -1 199 -10 q 131 26 147 8 q 109 70 115 44 q 102 130 102 96 l 102 644 l 207 644 l 207 159 m -23 794 l -23 907 l 85 907 l 85 794 l -23 794 m 235 794 l 235 907 l 343 907 l 343 794 l 235 794 m -77 644 z "},"ΐ":{"ha":363,"x_min":-66,"x_max":376,"o":"m 207 159 q 210 119 207 134 q 219 94 212 103 q 237 82 226 85 q 265 79 248 79 q 297 83 279 79 q 326 90 316 86 l 326 2 q 286 -6 310 -3 q 237 -10 261 -10 q 173 -1 199 -10 q 131 26 147 8 q 109 70 115 44 q 102 130 102 96 l 102 644 l 207 644 l 207 159 m -31 795 l -31 906 l 70 906 l 70 795 l -31 795 m 275 795 l 275 906 l 376 906 l 376 795 l 275 795 m 251 999 l 195 762 l 114 762 l 147 999 l 251 999 m -66 644 z "},"ό":{"ha":741,"x_min":64,"x_max":676,"o":"m 566 321 q 552 428 566 381 q 511 506 537 474 q 449 555 485 538 q 370 572 413 572 q 292 555 328 572 q 230 506 256 538 q 189 428 203 474 q 174 321 174 381 q 189 216 174 262 q 230 138 203 170 q 292 89 256 106 q 371 73 328 73 q 449 89 414 73 q 511 138 485 106 q 552 216 537 170 q 566 321 566 262 m 676 321 q 654 183 676 245 q 593 76 633 121 q 497 7 553 32 q 371 -17 441 -17 q 242 7 299 -17 q 146 76 186 32 q 85 183 106 121 q 64 321 64 245 q 86 460 64 398 q 148 568 108 523 q 244 637 187 612 q 370 661 300 661 q 498 637 441 661 q 595 568 555 612 q 655 460 634 523 q 676 321 676 398 m 567 999 l 418 762 l 326 762 l 450 999 l 567 999 m 197 644 z "}}}
